<svg width="677" height="703" viewBox="0 0 677 703" fill="none" xmlns="http://www.w3.org/2000/svg">
<path d="M603 583.5C603 749.185 370.185 693 204.5 693C38.8146 693 0 467.185 0 301.5C0 135.815 14.8146 0.5 180.5 0.5C346.185 0.5 603 417.815 603 583.5Z" fill="#47B785" fill-opacity="0.4"/>
<path d="M395.83 365.86C395.83 365.86 395.83 365.77 395.83 365.62V364.96C395.83 364.36 395.83 363.51 395.83 362.43C395.83 360.21 395.83 357.01 395.75 352.99L395.9 353.14L347.25 353.23C347.36 353.12 347 353.48 347.5 352.99V359.51C347.5 361.65 347.5 363.77 347.5 365.84L347.26 365.59L381.93 365.7L392.16 365.77H394.93H395.65C395.736 365.762 395.824 365.762 395.91 365.77H395.69H394.99H392.28L382 366L347.16 366.11H346.92V365.87C346.92 363.8 346.92 361.68 346.92 359.54V353L347.17 352.75L395.82 352.84H396V353C396 357.06 395.94 360.29 395.92 362.53C395.92 363.6 395.92 364.43 395.92 365.03C395.92 365.29 395.92 365.5 395.92 365.66C395.899 365.73 395.869 365.797 395.83 365.86Z" fill="#E0E0E0"/>
<path d="M489.41 231.24C489.401 231.164 489.401 231.086 489.41 231.01C489.41 230.84 489.41 230.62 489.41 230.35C489.41 229.74 489.41 228.9 489.41 227.81C489.41 225.59 489.36 222.4 489.33 218.37L489.48 218.52L440.83 218.62C440.94 218.51 440.58 218.87 441.07 218.37V231.24L440.82 231L475.49 231.11L485.73 231.18H488.5H489.22H489.48C489.404 231.189 489.326 231.189 489.25 231.18H488.56H485.84L475.66 231.25L440.82 231.36H440.58V218.39C441.07 217.9 440.71 218.25 440.83 218.14L489.48 218.24H489.63V218.39C489.63 222.46 489.56 225.68 489.54 227.92C489.54 228.99 489.54 229.83 489.54 230.42C489.54 230.68 489.54 230.89 489.54 231.06C489.502 231.124 489.459 231.184 489.41 231.24Z" fill="#E0E0E0"/>
<path d="M669.83 424C669.821 423.924 669.821 423.846 669.83 423.77V423.11C669.83 422.51 669.83 421.66 669.83 420.58C669.83 418.36 669.83 415.16 669.75 411.13L669.9 411.28L621.25 411.38L621.5 411.13V424L621.26 423.76L655.93 423.87L666.16 423.94H668.93H669.65H669.91C669.91 423.94 669.84 423.94 669.68 423.94H668.99H666.28L656.1 424.01L621.26 424.12H621.01V411.18L621.26 410.94L669.91 411.03H670V411.18C670 415.25 669.94 418.47 669.92 420.72C669.92 421.79 669.92 422.62 669.92 423.22V423.85C669.894 423.902 669.864 423.952 669.83 424Z" fill="#E0E0E0"/>
<path d="M676.43 411.17C676.416 411.091 676.416 411.009 676.43 410.93C676.43 410.74 676.43 410.52 676.43 410.25C676.43 409.61 676.43 408.75 676.43 407.67C676.43 405.41 676.38 402.22 676.34 398.3L676.52 398.48L647.29 398.55C647.06 398.77 647.59 398.25 647.53 398.3V404.92C647.53 407.08 647.53 409.16 647.53 411.16L647.29 410.93L668.21 411.04L674.3 411.11H675.94H676.53C676.354 411.124 676.176 411.124 676 411.11H674.4L668.4 411.18L647.33 411.29H647V411.05C647 409.05 647 406.97 647 404.81V398.19C646.94 398.25 647.47 397.72 647.25 397.95L676.48 398.01H676.66V398.18C676.66 402.18 676.59 405.37 676.57 407.65C676.57 408.72 676.57 409.57 676.57 410.2C676.542 410.526 676.495 410.85 676.43 411.17Z" fill="#E0E0E0"/>
<path d="M216.55 568.62L205.55 573.35L206.29 508.1C206.63 500.29 203.04 496.96 201.09 494.74C183.38 474.6 156.97 489.21 156.74 509.62L156.08 567.93L145.37 567.81L146.43 506.81C146.51 499.94 151.85 488.02 157.24 483.75C187.04 460.14 217.53 484.53 217.24 510.33L216.55 568.62Z" fill="#F5F5F5"/>
<path d="M216.55 568.62V567.45C216.55 566.68 216.55 565.55 216.55 564.07C216.55 561.07 216.61 556.72 216.65 551.07C216.69 545.42 216.76 538.57 216.83 530.58C216.87 526.58 216.91 522.323 216.95 517.81C216.95 513.29 217.36 508.48 216.43 503.54C215.499 498.367 213.403 493.473 210.3 489.23C209.89 488.68 209.5 488.12 209.07 487.58C208.64 487.04 208.15 486.58 207.69 486.03C206.75 484.987 205.748 484.002 204.69 483.08C204.18 482.59 203.58 482.2 203.02 481.75C202.46 481.3 201.91 480.84 201.28 480.48C200.068 479.672 198.806 478.944 197.5 478.3C194.828 476.956 192 475.948 189.08 475.3L186.82 474.93L185.69 474.74L184.54 474.67L182.22 474.52C181.44 474.52 180.66 474.57 179.88 474.6C173.415 474.894 167.158 476.97 161.8 480.6C156.162 484.417 151.742 489.778 149.07 496.04C147.728 499.271 146.846 502.674 146.45 506.15C146.15 509.65 146.23 513.26 146.16 516.87C146 531.34 145.83 546.32 145.66 561.67C145.66 563.717 145.637 565.757 145.59 567.79L145.34 567.53L156.05 567.65L155.8 567.9C155.927 556.3 156.057 544.967 156.19 533.9C156.25 528.393 156.313 522.963 156.38 517.61C156.38 514.943 156.41 512.293 156.47 509.66C156.527 507.031 156.965 504.424 157.77 501.92C159.411 497.048 162.503 492.795 166.63 489.73C167.119 489.344 167.63 488.987 168.16 488.66L169.76 487.66C170.846 487.085 171.972 486.59 173.13 486.18C174.275 485.763 175.448 485.429 176.64 485.18C177.23 485.05 177.83 485 178.42 484.9L179.31 484.78H180.21C182.559 484.65 184.915 484.848 187.21 485.37C189.447 485.907 191.604 486.73 193.63 487.82C199.394 491.02 203.695 496.328 205.63 502.63C206.195 504.584 206.531 506.598 206.63 508.63C206.63 509.13 206.63 509.63 206.68 510.12C206.73 510.61 206.68 511.12 206.68 511.59C206.68 512.59 206.68 513.53 206.68 514.49C206.68 516.4 206.68 518.28 206.61 520.12C206.51 527.48 206.43 534.24 206.35 540.34C206.18 552.53 206.05 562.07 205.96 568.41L205.89 568.34L213.97 568.47H215.97H216.62H214L205.88 568.42H205.81V568.35C205.81 562.01 205.95 552.47 206.06 540.28C206.12 534.18 206.19 527.41 206.26 520.05C206.26 518.21 206.26 516.33 206.32 514.42C206.32 513.42 206.32 512.5 206.32 511.52C206.32 511.04 206.32 510.52 206.32 510.06L206.26 508.59C206.111 504.492 204.894 500.503 202.73 497.02C200.473 493.29 197.277 490.217 193.46 488.11C191.468 487.043 189.347 486.236 187.15 485.71C184.884 485.202 182.558 485.013 180.24 485.15H179.36L178.49 485.28C177.9 485.37 177.31 485.42 176.73 485.55C174.38 486.051 172.11 486.869 169.98 487.98L168.41 488.92C167.891 489.224 167.39 489.558 166.91 489.92C162.854 492.937 159.82 497.125 158.22 501.92C157.432 504.379 157.008 506.939 156.96 509.52C156.96 512.147 156.93 514.797 156.87 517.47C156.81 522.803 156.75 528.233 156.69 533.76C156.57 544.76 156.44 556.13 156.31 567.76V568.01H156.06L145.34 567.89H145.09V567.64C145.09 565.64 145.113 563.6 145.16 561.52C145.34 546.18 145.51 531.2 145.68 516.72C145.75 513.1 145.68 509.53 145.97 505.95C146.378 502.429 147.277 498.982 148.64 495.71C150.034 492.583 151.837 489.654 154 487C156.192 484.414 158.717 482.131 161.51 480.21C166.937 476.529 173.279 474.425 179.83 474.13C180.62 474.13 181.41 474.04 182.2 474.06L184.89 474.22L186.37 474.39L188.61 474.76L189.61 474.98C192.387 475.63 195.073 476.617 197.61 477.92C198.935 478.57 200.214 479.308 201.44 480.13C202.07 480.5 202.61 481 203.19 481.42C203.77 481.84 204.36 482.27 204.89 482.76C205.949 483.7 206.95 484.701 207.89 485.76L209.29 487.33C209.72 487.88 210.11 488.45 210.52 489.01C213.651 493.301 215.761 498.25 216.69 503.48C217.62 508.48 217.15 513.32 217.18 517.84C217.21 522.36 217.06 526.66 217.01 530.66C216.9 538.66 216.8 545.54 216.72 551.17C216.64 556.8 216.58 561.17 216.53 564.11C216.53 565.57 216.53 566.7 216.47 567.46C216.41 568.22 216.55 568.62 216.55 568.62Z" fill="#E0E0E0"/>
<path d="M133.137 529.721L230.131 530.822C231.122 530.833 232.069 531.238 232.763 531.947C233.456 532.656 233.839 533.612 233.828 534.604L232.977 609.569C232.967 610.471 232.599 611.331 231.954 611.962C231.31 612.592 230.441 612.941 229.539 612.93L132.245 611.826L133.177 529.722L133.137 529.721Z" fill="#E0E0E0"/>
<path d="M133.138 529.511L218.438 530.364C219.515 530.375 220.543 530.813 221.297 531.582C222.051 532.351 222.468 533.388 222.457 534.465L221.727 607.465C221.714 608.791 221.175 610.058 220.228 610.986C219.281 611.914 218.003 612.428 216.677 612.415L132.457 611.573C131.343 611.562 130.28 611.108 129.5 610.313C128.72 609.517 128.288 608.445 128.299 607.331L129.037 533.531C129.048 532.454 129.486 531.426 130.255 530.672C131.024 529.918 132.061 529.501 133.138 529.511Z" fill="#EBEBEB"/>
<path d="M187.85 564.15C187.868 562.616 187.577 561.094 186.995 559.674C186.413 558.255 185.552 556.967 184.462 555.887C183.373 554.806 182.077 553.956 180.653 553.386C179.228 552.817 177.704 552.539 176.17 552.57C173.219 552.658 170.414 553.869 168.326 555.957C166.239 558.044 165.028 560.849 164.94 563.8C164.894 566.302 165.671 568.75 167.153 570.766C168.635 572.783 170.738 574.256 173.14 574.96L165.49 590.68L185.24 591.27L179.4 575C181.796 574.355 183.917 572.947 185.441 570.99C186.966 569.032 187.811 566.631 187.85 564.15Z" fill="#E0E0E0"/>
<path d="M221.18 605.09C221.04 605.09 221.18 590.8 221.43 573.18C221.68 555.56 222.04 541.26 222.18 541.26C222.32 541.26 222.18 555.55 221.93 573.18C221.68 590.81 221.32 605.1 221.18 605.09Z" fill="#FAFAFA"/>
<path d="M200.34 533C200.34 533.14 187.77 533.28 172.26 533.31C156.75 533.34 144.17 533.25 144.17 533.11C144.17 532.97 156.74 532.84 172.26 532.81C187.78 532.78 200.34 532.84 200.34 533Z" fill="white"/>
<path d="M164.5 570.06C164.304 569.848 164.145 569.605 164.03 569.34C163.671 568.644 163.383 567.914 163.17 567.16C162.454 564.649 162.521 561.979 163.361 559.507C164.2 557.034 165.773 554.876 167.87 553.32C168.493 552.849 169.163 552.443 169.87 552.11C170.119 551.972 170.389 551.877 170.67 551.83C170.67 551.91 169.58 552.38 168.08 553.6C166.11 555.173 164.632 557.278 163.822 559.666C163.012 562.053 162.904 564.623 163.51 567.07C164 569 164.58 570 164.5 570.06Z" fill="white"/>
<path d="M169 575.54C168.93 575.66 168.26 575.37 167.5 574.9C166.74 574.43 166.19 573.95 166.26 573.83C166.33 573.71 167.01 574 167.77 574.47C168.53 574.94 169 575.42 169 575.54Z" fill="white"/>
<path d="M178.52 477.17C177.882 477.292 177.238 477.375 176.59 477.42C174.844 477.654 173.118 478.025 171.43 478.53C165.821 480.158 160.791 483.349 156.929 487.73C153.067 492.111 150.532 497.501 149.62 503.27C149.319 505.007 149.169 506.767 149.17 508.53C149.17 509.77 149.17 510.47 149.17 510.47C149.116 510.309 149.089 510.14 149.09 509.97C149.09 509.64 148.99 509.16 148.98 508.53C148.909 506.751 149.01 504.97 149.28 503.21C150.114 497.344 152.648 491.851 156.568 487.408C160.488 482.966 165.624 479.768 171.34 478.21C173.05 477.708 174.805 477.373 176.58 477.21C177.2 477.14 177.69 477.15 178.02 477.14C178.187 477.133 178.355 477.143 178.52 477.17Z" fill="white"/>
<path d="M148.64 519.32C148.412 518.337 148.351 517.323 148.46 516.32C148.392 515.31 148.497 514.295 148.77 513.32C149.071 515.313 149.027 517.342 148.64 519.32Z" fill="white"/>
<path d="M210.27 240.77H161.62V253.64H210.27V240.77Z" fill="#F5F5F5"/>
<path d="M189.7 267.2C189.7 267.2 189.7 267.12 189.7 266.97V266.31C189.7 265.7 189.7 264.85 189.7 263.77C189.7 261.55 189.7 258.36 189.62 254.33L189.77 254.48L141.12 254.58C141.23 254.47 140.87 254.82 141.37 254.33V260.85C141.37 262.997 141.37 265.107 141.37 267.18L141.13 266.94L175.8 267.05L186.03 267.12H188.8H189.52C189.606 267.112 189.694 267.112 189.78 267.12H189.56H188.86H186.15L175.97 267.19L141.13 267.3H140.89V267.06C140.89 264.987 140.89 262.877 140.89 260.73V254.21L141.14 253.96L189.79 254.06H189.94V254.21C189.94 258.27 189.88 261.5 189.86 263.74C189.86 264.81 189.86 265.64 189.86 266.24C189.86 266.5 189.86 266.71 189.86 266.87C189.86 267.03 189.71 267.2 189.7 267.2Z" fill="#E0E0E0"/>
<path d="M662.66 207.17H614.01V220.04H662.66V207.17Z" fill="#F5F5F5"/>
<path d="M642.09 233.6C642.082 233.524 642.082 233.446 642.09 233.37V232.71C642.09 232.1 642.09 231.26 642.09 230.17C642.09 227.95 642.09 224.76 642.01 220.73L642.16 220.88L593.51 220.98C593.62 220.87 593.26 221.22 593.76 220.73V222.36C593.76 222.91 593.76 223.46 593.76 224V233.6L593.52 233.36L628.19 233.47L638.42 233.54H641.19H641.91H642.17H641.94H641.25H638.54L628.36 233.61L593.52 233.72H593.27V220.75L593.52 220.5L642.17 220.6H642.32V220.75C642.32 224.81 642.26 228.04 642.24 230.28C642.24 231.35 642.24 232.18 642.24 232.78C642.24 233.04 642.24 233.25 642.24 233.42C642.24 233.59 642.1 233.6 642.09 233.6Z" fill="#E0E0E0"/>
<path d="M385.21 463.03H336.56V475.9H385.21V463.03Z" fill="#F5F5F5"/>
<path d="M364.64 489.46C364.633 489.38 364.633 489.3 364.64 489.22V488.56C364.64 487.96 364.64 487.11 364.64 486.03C364.64 483.81 364.59 480.62 364.56 476.59L364.71 476.74L316.06 476.84C316.17 476.73 315.81 477.08 316.3 476.59V489.44L316.06 489.2L350.73 489.31L360.96 489.38H363.73H364.45H364.71H364.48H363.79H361.08L350.9 489.45L316 489.7H315.75V476.61L316 476.36L364.65 476.46H364.8V476.61C364.8 480.67 364.74 483.9 364.72 486.14C364.72 487.21 364.72 488.04 364.72 488.64C364.72 488.9 364.72 489.11 364.72 489.27C364.697 489.335 364.671 489.398 364.64 489.46Z" fill="#E0E0E0"/>
<path d="M66.26 220.61C66.2511 220.534 66.2511 220.456 66.26 220.38C66.26 220.21 66.26 219.99 66.26 219.72C66.26 219.11 66.26 218.27 66.26 217.18C66.26 214.96 66.26 211.77 66.18 207.74L66.33 207.89L17.61 208C17.72 207.89 17.36 208.25 17.85 207.75V220.61L17.61 220.37L52.28 220.48L62.51 220.55H65.28H66H66.26C66.1836 220.559 66.1064 220.559 66.03 220.55H65.34H62.62L52.45 220.62L17.61 220.73H17.36V207.76L17.61 207.51L66.26 207.61H66.41V207.76C66.41 211.83 66.35 215.05 66.33 217.29C66.33 218.36 66.33 219.2 66.33 219.79C66.33 220.05 66.33 220.26 66.33 220.43C66.3114 220.492 66.288 220.552 66.26 220.61Z" fill="#E0E0E0"/>
<path d="M551.41 591.73C551.41 591.73 551.41 591.65 551.41 591.5V590.84C551.41 590.23 551.41 589.39 551.41 588.3C551.41 586.08 551.41 582.89 551.33 578.86L551.48 579.01L502.83 579.11L503.08 578.86V585.38C503.08 587.533 503.08 589.643 503.08 591.71L502.84 591.47L537.51 591.58L547.74 591.65H550.51H551.24H551.49C551.49 591.65 551.42 591.65 551.27 591.65H550.57H547.86L537.68 591.72L502.84 591.83H502.6V591.59C502.6 589.517 502.6 587.407 502.6 585.26V578.74L502.85 578.49L551.5 578.59H551.65V578.74C551.65 582.8 551.59 586.03 551.57 588.27C551.57 589.34 551.57 590.17 551.57 590.77C551.57 591.03 551.57 591.24 551.57 591.41C551.57 591.58 551.42 591.74 551.41 591.73Z" fill="#E0E0E0"/>
<path d="M356.36 202.13C356.36 202.13 356.36 202.04 356.36 201.89V201.23C356.36 200.63 356.36 199.78 356.36 198.7C356.36 196.48 356.36 193.28 356.28 189.26L356.43 189.41L307.78 189.5L308.03 189.26V195.8C308.03 197.953 308.03 200.063 308.03 202.13L307.79 201.89L342.46 202L352.69 202.06H355.46H356.19C356.273 202.052 356.357 202.052 356.44 202.06H356.22H355.52H352.81L342.63 202.13L307.79 202.24H307.55V202C307.55 199.93 307.55 197.82 307.55 195.67V189.28L307.8 189.03L356.45 189.13H356.6V189.28C356.6 193.34 356.54 196.57 356.52 198.81C356.52 199.88 356.52 200.71 356.52 201.31V201.94C356.476 202.011 356.422 202.075 356.36 202.13Z" fill="#E0E0E0"/>
<path d="M363 189.26C362.993 189.177 362.993 189.093 363 189.01C363 188.83 363 188.6 363 188.33C363 187.7 363 186.84 363 185.75C363 183.49 362.94 180.31 362.9 176.39L363.08 176.56L333.85 176.63L334.09 176.39V183C334.09 185.15 334.09 187.24 334.09 189.24L333.86 189L354.77 189.11L360.86 189.18H362.5H363.09C362.914 189.194 362.736 189.194 362.56 189.18H360.96L354.96 189.24L333.89 189.35H333.65V189.12C333.65 187.12 333.65 185.03 333.65 182.88V176.41C333.59 176.41 334.12 175.94 333.9 176.16L363.13 176.23H363.31V176.41C363.31 180.41 363.23 183.59 363.21 185.88C363.21 186.95 363.21 187.79 363.21 188.42C363.21 189.05 363 189.27 363 189.26Z" fill="#E0E0E0"/>
<path d="M49.36 509C49.3557 508.923 49.3557 508.847 49.36 508.77C49.36 508.6 49.36 508.38 49.36 508.11C49.36 507.5 49.36 506.66 49.36 505.58C49.36 503.36 49.36 500.16 49.28 496.13L49.43 496.28L0.779987 496.38L1.02999 496.13V502.66C1.02999 504.807 1.02999 506.917 1.02999 508.99L0.789989 508.75L35.46 508.86L45.69 508.93H48.46H49.19H49.44C49.44 508.93 49.37 508.93 49.22 508.93H48.52H45.81L35.63 509L0.789989 509.11H0.549988V509C0.549988 506.93 0.549988 504.82 0.549988 502.67V496.14C1.04999 495.65 0.689988 496.01 0.799988 495.9L49.45 495.99H49.6V496.14C49.6 500.21 49.54 503.43 49.52 505.68C49.52 506.75 49.52 507.58 49.52 508.18V508.81C49.37 509 49.37 509 49.36 509Z" fill="#E0E0E0"/>
<path d="M56 496.15C55.9921 496.07 55.9921 495.99 56 495.91C56 495.72 56 495.5 56 495.23C56 494.59 56 493.73 56 492.65C56 490.39 55.94 487.2 55.9 483.28L56.08 483.46L26.85 483.53C26.63 483.75 27.15 483.23 27.09 483.28V489.9C27.09 492.06 27.09 494.14 27.09 496.14L26.86 495.91L47.77 496.02L53.86 496.09H55.5H56.09C55.9136 496.104 55.7363 496.104 55.56 496.09H53.96L47.96 496.16L26.89 496.27H26.65V496.03C26.65 494.03 26.65 491.95 26.65 489.79V483.17L26.9 482.92L56 483.1H56.18V483.28C56.18 487.28 56.1 490.47 56.08 492.75C56.08 493.82 56.08 494.67 56.08 495.3C56.08 495.93 56 496.17 56 496.15Z" fill="#E0E0E0"/>
<path d="M202.56 403.19C202.551 403.114 202.551 403.036 202.56 402.96V402.3C202.56 401.69 202.56 400.85 202.56 399.77C202.56 397.54 202.51 394.35 202.48 390.32L202.63 390.47L153.98 390.57C154.09 390.46 153.73 390.82 154.22 390.32V403.17L153.98 402.93L188.65 403.04L198.88 403.11H201.65H202.37H202.63H202.4H201.71H198.99L188.82 403.17L153.98 403.28H153.73V390.18L153.98 389.93L202.63 390.03H202.78V390.18C202.78 394.25 202.72 397.47 202.7 399.72C202.7 400.78 202.7 401.62 202.7 402.21V402.85C202.671 402.97 202.623 403.084 202.56 403.19Z" fill="#E0E0E0"/>
<path d="M209.16 390.32C209.146 390.241 209.146 390.159 209.16 390.08C209.16 389.89 209.16 389.67 209.16 389.39L209.11 386.81C209.11 384.56 209.11 381.37 209.02 377.45L209.2 377.63L179.96 377.7L180.21 377.45V384.07C180.21 386.22 180.21 388.31 180.21 390.31L179.97 390.08L200.88 390.19L206.98 390.25H208.62H209.21C209.03 390.263 208.85 390.263 208.67 390.25H207.08L201.08 390.32L180.01 390.43H179.78V390.19C179.78 388.19 179.78 386.1 179.78 383.95V377.33C179.78 377.38 180.26 376.86 180.03 377.08L209.27 377.15H209.45V377.33C209.45 381.33 209.38 384.52 209.36 386.8C209.36 387.87 209.36 388.72 209.31 389.34C209.26 389.96 209.17 390.33 209.16 390.32Z" fill="#E0E0E0"/>
<path d="M656.36 612.89C656.36 613.03 513.81 613.15 338.02 613.15C162.23 613.15 19.64 613 19.64 612.89C19.64 612.78 162.16 612.63 338.02 612.63C513.88 612.63 656.36 612.75 656.36 612.89Z" fill="#263238"/>
<path d="M22.4199 557.6L4.44995 582L34.7099 604.52C36.7099 601.52 25.34 584.04 25.34 584.04L37.5 568.88L22.4199 557.6Z" fill="#455A64"/>
<path d="M17 575.78C16.6441 575.65 16.2529 575.657 15.9019 575.8C15.551 575.942 15.2652 576.209 15.1 576.55C14.9594 576.903 14.9588 577.296 15.0981 577.649C15.2375 578.002 15.5064 578.288 15.85 578.45C16.227 578.583 16.6398 578.571 17.009 578.418C17.3782 578.265 17.6777 577.981 17.85 577.62C17.9605 577.237 17.918 576.826 17.7315 576.473C17.5449 576.121 17.2289 575.854 16.85 575.73" fill="white"/>
<path d="M4.40997 582.06L6.31997 579.44L34.59 602.2C34.59 602.2 35.49 603.8 34.59 604.63L4.40997 582.06Z" fill="#263238"/>
<path d="M26 584.26C25.89 584.41 25.1 583.93 24 583.86C22.9 583.79 22.07 584.13 22 583.97C21.93 583.81 22.77 583.12 24.07 583.22C25.37 583.32 26.08 584.15 26 584.26Z" fill="#263238"/>
<path d="M28.15 587.94C28.07 588.11 27.25 587.88 26.28 588.13C25.31 588.38 24.68 588.94 24.53 588.82C24.38 588.7 24.92 587.82 26.13 587.51C27.34 587.2 28.25 587.8 28.15 587.94Z" fill="#263238"/>
<path d="M27.12 593.08C26.96 593.01 27.31 592.08 28.29 591.59C29.27 591.1 30.2 591.26 30.17 591.43C30.14 591.6 29.39 591.71 28.6 592.16C27.81 592.61 27.28 593.17 27.12 593.08Z" fill="#263238"/>
<path d="M28.34 580.5C28.17 580.59 27.65 579.88 26.77 579.32C25.89 578.76 25.05 578.53 25.06 578.32C25.07 578.11 26.06 578.07 27.12 578.75C28.18 579.43 28.5 580.44 28.34 580.5Z" fill="#263238"/>
<path d="M95.58 455.46C96.12 458.52 96.98 484.55 97.53 498.28C98.08 512.01 96.71 518.76 95.14 521.84C93.57 524.92 34.36 568.55 29.85 579L14.85 566.91C14.85 566.91 36.85 527.42 46.23 520.24C55.61 513.06 73.66 506.47 73.66 506.47L68.53 431.28L93.12 429.94L95.58 455.46Z" fill="#263238"/>
<path d="M40.55 581.73L40.29 612L78 612.52C77.83 608.92 58.42 601.41 58.42 601.41L59.42 582L40.55 581.73Z" fill="#455A64"/>
<path d="M46.78 599.66C46.4161 599.765 46.1038 600.001 45.9027 600.322C45.7016 600.643 45.6259 601.027 45.69 601.4C45.7828 601.768 46.0124 602.086 46.332 602.291C46.6516 602.495 47.0371 602.57 47.41 602.5C47.7943 602.386 48.1229 602.134 48.3333 601.793C48.5436 601.451 48.6207 601.045 48.55 600.65C48.416 600.276 48.1417 599.969 47.7853 599.793C47.4288 599.618 47.0181 599.588 46.64 599.71" fill="white"/>
<path d="M40.28 612.11V608.86L76.53 610.74C76.53 610.74 78.19 611.51 77.98 612.69L40.28 612.11Z" fill="#263238"/>
<path d="M59 601.27C59 601.46 58.07 601.53 57.16 602.11C56.25 602.69 55.75 603.45 55.58 603.38C55.41 603.31 55.7 602.24 56.82 601.56C57.94 600.88 59.08 601.1 59 601.27Z" fill="#263238"/>
<path d="M63 603C63 603.18 62.23 603.48 61.6 604.25C60.97 605.02 60.77 605.85 60.6 605.83C60.43 605.81 60.31 604.78 61.12 603.83C61.93 602.88 63 602.79 63 603Z" fill="#263238"/>
<path d="M65.15 607.73C64.98 607.73 64.74 606.84 65.22 605.84C65.7 604.84 66.58 604.45 66.65 604.6C66.72 604.75 66.19 605.29 65.8 606.12C65.41 606.95 65.33 607.71 65.15 607.73Z" fill="#263238"/>
<path d="M58.76 596.82C58.68 596.99 57.84 596.72 56.76 596.82C55.68 596.92 54.9 597.19 54.76 597.03C54.62 596.87 55.45 596.23 56.68 596.18C57.91 596.13 58.85 596.68 58.76 596.82Z" fill="#263238"/>
<path d="M98.2999 426.83C98.2999 428.6 101.17 473.41 86.5199 505.83C86.5199 505.83 81.4499 515.97 80.5199 520.4C79.5899 524.83 60.6399 598.31 60.6399 598.31L38.7399 597.51C38.7399 597.51 35.2399 560.7 38.7399 539.39C42.2399 518.08 48.7399 520.58 48.7399 506.82C48.7399 493.06 45.4699 464.53 45.4699 464.53C45.4699 464.53 40.6899 456.74 39.0599 441.63C37.7299 429.36 43.5099 416.21 43.5099 416.21L49.2199 406.1L97.5299 403.57L98.2999 426.83Z" fill="#263238"/>
<path d="M98.3 426.83C98.3 426.83 98.3 426.31 98.3 425.3C98.3 424.29 98.24 422.79 98.2 420.82C98.11 416.87 97.96 411.05 97.78 403.53V403.42H97.66L49.35 405.88H49.25L49.19 405.97C47.42 409.11 45.47 412.54 43.47 416.08C41.9825 419.668 40.8211 423.383 40 427.18C39.0927 431.177 38.6863 435.272 38.79 439.37C39.0943 443.649 39.7634 447.895 40.79 452.06C41.7802 456.434 43.3367 460.659 45.42 464.63V464.53C46.25 471.99 47.02 479.72 47.67 487.68C47.99 491.68 48.27 495.68 48.47 499.79C48.57 501.79 48.65 503.89 48.66 505.96C48.66 506.96 48.66 508.03 48.6 509.06C48.5288 510.093 48.4019 511.121 48.22 512.14C47.8106 514.193 47.0853 516.17 46.07 518C45.07 519.87 44.07 521.72 43.07 523.67C41.2589 527.628 39.9391 531.792 39.14 536.07C37.4 544.67 37.05 553.61 36.95 562.62C36.95 574.51 37.51 586.19 38.49 597.48V597.72H38.72L60.62 598.52H60.83L60.88 598.31C67.23 573.7 73.15 550.7 78.37 530.02L80.26 522.37C80.59 521.1 80.8 519.84 81.19 518.64C81.58 517.44 82.02 516.25 82.48 515.09C83.42 512.77 84.48 510.52 85.48 508.33L86.26 506.7C86.537 506.168 86.784 505.62 87 505.06C87.45 503.95 87.9 502.86 88.35 501.77C91.4599 493.705 93.7742 485.355 95.2599 476.84C97.4016 464.709 98.5056 452.418 98.56 440.1C98.62 431.48 98.27 426.8 98.27 426.8C98.27 426.8 98.27 427.09 98.27 427.66C98.27 428.23 98.27 429.1 98.33 430.22C98.39 432.47 98.43 435.79 98.33 440.1C98.2374 452.408 97.1236 464.687 95 476.81C93.4798 485.298 91.1354 493.617 88 501.65L86.66 504.92C86.44 505.48 86.19 506.01 85.92 506.55C85.65 507.09 85.3899 507.64 85.13 508.19C84.13 510.38 83.07 512.63 82.13 514.96C81.66 516.13 81.21 517.32 80.82 518.54C80.43 519.76 80.2 521.05 79.88 522.29C79.25 524.81 78.62 527.35 77.97 529.94C72.66 550.6 66.75 573.6 60.42 598.21L60.68 598.02L38.78 597.21L39.04 597.45C38.04 586.18 37.46 574.51 37.5 562.64C37.6 553.64 37.95 544.74 39.68 536.2C40.4766 531.962 41.7828 527.835 43.57 523.91C44.47 521.98 45.57 520.15 46.57 518.25C47.5786 516.37 48.2935 514.346 48.69 512.25C48.8796 511.208 49.0098 510.157 49.08 509.1C49.08 508.1 49.18 507 49.14 505.97C49.14 503.89 49.05 501.82 48.95 499.77C48.75 495.67 48.46 491.63 48.13 487.65C47.4633 479.65 46.7066 471.927 45.86 464.48V464.42C43.776 460.5 42.2128 456.325 41.21 452C40.1892 447.864 39.5202 443.649 39.21 439.4C39.1023 435.34 39.4986 431.282 40.39 427.32C41.1957 423.561 42.3301 419.88 43.78 416.32L49.48 406.2L49.32 406.3L97.63 403.69L97.5 403.58C97.74 411.09 97.9199 416.91 98.0399 420.86C98.1099 422.86 98.16 424.32 98.2 425.34C98.24 426.36 98.3 426.83 98.3 426.83Z" fill="#455A64"/>
<path d="M82.59 335.07C82.59 335.07 69.59 332.77 70.8 349.5C71.56 359.5 74.5 376.66 76.13 387.61C76.69 391.4 77.93 398.18 82.94 402.16L118.84 427L130.17 413.45L98.11 382.92L93.11 352.72L82.59 335.07Z" fill="#455A64"/>
<path d="M84.12 274.77C86.1806 276.429 87.8109 278.561 88.8727 280.984C89.9346 283.407 90.3967 286.05 90.22 288.69C90.02 291.25 89.31 294.16 90.98 296.11C92.65 298.06 95.85 297.99 97.43 299.97C99.28 302.31 97.73 305.79 98.43 308.7C98.7868 310.059 99.6155 311.247 100.768 312.051C101.92 312.856 103.321 313.224 104.72 313.09C101.438 315.776 97.4801 317.505 93.28 318.09L90 314C91.22 315.44 90.89 317.73 89.72 319.2C88.449 320.568 86.81 321.54 85 322C80.6919 323.325 76.1361 323.639 71.6872 322.915C67.2383 322.192 63.0163 320.452 59.35 317.83" fill="#263238"/>
<path d="M36.0899 297.34C36.7299 295.34 37.8099 293.57 38.2399 291.56C39.1599 287.23 37.05 282.35 39.15 278.45C40.65 275.68 43.83 274.32 46.85 273.39C49.87 272.46 53.0899 271.68 55.3399 269.47C56.9799 267.85 57.92 265.61 59.5599 263.99C61.9 261.67 65.36 260.88 68.64 260.68C72.0269 260.353 75.4408 260.907 78.55 262.29C80.0938 262.994 81.4504 264.052 82.51 265.377C83.5697 266.703 84.3027 268.259 84.65 269.92C84.91 271.54 84.71 273.25 85.23 274.82C85.79 276.54 87.14 277.88 87.98 279.49C88.8213 281.219 89.0647 283.178 88.6719 285.061C88.2792 286.943 87.2725 288.642 85.81 289.89L62.63 319.83C57.76 321.67 45.9599 319.45 42.1999 315.83C38.4399 312.21 34.4799 302.29 36.0899 297.34Z" fill="#263238"/>
<path d="M85.2 286.09C84.2 279.29 79.07 271.26 72.32 272.5L51.48 279.5C49.48 279.88 50.9 283.23 51.1 285.3L55.63 332.3C55.63 332.3 52.81 334.3 51.81 333.92C51.7531 333.9 51.6913 333.898 51.6334 333.915C51.5755 333.932 51.5242 333.967 51.4868 334.014C51.4494 334.061 51.4277 334.119 51.4247 334.179C51.4217 334.24 51.4375 334.299 51.47 334.35C54 338 65.79 353.87 78 349C80.72 347.91 77.71 339.34 78 336.17L77.64 328.06C77.37 323.92 77.24 322.22 77.24 322.26C77.24 322.3 85.86 320.14 86.79 308.61C87.26 302.9 86.26 293.64 85.2 286.09Z" fill="#FFBF9D"/>
<path d="M83.7499 296.55C83.7809 296.931 83.6626 297.308 83.4199 297.603C83.1773 297.898 82.8294 298.087 82.4499 298.13C82.2651 298.16 82.0762 298.152 81.8943 298.107C81.7125 298.063 81.5415 297.982 81.3914 297.87C81.2413 297.758 81.1151 297.617 81.0204 297.456C80.9257 297.294 80.8643 297.116 80.8399 296.93C80.8089 296.549 80.9273 296.172 81.1699 295.877C81.4126 295.582 81.7605 295.393 82.1399 295.35C82.3248 295.32 82.5137 295.328 82.6955 295.373C82.8774 295.417 83.0484 295.498 83.1985 295.61C83.3486 295.722 83.4748 295.863 83.5695 296.024C83.6642 296.186 83.7256 296.364 83.7499 296.55Z" fill="#263238"/>
<path d="M69.55 297.44C69.5837 297.82 69.4677 298.197 69.2267 298.493C68.9856 298.788 68.6387 298.977 68.26 299.02C68.0753 299.048 67.8869 299.04 67.7056 298.994C67.5243 298.949 67.3538 298.868 67.204 298.757C67.0542 298.645 66.9281 298.505 66.833 298.344C66.7379 298.183 66.6757 298.005 66.65 297.82C66.619 297.439 66.7373 297.062 66.98 296.767C67.2226 296.472 67.5705 296.283 67.95 296.24C68.1343 296.21 68.3226 296.218 68.5038 296.263C68.6851 296.308 68.8554 296.388 69.0047 296.5C69.154 296.612 69.2793 296.753 69.373 296.915C69.4666 297.076 69.5269 297.255 69.55 297.44Z" fill="#263238"/>
<path d="M84.27 291.73C84.11 292 82.75 291.14 81.05 291.39C79.35 291.64 78.26 292.8 78.05 292.59C77.84 292.38 78.05 292.03 78.54 291.5C79.1552 290.809 79.9965 290.36 80.9129 290.234C81.8292 290.108 82.7606 290.312 83.54 290.81C84.1 291.2 84.35 291.61 84.27 291.73Z" fill="#263238"/>
<path d="M69 293C68.8 293.25 67.47 292.28 65.64 292.36C63.81 292.44 62.51 293.47 62.3 293.24C62.09 293.01 62.39 292.7 62.96 292.24C63.7082 291.622 64.6403 291.271 65.61 291.24C66.575 291.202 67.5252 291.487 68.31 292.05C68.88 292.46 69.09 292.88 69 293Z" fill="#263238"/>
<path d="M74.73 303.77C75.5374 303.44 76.3847 303.219 77.25 303.11C77.64 303.04 78.02 302.93 78.06 302.65C78.0652 302.232 77.9393 301.823 77.7 301.48C77.25 300.54 76.78 299.55 76.28 298.48C74.28 294.25 72.83 290.77 73 290.69C73.17 290.61 74.92 293.97 76.9 298.19C77.38 299.24 77.84 300.19 78.27 301.19C78.5625 301.654 78.6795 302.207 78.6 302.75C78.5542 302.896 78.4753 303.03 78.3696 303.141C78.2638 303.252 78.1339 303.337 77.99 303.39C77.7733 303.464 77.5483 303.511 77.32 303.53C76.4692 303.712 75.5998 303.793 74.73 303.77Z" fill="#263238"/>
<path d="M77.24 322.28C71.8849 322.772 66.4984 321.768 61.68 319.38C61.68 319.38 66.13 327.08 77.44 325.14L77.24 322.28Z" fill="#FF9A6C"/>
<path d="M69.94 308.35C70.1184 307.955 70.3935 307.611 70.74 307.35C71.164 307.148 71.6455 307.102 72.1 307.22C72.7754 307.319 73.4002 307.635 73.88 308.12C74.1155 308.365 74.2813 308.668 74.3604 308.999C74.4395 309.329 74.429 309.675 74.33 310C74.15 310.66 73.17 311 72.5 311.14C71.8059 311.241 71.0982 311.096 70.5 310.73C70.2398 310.612 70.0126 310.431 69.8383 310.204C69.6639 309.978 69.5478 309.712 69.5 309.43C69.5444 309.036 69.6966 308.663 69.94 308.35Z" fill="#FF9A6C"/>
<path d="M70.26 306.14C70.51 306.14 70.65 307.81 72.2 308.91C73.75 310.01 75.55 309.68 75.58 309.91C75.61 310.14 75.21 310.27 74.44 310.35C73.4409 310.442 72.4416 310.176 71.62 309.6C70.8272 309.053 70.2812 308.216 70.1 307.27C70 306.58 70.14 306.14 70.26 306.14Z" fill="#263238"/>
<path d="M68.86 286.85C68.73 287.28 67.15 287.2 65.32 287.57C63.49 287.94 62.04 288.57 61.77 288.18C61.65 288.01 61.87 287.59 62.44 287.13C63.2035 286.561 64.0874 286.175 65.0237 286.002C65.9599 285.828 66.9234 285.872 67.84 286.13C68.54 286.33 68.91 286.64 68.86 286.85Z" fill="#263238"/>
<path d="M83.3 286C83.01 286.38 81.75 286.11 80.3 286.21C78.85 286.31 77.57 286.66 77.25 286.31C77.11 286.14 77.25 285.76 77.8 285.38C78.5231 284.903 79.3643 284.637 80.23 284.61C81.0902 284.548 81.9502 284.732 82.71 285.14C83.23 285.44 83.43 285.8 83.3 286Z" fill="#263238"/>
<path d="M46.87 281.14C47.87 279.52 49.81 278.69 51.61 278C59.3838 274.998 67.4876 272.934 75.75 271.85C76.75 273.54 75.83 275.85 74.28 277.08C72.73 278.31 70.73 278.8 68.88 279.49C67.03 280.18 65.12 281.26 64.35 283.09C63.58 284.92 64.23 287.33 63.51 289.31C62.28 292.73 57.51 293.83 56.32 297.24C55.4 299.83 56.9 302.58 57.32 305.3C57.512 306.68 57.4074 308.086 57.0131 309.423C56.6188 310.76 55.9439 311.997 55.0335 313.052C54.123 314.107 52.9979 314.956 51.7333 315.542C50.4687 316.128 49.0937 316.438 47.7 316.45C47.14 306.657 46.5766 296.87 46.01 287.09C45.84 285.05 45.76 282.85 46.87 281.14Z" fill="#263238"/>
<path d="M27.15 305.87C28.7 304.48 30.64 303.28 31.25 301.3C32.15 298.41 29.83 295.02 31.33 292.39C32.69 289.99 36.7 290.12 37.97 287.67C38.97 285.75 37.82 284.06 38.19 282.38C38.56 280.7 40.96 279.23 42.66 279.43L56 298.8C57.24 305.3 58.49 308.8 57.1 312.56C56.1806 314.585 55.4864 316.704 55.03 318.88C54.73 321.08 55.3 323.57 57.09 324.88C49.09 325.51 41.61 321.33 34.69 317.28L27.4 313C26.6019 312.618 25.9138 312.04 25.4 311.32C24.31 309.54 25.61 307.25 27.15 305.87Z" fill="#263238"/>
<path d="M34.52 315.31C34.7991 315.4 35.0877 315.457 35.38 315.48C36.2142 315.56 37.0559 315.499 37.87 315.3C39.1695 314.989 40.3654 314.344 41.34 313.43C42.6272 312.191 43.4348 310.537 43.62 308.76C43.7402 307.73 43.6518 306.686 43.36 305.69C43.0014 304.629 42.5037 303.62 41.88 302.69C41.2186 301.746 40.7028 300.708 40.35 299.61C40.1625 299.049 40.1039 298.453 40.1783 297.866C40.2528 297.279 40.4584 296.717 40.78 296.22C41.5 295.22 42.85 295.01 44.11 294.51C44.7905 294.265 45.3824 293.823 45.81 293.24C46.2036 292.616 46.3957 291.887 46.36 291.15C46.187 289.738 45.8823 288.345 45.45 286.99C45.2964 286.332 45.2964 285.648 45.45 284.99C45.6261 284.327 46.0341 283.748 46.6 283.36C47.8168 282.658 49.1954 282.286 50.6 282.28C52.0536 282.232 53.4712 281.816 54.72 281.07C55.9351 280.329 56.9215 279.267 57.57 278C58.1022 276.784 58.4397 275.491 58.57 274.17C58.7087 272.947 58.97 271.741 59.35 270.57C59.7711 269.505 60.4117 268.541 61.23 267.74C62.7393 266.308 64.6877 265.427 66.76 265.24C68.4877 265.092 70.2219 265.439 71.76 266.24C72.9168 266.832 73.9596 267.624 74.84 268.58C75.5757 269.414 76.2132 270.33 76.74 271.31C76.74 271.31 76.74 271.24 76.67 271.1C76.5879 270.901 76.4944 270.708 76.39 270.52C76.0081 269.794 75.5415 269.116 75 268.5C74.1203 267.506 73.0706 266.676 71.9 266.05C70.3458 265.196 68.5797 264.804 66.81 264.92C64.6383 265.079 62.5872 265.979 61 267.47C60.1255 268.315 59.4433 269.338 59 270.47C58.6035 271.663 58.3287 272.892 58.18 274.14C58.0412 275.418 57.7038 276.666 57.18 277.84C56.5702 279.02 55.6506 280.012 54.52 280.71C53.3285 281.409 51.9806 281.797 50.6 281.84C49.0952 281.837 47.6172 282.237 46.32 283C45.671 283.441 45.2025 284.102 45 284.86C44.8247 285.6 44.8247 286.37 45 287.11C45.4234 288.44 45.7247 289.805 45.9 291.19C45.9412 291.833 45.7804 292.473 45.44 293.02C45.0537 293.527 44.5294 293.913 43.93 294.13C43.34 294.38 42.7 294.55 42.08 294.81C41.4344 295.054 40.865 295.464 40.43 296C40.0768 296.552 39.8505 297.176 39.7675 297.826C39.6845 298.476 39.7468 299.137 39.95 299.76C40.3244 300.893 40.8635 301.964 41.55 302.94C42.1591 303.824 42.6468 304.786 43 305.8C43.2833 306.746 43.3784 307.738 43.28 308.72C43.1161 310.43 42.359 312.029 41.14 313.24C40.2069 314.144 39.0565 314.791 37.8 315.12C36.7299 315.399 35.6151 315.464 34.52 315.31Z" fill="#455A64"/>
<path d="M23.86 301.54C23.7292 301.736 23.6406 301.958 23.6 302.19C23.467 302.876 23.5878 303.587 23.94 304.19C24.184 304.621 24.5267 304.987 24.94 305.26C25.4551 305.572 26.048 305.731 26.65 305.72C27.3815 305.704 28.0947 305.488 28.7118 305.094C29.3289 304.701 29.8264 304.146 30.15 303.49C30.5304 302.737 30.7257 301.904 30.72 301.06C30.6958 300.153 30.506 299.259 30.16 298.42C29.53 296.69 28.37 295 28.35 292.98C28.3122 292.483 28.375 291.983 28.5348 291.51C28.6946 291.038 28.9481 290.602 29.28 290.23C30.0908 289.561 31.1326 289.237 32.18 289.33C33.3455 289.415 34.5169 289.293 35.64 288.97C36.2284 288.73 36.7257 288.31 37.06 287.77C37.3818 287.233 37.5832 286.632 37.65 286.01C37.7076 284.816 37.6101 283.619 37.36 282.45C37.1809 281.353 37.2458 280.229 37.55 279.16C38.1168 277.119 39.4445 275.372 41.26 274.28C42.9833 273.402 44.8963 272.963 46.83 273C48.5484 273.004 50.2565 272.734 51.89 272.2C53.218 271.713 54.4352 270.965 55.47 270C56.2624 269.268 56.937 268.418 57.47 267.48C57.9391 266.702 58.2611 265.844 58.42 264.95C58.1223 265.794 57.7508 266.611 57.31 267.39C56.0501 269.493 54.1096 271.101 51.81 271.95C50.1902 272.446 48.5037 272.688 46.81 272.67C44.8201 272.614 42.8475 273.054 41.07 273.95C39.1609 275.07 37.7515 276.876 37.13 279C36.81 280.128 36.7383 281.312 36.92 282.47C37.154 283.601 37.2514 284.756 37.21 285.91C37.1863 286.459 37.0125 286.99 36.7074 287.447C36.4024 287.904 35.9778 288.268 35.48 288.5C34.4114 288.803 33.2975 288.915 32.19 288.83C31.0301 288.729 29.877 289.088 28.98 289.83C28.6137 290.247 28.3361 290.734 28.1642 291.262C27.9923 291.79 27.9296 292.347 27.98 292.9C28.0241 293.938 28.2722 294.958 28.71 295.9C29.1 296.8 29.53 297.64 29.86 298.48C30.1956 299.276 30.3852 300.127 30.42 300.99C30.4336 301.779 30.2624 302.559 29.92 303.27C29.6298 303.883 29.1772 304.405 28.6112 304.779C28.0453 305.152 27.3877 305.364 26.71 305.39C26.1541 305.41 25.6036 305.275 25.12 305C24.706 304.758 24.3615 304.414 24.12 304C23.7694 303.444 23.6244 302.782 23.71 302.13C23.76 301.77 23.89 301.55 23.86 301.54Z" fill="#263238"/>
<path d="M108.09 306.31C108.328 306.986 108.328 307.724 108.09 308.4C107.958 308.788 107.74 309.142 107.453 309.434C107.165 309.727 106.816 309.951 106.43 310.09C105.915 310.242 105.369 310.247 104.851 310.106C104.334 309.965 103.866 309.682 103.5 309.29C103.08 308.828 102.836 308.234 102.81 307.61C102.791 306.93 102.896 306.252 103.12 305.61C103.54 304.26 104.41 302.79 104.28 301.02C104.217 300.123 103.967 299.248 103.547 298.453C103.127 297.657 102.545 296.958 101.84 296.4C101.101 295.809 100.256 295.364 99.35 295.09C98.4245 294.834 97.4702 294.696 96.5099 294.68C95.5794 294.672 94.6519 294.575 93.74 294.39C92.8887 294.214 92.1271 293.743 91.5899 293.06C91.1143 292.359 90.8473 291.537 90.82 290.69C90.7755 289.865 90.8427 289.037 91.02 288.23C91.4589 286.707 91.7009 285.134 91.74 283.55C91.6594 282.143 91.1616 280.793 90.3099 279.67C89.5898 278.779 88.7076 278.033 87.7099 277.47C86.981 277.039 86.2827 276.557 85.6199 276.03C85.0765 275.565 84.634 274.993 84.3199 274.35C84.3199 274.35 84.3199 274.35 84.3199 274.49C84.3594 274.625 84.413 274.756 84.4799 274.88C84.7294 275.366 85.0687 275.8 85.4799 276.16C86.1281 276.724 86.8203 277.236 87.5499 277.69C88.504 278.258 89.3448 278.997 90.0299 279.87C90.8226 280.946 91.2753 282.235 91.3299 283.57C91.2706 285.119 91.0186 286.654 90.5799 288.14C90.3865 288.986 90.3091 289.854 90.35 290.72C90.3872 291.653 90.6851 292.557 91.21 293.33C91.8061 294.101 92.6565 294.636 93.6099 294.84C94.5481 295.033 95.5023 295.136 96.46 295.15C97.3855 295.162 98.306 295.29 99.1999 295.53C100.048 295.794 100.842 296.211 101.54 296.76C102.197 297.278 102.74 297.927 103.134 298.665C103.528 299.404 103.765 300.216 103.83 301.05C103.97 302.66 103.17 304.05 102.73 305.5C102.499 306.196 102.397 306.928 102.43 307.66C102.473 308.359 102.76 309.02 103.24 309.53C103.651 309.96 104.174 310.266 104.751 310.413C105.327 310.56 105.933 310.541 106.5 310.36C106.914 310.2 107.286 309.947 107.587 309.621C107.889 309.295 108.112 308.905 108.24 308.48C108.421 307.959 108.449 307.397 108.32 306.86C108.276 306.664 108.199 306.478 108.09 306.31Z" fill="#263238"/>
<path d="M98.53 384.64V373.58C99.77 367.37 99.18 360.01 96.29 354.34C94.1934 350.685 91.8758 347.162 89.35 343.79L78.35 329.5C72.29 333.91 62.8 330.72 54.66 327.76C54.66 327.76 46.66 332.21 42.88 336.39C38.95 340.79 52.39 395.84 52.39 395.84C46.3 408.02 38.44 418.84 37.25 429.94L100.85 432.39L98.15 403.23L98.53 384.64Z" fill="#455A64"/>
<path d="M97.65 403.54C97.5868 403.127 97.57 402.707 97.6 402.29C97.6 401.38 97.6 400.29 97.6 398.9C97.65 395.9 97.71 392.03 97.78 387.72C97.85 383.41 97.98 379.4 98.12 376.54C98.19 375.11 98.26 373.95 98.32 373.15C98.327 372.735 98.3806 372.323 98.48 371.92C98.5205 372.332 98.5205 372.748 98.48 373.16C98.48 374.07 98.48 375.16 98.48 376.55C98.43 379.55 98.36 383.42 98.29 387.73C98.22 392.04 98.1 396.05 97.96 398.91C97.89 400.34 97.82 401.5 97.75 402.3C97.7656 402.716 97.7321 403.132 97.65 403.54Z" fill="#263238"/>
<path d="M126.7 413.6C126.7 413.6 132.9 413.94 136.7 416.34C140.5 418.74 146.7 422.48 149.25 427.11C150.42 429.24 147.09 429.69 145.44 428.46C143.79 427.23 141.28 424.89 140.03 424.61L138.78 424.32C139.921 426.903 141.193 429.426 142.59 431.88C143.88 433.88 145 437.2 141.12 437.35C141.12 437.35 138.51 440.75 135.87 438.23C135.87 438.23 133.81 441.32 130.49 437.04C130.49 437.04 128.55 439.49 127.75 438.55C126.95 437.61 124.3 436.13 123.53 433.07C122.375 429.508 121.04 426.007 119.53 422.58L126.7 413.6Z" fill="#FFBF9D"/>
<path d="M265.51 327.66C266.2 327.66 294.59 324.66 294.59 324.66C294.59 324.66 297 313.12 296.87 310.12C296.74 307.12 294.72 287.27 294.72 287.27L305.35 282.27C305.35 282.27 319.56 330.19 316.46 334.17C313.36 338.15 307.53 341.72 307.03 341.74C306.53 341.76 279.52 353.74 260.73 347.51C241.94 341.28 265.51 327.66 265.51 327.66Z" fill="#FFBF9D"/>
<path d="M240.63 353.53C244.81 357.68 252.01 361.13 264.03 358.13C287.79 352.19 305.6 347.13 312.68 343.33C319.76 339.53 317 322.55 317.6 321.78C319.39 319.46 317.42 314.48 314.87 313.7C307.6 311.5 294.95 312.37 294.31 313.03C290.58 316.95 293.98 321.71 293.98 321.71L262.65 325.82C258.798 325.639 254.938 325.884 251.14 326.55" fill="#455A64"/>
<path d="M251.14 326.55L251.89 326.39C252.39 326.3 253.13 326.17 254.11 326.05C256.945 325.693 259.805 325.573 262.66 325.69L293.98 321.49L293.83 321.84C292.801 320.326 292.295 318.518 292.39 316.69C292.475 315.745 292.784 314.833 293.29 314.03C293.544 313.627 293.832 313.245 294.15 312.89C294.275 312.797 294.413 312.723 294.56 312.67L294.92 312.58C295.16 312.52 295.39 312.5 295.62 312.45C299.5 312.003 303.414 311.922 307.31 312.21C309.355 312.335 311.388 312.615 313.39 313.05C313.89 313.16 314.39 313.31 314.91 313.44C315.443 313.61 315.932 313.897 316.34 314.28C317.135 315.036 317.741 315.967 318.11 317C318.507 318.034 318.647 319.149 318.52 320.25C318.428 320.823 318.214 321.369 317.89 321.85C317.8 321.95 317.81 322.22 317.8 322.48V323.28C317.87 325.43 317.97 327.62 317.91 329.82C317.926 332.943 317.415 336.047 316.4 339C315.878 340.48 314.983 341.799 313.8 342.83C313.188 343.309 312.515 343.705 311.8 344.01C311.14 344.36 310.44 344.63 309.8 344.95C307.06 346.12 304.31 347.08 301.6 347.95C298.89 348.82 296.23 349.66 293.6 350.43C283.14 353.43 273.6 355.86 265.66 357.85C263.763 358.351 261.84 358.749 259.9 359.04C258.161 359.282 256.405 359.376 254.65 359.32C251.831 359.26 249.05 358.655 246.46 357.54C244.836 356.823 243.321 355.881 241.96 354.74C241.481 354.353 241.033 353.928 240.62 353.47C240.62 353.47 241.08 353.91 242.03 354.66C243.408 355.759 244.929 356.667 246.55 357.36C249.124 358.422 251.876 358.989 254.66 359.03C256.396 359.072 258.132 358.965 259.85 358.71C261.777 358.406 263.687 357.999 265.57 357.49C273.57 355.49 283.03 353.03 293.46 349.97C296.07 349.2 298.73 348.38 301.46 347.48C304.19 346.58 306.9 345.63 309.61 344.48C310.27 344.17 310.96 343.9 311.61 343.55C312.278 343.256 312.906 342.88 313.48 342.43C314.597 341.46 315.441 340.216 315.93 338.82C316.915 335.905 317.405 332.846 317.38 329.77C317.44 327.58 317.38 325.41 317.27 323.25V322.43C317.27 322.29 317.27 322.15 317.27 322C317.262 321.92 317.262 321.84 317.27 321.76C317.292 321.698 317.319 321.638 317.35 321.58L317.4 321.5C317.681 321.09 317.866 320.622 317.94 320.13C318.057 319.113 317.923 318.083 317.55 317.13C317.214 316.175 316.659 315.312 315.93 314.61C315.576 314.278 315.152 314.029 314.69 313.88C314.19 313.75 313.69 313.61 313.2 313.49C311.224 313.062 309.218 312.784 307.2 312.66C303.345 312.365 299.471 312.439 295.63 312.88C295.4 312.88 295.17 312.94 294.95 313L294.63 313.07C294.56 313.097 294.494 313.131 294.43 313.17C294.129 313.498 293.858 313.853 293.62 314.23C293.144 314.966 292.856 315.807 292.78 316.68C292.693 318.399 293.163 320.1 294.12 321.53L294.32 321.84H293.97L262.63 325.84C259.791 325.696 256.946 325.776 254.12 326.08C253.12 326.18 252.39 326.29 251.89 326.36C251.39 326.43 251.14 326.55 251.14 326.55Z" fill="#263238"/>
<path d="M166.313 359.118L153.552 336.19L394.922 201.845C397.703 200.297 400.985 199.917 404.046 200.789C407.107 201.661 409.696 203.713 411.244 206.494L412.338 208.46C413.886 211.241 414.265 214.523 413.394 217.584C412.522 220.644 410.47 223.234 407.689 224.781L166.318 359.127L166.313 359.118Z" fill="#47B785"/>
<path d="M368.714 237.862L339.159 184.763C339.016 184.506 338.925 184.223 338.891 183.931C338.857 183.639 338.881 183.343 338.962 183.06C339.043 182.777 339.178 182.513 339.361 182.282C339.544 182.052 339.77 181.86 340.027 181.717L353.588 174.169C353.845 174.026 354.128 173.934 354.42 173.901C354.712 173.867 355.008 173.891 355.291 173.972C355.574 174.052 355.838 174.188 356.069 174.37C356.299 174.553 356.491 174.779 356.634 175.036L386.189 228.136L368.714 237.862Z" fill="#47B785"/>
<path d="M310.573 213.136L332.113 251.836C332.983 253.399 334.956 253.961 336.52 253.091L348.333 246.516C349.896 245.646 350.458 243.673 349.588 242.109L328.048 203.41C327.178 201.846 325.205 201.284 323.642 202.154L311.828 208.73C310.265 209.6 309.703 211.573 310.573 213.136Z" fill="#47B785"/>
<path d="M329.591 210.876L342.926 234.835L370.065 219.73L356.73 195.771L329.591 210.876Z" fill="#47B785"/>
<path d="M391.39 203.86C391.46 203.98 344.09 230.48 285.61 263.04C227.13 295.6 179.61 321.9 179.61 321.77C179.61 321.64 226.9 295.15 285.4 262.58C343.9 230.01 391.32 203.73 391.39 203.86Z" fill="#263238"/>
<path d="M68.56 403.41C86.36 435.41 123.89 448.41 152.39 432.56C180.89 416.71 189.59 377.91 171.79 345.95C153.99 313.99 116.47 300.95 87.96 316.8C59.45 332.65 50.77 371.45 68.56 403.41ZM156.35 354.55C168.82 376.95 162.73 404.12 142.75 415.23C122.77 426.34 96.48 417.23 84.01 394.81C71.54 372.39 77.63 345.24 97.6 334.12C117.57 323 143.88 332.15 156.35 354.55Z" fill="#47B785"/>
<path d="M194.182 313.299L207.352 336.961C209.103 340.107 213.074 341.238 216.22 339.487L217.286 338.893C220.432 337.142 221.563 333.172 219.812 330.026L206.642 306.364C204.891 303.217 200.921 302.086 197.774 303.838L196.708 304.431C193.562 306.182 192.431 310.153 194.182 313.299Z" fill="#47B785"/>
<path d="M219.475 299.22L232.645 322.882C234.396 326.028 238.367 327.159 241.513 325.408L242.579 324.815C245.725 323.063 246.856 319.093 245.105 315.947L231.935 292.285C230.184 289.139 226.214 288.008 223.067 289.759L222.001 290.352C218.855 292.103 217.724 296.074 219.475 299.22Z" fill="#47B785"/>
<path d="M206.36 306C206.49 305.93 209.54 311.3 213.19 318C216.84 324.7 219.69 330.16 219.56 330.23C219.43 330.3 216.38 324.94 212.73 318.23C209.08 311.52 206.23 306 206.36 306Z" fill="#263238"/>
<path d="M194.75 314.25C194.88 314.18 197.86 319.31 201.42 325.69C204.98 332.07 207.75 337.32 207.63 337.39C207.51 337.46 204.52 332.33 201 326C197.48 319.67 194.63 314.32 194.75 314.25Z" fill="#263238"/>
<path d="M231.81 292.07C231.94 292 235.05 297.34 238.76 304C242.47 310.66 245.37 316.13 245.24 316.2C245.11 316.27 242.01 310.92 238.3 304.26C234.59 297.6 231.69 292.14 231.81 292.07Z" fill="#263238"/>
<path d="M219.6 299.44C219.72 299.37 222.77 304.68 226.39 311.3C230.01 317.92 232.86 323.3 232.73 323.41C232.6 323.52 229.57 318.17 225.94 311.55C222.31 304.93 219.47 299.51 219.6 299.44Z" fill="#263238"/>
<path d="M292.13 263.37C293.294 263.507 294.468 263.206 295.423 262.525C296.377 261.844 297.044 260.833 297.294 259.687C297.543 258.542 297.358 257.344 296.773 256.328C296.188 255.312 295.246 254.55 294.13 254.19C294.851 253.451 295.322 252.505 295.475 251.484C295.629 250.463 295.457 249.42 294.985 248.502C294.513 247.584 293.764 246.838 292.844 246.369C291.924 245.9 290.88 245.733 289.86 245.89C289.818 244.875 289.514 243.887 288.978 243.024C288.441 242.161 287.691 241.452 286.799 240.964C285.907 240.477 284.904 240.229 283.888 240.244C282.872 240.259 281.877 240.537 281 241.05C279.856 240.115 278.433 239.589 276.956 239.557C275.479 239.524 274.034 239.986 272.85 240.87C271.855 240.68 270.826 240.816 269.915 241.257C269.003 241.698 268.258 242.421 267.79 243.319C267.322 244.217 267.156 245.242 267.316 246.242C267.477 247.242 267.955 248.163 268.68 248.87" fill="#263238"/>
<path d="M271.84 245.53H272.84C277.882 245.534 282.738 247.437 286.44 250.86C290.143 254.282 292.42 258.974 292.82 264C293.57 273.69 294.27 284.4 294.19 289.6C294 300.4 283.26 302 283.26 302L284.13 314.94L258 314.09L255.83 267.19C254.91 256 260.64 246.15 271.84 245.53Z" fill="#FFBF9D"/>
<path d="M283.35 302C278.351 301.986 273.461 300.539 269.26 297.83C269.26 297.83 272.72 305.98 283.46 305.04L283.35 302Z" fill="#FF9A6C"/>
<path d="M286.91 274.15C286.913 274.551 286.758 274.936 286.48 275.224C286.201 275.512 285.821 275.68 285.42 275.69C285.225 275.704 285.029 275.678 284.843 275.616C284.658 275.553 284.487 275.454 284.34 275.325C284.193 275.195 284.073 275.038 283.987 274.862C283.901 274.687 283.851 274.495 283.84 274.3C283.84 273.899 283.995 273.514 284.273 273.225C284.55 272.936 284.929 272.766 285.33 272.75C285.526 272.736 285.723 272.762 285.909 272.825C286.095 272.889 286.266 272.988 286.413 273.119C286.561 273.249 286.68 273.407 286.765 273.584C286.851 273.761 286.9 273.954 286.91 274.15Z" fill="#263238"/>
<path d="M290.49 269.29C290.3 269.49 289.13 268.63 287.49 268.63C285.85 268.63 284.62 269.45 284.44 269.25C284.26 269.05 284.55 268.8 285.08 268.41C285.797 267.917 286.65 267.659 287.52 267.67C288.38 267.666 289.218 267.94 289.91 268.45C290.41 268.84 290.58 269.21 290.49 269.29Z" fill="#263238"/>
<path d="M272 273.43C272.008 273.837 271.855 274.23 271.574 274.524C271.293 274.819 270.907 274.99 270.5 275C270.305 275.014 270.109 274.988 269.923 274.926C269.738 274.863 269.567 274.764 269.42 274.635C269.273 274.505 269.153 274.348 269.067 274.172C268.981 273.997 268.931 273.805 268.92 273.61C268.917 273.208 269.071 272.822 269.35 272.532C269.628 272.242 270.009 272.073 270.41 272.06C270.604 272.045 270.8 272.069 270.985 272.129C271.171 272.19 271.342 272.287 271.49 272.414C271.638 272.542 271.759 272.697 271.846 272.871C271.934 273.046 271.986 273.235 272 273.43Z" fill="#263238"/>
<path d="M274.23 269.55C274.04 269.75 272.87 268.89 271.23 268.89C269.59 268.89 268.36 269.71 268.18 269.51C268 269.31 268.29 269.06 268.82 268.67C269.537 268.177 270.39 267.919 271.26 267.93C272.12 267.926 272.958 268.2 273.65 268.71C274.15 269.1 274.32 269.46 274.23 269.55Z" fill="#263238"/>
<path d="M280.19 281.84C281.062 281.566 281.966 281.404 282.88 281.36C283.3 281.36 283.7 281.24 283.78 280.95C283.815 280.515 283.718 280.079 283.5 279.7L282.26 276.48C280.54 271.89 279.26 268.12 279.48 268.06C279.7 268 281.21 271.65 282.93 276.23C283.34 277.36 283.74 278.44 284.12 279.47C284.379 279.983 284.454 280.569 284.33 281.13C284.267 281.278 284.172 281.41 284.05 281.516C283.929 281.621 283.785 281.698 283.63 281.74C283.4 281.808 283.16 281.842 282.92 281.84C282.013 281.953 281.096 281.953 280.19 281.84Z" fill="#263238"/>
<path d="M275.68 263.19C275.46 263.61 274.05 263.19 272.3 263.09C270.55 262.99 269.09 263.32 268.93 262.88C268.86 262.67 269.17 262.3 269.8 261.96C270.613 261.559 271.515 261.373 272.42 261.42C273.317 261.452 274.19 261.721 274.95 262.2C275.52 262.59 275.78 263 275.68 263.19Z" fill="#263238"/>
<path d="M290.59 262.48C290.24 262.85 288.87 262.48 287.23 262.48C285.59 262.48 284.23 262.73 283.88 262.33C283.74 262.14 283.96 261.76 284.57 261.41C285.41 260.97 286.352 260.759 287.3 260.8C288.243 260.813 289.165 261.079 289.97 261.57C290.55 261.91 290.74 262.29 290.59 262.48Z" fill="#263238"/>
<path d="M291.8 259.1C291.8 259.1 288.98 252.35 285.73 250.77C281.8 248.85 280.1 253.16 276.35 252.1C272.6 251.04 268.85 249.21 265.01 252.1C260.81 255.26 262.77 257.49 262.49 262.27C261.39 281.63 257.83 287.09 256.86 277.97C256.75 276.97 253.98 276.17 253.58 271.97C253.06 266.5 252.87 259.85 254.11 255.97C255.11 252.7 257.02 250.44 260.37 247.97C265.67 244.05 272.93 243.97 277.86 244.5C282.79 245.03 292.27 250.66 291.8 259.1Z" fill="#263238"/>
<path d="M257.54 277.67C257.529 277.275 257.438 276.886 257.272 276.527C257.106 276.169 256.87 275.847 256.576 275.583C256.282 275.318 255.938 275.116 255.564 274.988C255.19 274.86 254.794 274.81 254.4 274.84C252.4 275.03 250.15 276.16 250.27 280.31C250.48 287.67 257.83 285.94 257.84 285.72C257.85 285.5 257.66 280.75 257.54 277.67Z" fill="#FFBF9D"/>
<path d="M256.15 283C256.15 283 256.03 283.1 255.81 283.2C255.511 283.337 255.171 283.355 254.86 283.25C254.374 282.963 253.974 282.551 253.702 282.056C253.429 281.562 253.294 281.004 253.31 280.44C253.272 279.812 253.374 279.183 253.61 278.6C253.673 278.369 253.792 278.158 253.956 277.984C254.12 277.809 254.324 277.678 254.55 277.6C254.697 277.555 254.854 277.564 254.995 277.624C255.136 277.685 255.251 277.793 255.32 277.93C255.42 278.13 255.38 278.28 255.42 278.29C255.46 278.3 255.57 278.16 255.5 277.86C255.46 277.678 255.353 277.517 255.2 277.41C255.099 277.336 254.984 277.282 254.862 277.253C254.74 277.224 254.614 277.22 254.49 277.24C254.189 277.308 253.91 277.452 253.681 277.659C253.451 277.865 253.279 278.127 253.18 278.42C252.883 279.064 252.749 279.772 252.79 280.48C252.88 281.96 253.68 283.33 254.79 283.61C254.988 283.662 255.196 283.669 255.396 283.629C255.597 283.589 255.787 283.504 255.95 283.38C256.15 283.18 256.18 283 256.15 283Z" fill="#FF9A6C"/>
<path d="M257.73 263.41C258.63 264.144 259.699 264.642 260.84 264.86C261.413 264.95 261.999 264.829 262.49 264.52C262.981 264.211 263.343 263.735 263.51 263.18C263.6 262.67 263.51 262.07 263.81 261.68C264.11 261.29 264.96 261.36 265.57 261.43C267.71 261.66 270.22 259.3 270.77 257.22C271.048 257.619 271.467 257.897 271.943 257.997C272.419 258.097 272.915 258.013 273.33 257.76C274.01 257.344 274.613 256.813 275.11 256.19C275.4 255.793 275.781 255.472 276.222 255.255C276.662 255.037 277.149 254.929 277.64 254.94C278.158 255.119 278.695 255.236 279.24 255.29C280.24 255.21 280.68 254.08 280.83 253.12C280.98 252.16 281.1 251.05 281.92 250.53C282.762 250.2 283.692 250.175 284.55 250.46C285.44 250.6 286.55 250.39 286.82 249.52C286.857 249.288 286.846 249.05 286.79 248.822C286.733 248.593 286.631 248.378 286.49 248.19C285.895 247.298 285.016 246.633 283.996 246.303C282.976 245.972 281.875 245.996 280.87 246.37C280.516 245.139 279.804 244.042 278.824 243.217C277.844 242.393 276.641 241.879 275.368 241.74C274.095 241.602 272.81 241.846 271.675 242.44C270.541 243.035 269.61 243.954 269 245.08C268.221 244.367 267.281 243.852 266.261 243.581C265.24 243.309 264.169 243.288 263.139 243.52C262.108 243.752 261.149 244.229 260.343 244.912C259.537 245.595 258.908 246.462 258.51 247.44C257.61 247.2 256.659 247.23 255.775 247.526C254.892 247.822 254.115 248.372 253.542 249.106C252.968 249.841 252.624 250.727 252.55 251.656C252.477 252.585 252.679 253.515 253.13 254.33C252.445 254.668 251.857 255.175 251.421 255.803C250.986 256.431 250.717 257.16 250.64 257.92C250.64 259.44 252.09 260.92 253.56 260.56C253.255 261.159 253.191 261.852 253.381 262.497C253.571 263.141 254.001 263.689 254.582 264.027C255.163 264.364 255.851 264.467 256.505 264.313C257.16 264.16 257.73 263.761 258.1 263.2" fill="#263238"/>
<path d="M281.41 248.53C281.41 248.53 281.41 248.53 281.41 248.67C281.41 248.81 281.41 248.89 281.36 249.06C281.257 249.559 281.074 250.038 280.82 250.48C280.414 251.172 279.857 251.763 279.19 252.21C278.309 252.811 277.256 253.109 276.19 253.06L276.31 252.9C276.526 253.56 276.472 254.279 276.16 254.9C275.829 255.558 275.405 256.164 274.9 256.7C274.655 257.012 274.376 257.297 274.07 257.55C273.526 257.908 272.872 258.061 272.226 257.982C271.58 257.904 270.982 257.598 270.54 257.12L270.81 257.04C270.707 257.804 270.444 258.538 270.039 259.194C269.634 259.851 269.096 260.415 268.46 260.85C267.761 261.37 266.911 261.647 266.04 261.64C265.223 261.595 264.419 261.416 263.66 261.11L263.86 261.02C263.475 261.911 262.873 262.691 262.11 263.29C261.762 263.588 261.351 263.805 260.908 263.925C260.465 264.044 260.001 264.063 259.55 263.98C258.777 263.812 258.069 263.421 257.515 262.856C256.961 262.291 256.583 261.576 256.43 260.8L256.6 260.88C255.822 261.283 254.93 261.41 254.07 261.24C253.43 261.118 252.827 260.847 252.31 260.45C251.988 260.198 251.711 259.894 251.49 259.55C251.409 259.431 251.348 259.299 251.31 259.16C251.589 259.62 251.952 260.023 252.38 260.35C252.889 260.719 253.479 260.962 254.1 261.06C254.917 261.215 255.762 261.08 256.49 260.68L256.63 260.6V260.76C256.781 261.483 257.14 262.146 257.662 262.668C258.184 263.19 258.847 263.549 259.57 263.7C259.982 263.772 260.405 263.751 260.808 263.639C261.212 263.526 261.584 263.325 261.9 263.05C262.616 262.48 263.18 261.742 263.54 260.9L263.6 260.77H263.74C264.464 261.061 265.231 261.23 266.01 261.27C266.816 261.276 267.602 261.02 268.25 260.54C268.849 260.129 269.356 259.597 269.738 258.979C270.12 258.361 270.37 257.67 270.47 256.95V256.6L270.7 256.87C270.96 257.157 271.286 257.377 271.651 257.509C272.015 257.642 272.406 257.683 272.79 257.63C273.148 257.582 273.49 257.452 273.79 257.25C274.079 257.017 274.341 256.752 274.57 256.46C275.064 255.95 275.482 255.37 275.81 254.74C275.957 254.459 276.047 254.152 276.075 253.836C276.102 253.52 276.067 253.202 275.97 252.9L275.91 252.72H276.1C277.121 252.783 278.136 252.513 278.99 251.95C279.646 251.527 280.2 250.964 280.61 250.3C280.979 249.762 281.25 249.163 281.41 248.53Z" fill="#455A64"/>
<path d="M280.17 287.33C280.11 287.06 278.32 287.5 276.66 286.28C275 285.06 274.73 283.1 274.48 283.15C274.23 283.2 274.23 283.67 274.41 284.48C274.656 285.537 275.269 286.472 276.14 287.12C276.972 287.74 278.011 288.012 279.04 287.88C279.81 287.76 280.21 287.45 280.17 287.33Z" fill="#263238"/>
<path d="M335.63 567.12L342.73 591.31C342.73 591.31 369.73 592.21 371.46 596.56L325 612L312.38 574.75L335.63 567.12Z" fill="#455A64"/>
<path d="M327.71 594.08C327.309 594.365 327.027 594.788 326.918 595.267C326.81 595.747 326.881 596.25 327.12 596.68C327.389 597.091 327.805 597.384 328.283 597.497C328.761 597.611 329.265 597.537 329.69 597.29C330.115 596.987 330.413 596.537 330.525 596.027C330.638 595.517 330.558 594.984 330.3 594.53C329.974 594.129 329.506 593.87 328.993 593.807C328.481 593.743 327.963 593.881 327.55 594.19" fill="#E0E0E0"/>
<path d="M368.84 594.81C368.84 594.81 371.21 595.02 371.46 596.56L325 612L323.88 608.19L368.8 594.79" fill="#263238"/>
<path d="M343.4 590.82C343.47 591.05 342.4 591.53 341.5 592.63C340.6 593.73 340.35 594.88 340.11 594.86C339.87 594.84 339.78 593.42 340.86 592.11C341.94 590.8 343.38 590.6 343.4 590.82Z" fill="white"/>
<path d="M348.94 591.21C349.07 591.42 348.22 592.13 347.76 593.34C347.3 594.55 347.43 595.65 347.2 595.71C346.97 595.77 346.4 594.54 346.99 593.04C347.58 591.54 348.87 591 348.94 591.21Z" fill="white"/>
<path d="M353.65 596.12C353.46 596.24 352.77 595.21 352.94 593.78C353.11 592.35 354 591.49 354.16 591.65C354.32 591.81 353.88 592.65 353.76 593.87C353.64 595.09 353.87 596 353.65 596.12Z" fill="white"/>
<path d="M341.17 585.49C341.17 585.73 340 585.76 338.75 586.27C337.5 586.78 336.63 587.52 336.45 587.37C336.27 587.22 336.96 586.09 338.45 585.5C339.94 584.91 341.23 585.27 341.17 585.49Z" fill="white"/>
<path d="M227.29 567.33L217.18 590.43C217.18 590.43 237.27 608.43 235.82 612.91L190.32 594.91L204.59 558.27L227.29 567.33Z" fill="#455A64"/>
<path d="M203.89 582.9C203.401 582.861 202.914 583.004 202.523 583.301C202.132 583.598 201.864 584.028 201.77 584.51C201.714 584.998 201.846 585.489 202.14 585.883C202.434 586.277 202.866 586.544 203.35 586.63C203.869 586.669 204.385 586.514 204.798 586.197C205.211 585.88 205.493 585.422 205.59 584.91C205.59 583.91 204.68 582.77 203.7 582.91" fill="#E0E0E0"/>
<path d="M234.93 609.89C234.93 609.89 236.61 611.58 235.82 612.89L190.32 594.89L191.91 591.26L234.91 609.86" fill="#263238"/>
<path d="M218 590.49C217.91 590.71 216.76 590.37 215.38 590.65C214 590.93 213.05 591.65 212.88 591.47C212.71 591.29 213.55 590.15 215.22 589.84C216.89 589.53 218.14 590.3 218 590.49Z" fill="white"/>
<path d="M222 594.35C222 594.58 220.86 594.58 219.73 595.22C218.6 595.86 218 596.77 217.73 596.68C217.46 596.59 217.87 595.27 219.28 594.5C220.69 593.73 222.08 594.14 222 594.35Z" fill="white"/>
<path d="M222.46 601.13C222.24 601.13 222.37 599.87 223.46 598.88C224.55 597.89 225.74 597.81 225.76 598.03C225.78 598.25 224.88 598.65 224.03 599.48C223.18 600.31 222.69 601.2 222.46 601.13Z" fill="white"/>
<path d="M219.73 585C219.56 585.16 218.66 584.46 217.37 584C216.08 583.54 214.95 583.6 214.91 583.37C214.87 583.14 216.12 582.71 217.63 583.21C219.14 583.71 219.91 584.84 219.73 585Z" fill="white"/>
<path d="M244.32 440.43L228.38 505.09C228.38 505.09 199.63 553.49 194.76 577.71L221.06 588.05C221.06 588.05 240.19 541.4 245.8 532.84C248.324 529.004 251.225 525.429 254.46 522.17C256.563 520.084 258.072 517.474 258.83 514.61L270.9 468.48L244.32 440.43Z" fill="#263238"/>
<path d="M237.53 430.09C237.53 430.09 239.75 447.41 256.42 455.09L291.54 512.29C291.54 512.29 294.29 530.89 299.54 546.56C304.79 562.23 315.4 592.43 315.4 592.43L344.29 581.63L325.88 518.69L322.88 496.86L294.22 423.86L269.6 409.1L237.53 430.09Z" fill="#263238"/>
<path d="M237.53 430.09L238.06 429.73L239.65 428.67L245.89 424.55L269.55 409L269.63 408.95L269.71 409L294.35 423.73V423.79L323.07 496.72V496.77C324.02 503.67 325.07 511.06 326.07 518.6C331.07 535.6 336.37 553.79 341.85 572.53C342.737 575.55 343.617 578.55 344.49 581.53L344.56 581.76L344.33 581.84L315.44 592.64L315.19 592.73L315.11 592.48C310.11 577.97 305.27 564 300.7 550.75C299.55 547.44 298.42 544.16 297.48 540.88C296.54 537.6 295.69 534.34 294.92 531.12C293.4 524.68 292.18 518.39 291.22 512.29V512.37L256.3 455.15L256.36 455.2C252.136 453.225 248.385 450.368 245.36 446.82C243.142 444.216 241.323 441.297 239.96 438.16C239.117 436.223 238.448 434.215 237.96 432.16C237.79 431.48 237.69 430.95 237.63 430.59C237.57 430.23 237.56 430.05 237.56 430.05C237.56 430.05 237.56 430.23 237.67 430.58C237.78 430.93 237.84 431.46 238.03 432.15C238.546 434.179 239.235 436.159 240.09 438.07C241.47 441.175 243.296 444.063 245.51 446.64C248.546 450.151 252.297 452.973 256.51 454.92L291.7 512.08V512.13C292.7 518.21 293.9 524.49 295.42 530.92C296.19 534.13 297.03 537.38 297.98 540.65C298.93 543.92 300.05 547.18 301.2 550.49C305.79 563.74 310.62 577.71 315.64 592.21L315.31 592.06L344.2 581.26L344.04 581.57C343.173 578.59 342.293 575.59 341.4 572.57L325.64 518.63C324.64 511.09 323.58 503.7 322.64 496.8V496.86L294.03 423.86L294.11 423.95L269.51 409.16H269.66L246 424.64L239.7 428.7L238.08 429.75L237.53 430.09Z" fill="#455A64"/>
<path d="M253 306.52C253 306.52 244.58 313 240.49 320.24C235.59 328.91 235.06 341.76 234.91 361.72C234.76 380.18 237.52 385.31 236.46 392.27C234.37 405.86 232.82 451.47 232.82 451.47C232.82 451.47 259.82 441.1 265.06 436.47L270.33 431.89L304.12 443.06L297.3 401.54L292.62 349.79L286.62 322.34L285.62 311.57L256.6 299.91L253 306.52Z" fill="#455A64"/>
<path d="M284.53 311C284.88 311.07 283.7 313.44 281.62 316.92L281.53 317.06L281.37 317C278.44 315.86 274.56 314.43 270.32 312.88C265.54 311.14 261.22 309.52 258.13 308.26C256.58 307.63 255.34 307.1 254.49 306.71C254.039 306.535 253.604 306.321 253.19 306.07C253.664 306.176 254.127 306.33 254.57 306.53L258.26 307.92L270.5 312.39C274.74 313.94 278.61 315.39 281.5 316.63L281.26 316.71C283.44 313.3 284.73 311.05 284.53 311Z" fill="#263238"/>
<path d="M319.45 289.44C319.45 289.44 317.31 286.11 315.29 283.04C313.27 279.97 310.21 278.46 309.72 276.86C309.23 275.26 306.54 268.13 306.11 266.36C305.736 264.646 305.562 262.894 305.59 261.14C305.59 261.14 307.8 260.2 308.86 263.36C309.5 265.26 311.54 271.71 311.98 272.03C312.42 272.35 312.98 271.88 312.98 271.88C312.072 269.465 311.287 267.005 310.63 264.51C310.53 263.34 310.94 255.58 310.94 255.58C311.488 255.469 312.058 255.559 312.546 255.832C313.034 256.106 313.408 256.545 313.6 257.07C314.65 259.07 314.69 264.07 314.69 264.07L316.28 269.65L315.72 264.13L316.52 253.98C317.297 254.091 318.021 254.438 318.593 254.975C319.166 255.512 319.559 256.212 319.72 256.98C320.39 259.72 319.5 263.54 319.95 264.35C320.4 265.16 320.89 270.06 320.89 270.06C320.89 270.06 321.44 258.16 322.71 257.82C323.98 257.48 325.02 258.74 324.84 261.14C324.66 263.54 324.61 268.62 325.27 270.86C325.93 273.1 332.7 281.86 332.15 285.7C331.813 288.02 331.602 290.357 331.52 292.7H319.92L319.45 289.44Z" fill="#FFBF9D"/>
<path d="M278.76 319.41C279.41 319.66 307.12 326.52 307.12 326.52C307.12 326.52 313.31 316.52 314.22 313.62C315.13 310.72 320 291.4 320 291.4L331.71 290.3C331.71 290.3 328.71 340.19 324.47 342.88C320.23 345.57 313.47 346.93 313.03 346.78C312.59 346.63 283.08 348.68 267.53 336.43C251.98 324.18 278.76 319.41 278.76 319.41Z" fill="#FFBF9D"/>
<g opacity="0.3">
<path opacity="0.3" d="M258.9 345.82C261.874 349.186 265.842 351.519 270.23 352.48C277.58 354.1 293.23 356.97 293.23 356.97L292.47 349.29L258.47 345.65" fill="black"/>
</g>
<path d="M246.56 335.26C249.08 340.58 254.68 346.26 266.99 347.55C291.36 350.07 309.81 351.41 317.78 350.21C325.75 349.01 328.92 332.14 329.78 331.62C332.26 330.06 332.1 324.7 329.96 323.1C323.88 318.55 311.69 315.1 310.87 315.47C306.02 317.88 307.6 323.52 307.6 323.52L276.7 316.7C273.141 315.22 269.428 314.14 265.63 313.48" fill="#455A64"/>
<path d="M265.63 313.48C265.63 313.48 265.89 313.48 266.39 313.58C266.89 313.68 267.64 313.8 268.6 314.01C271.387 314.642 274.116 315.505 276.76 316.59L307.64 323.31L307.38 323.59C306.923 321.818 307.063 319.944 307.78 318.26C308.175 317.398 308.772 316.643 309.52 316.06C309.899 315.764 310.304 315.503 310.73 315.28C310.876 315.236 311.028 315.213 311.18 315.21H311.55C311.8 315.21 312.02 315.29 312.26 315.33C316.06 316.229 319.766 317.484 323.33 319.08C325.208 319.898 327.023 320.854 328.76 321.94C329.19 322.22 329.62 322.53 330.05 322.83C330.495 323.168 330.857 323.602 331.11 324.1C331.598 325.082 331.851 326.164 331.85 327.26C331.876 328.37 331.628 329.468 331.13 330.46C330.854 330.972 330.464 331.413 329.99 331.75C329.87 331.81 329.79 332.07 329.69 332.31L329.43 333.06C328.77 335.06 328.11 337.2 327.31 339.26C326.262 342.214 324.728 344.972 322.77 347.42C322.06 348.35 321.155 349.114 320.119 349.656C319.082 350.199 317.939 350.507 316.77 350.56C316.02 350.67 315.27 350.69 314.53 350.75C311.53 350.93 308.65 350.89 305.8 350.81C302.95 350.73 300.16 350.58 297.45 350.41C286.58 349.71 276.83 348.72 268.65 347.87C266.696 347.699 264.753 347.418 262.83 347.03C261.124 346.665 259.451 346.157 257.83 345.51C255.204 344.49 252.797 342.976 250.74 341.05C249.456 339.821 248.352 338.417 247.46 336.88C247.141 336.353 246.863 335.801 246.63 335.23C246.63 335.23 246.91 335.8 247.55 336.83C248.474 338.329 249.594 339.698 250.88 340.9C252.935 342.784 255.331 344.257 257.94 345.24C259.564 345.866 261.236 346.358 262.94 346.71C264.858 347.078 266.794 347.341 268.74 347.5C276.92 348.31 286.67 349.26 297.52 349.94C300.24 350.1 303.02 350.24 305.86 350.31C308.7 350.38 311.61 350.42 314.55 350.25C315.28 350.18 316.03 350.16 316.76 350.05C317.489 350.012 318.209 349.874 318.9 349.64C320.282 349.107 321.501 348.225 322.44 347.08C324.356 344.679 325.856 341.976 326.88 339.08C327.68 337.08 328.33 334.97 328.99 332.91L329.27 332.13C329.27 332.01 329.37 331.88 329.43 331.74C329.466 331.663 329.51 331.589 329.56 331.52C329.598 331.472 329.642 331.428 329.69 331.39L329.76 331.33C330.175 331.043 330.517 330.663 330.76 330.22C331.227 329.291 331.454 328.259 331.42 327.22C331.423 326.208 331.194 325.209 330.75 324.3C330.532 323.871 330.221 323.495 329.84 323.2C329.41 322.91 329 322.6 328.57 322.33C326.858 321.252 325.066 320.306 323.21 319.5C319.686 317.911 316.02 316.659 312.26 315.76C312.03 315.76 311.8 315.66 311.58 315.64H311.25H311.03C310.636 315.85 310.261 316.095 309.91 316.37C309.213 316.895 308.654 317.582 308.28 318.37C307.617 319.952 307.481 321.705 307.89 323.37L307.98 323.72L307.63 323.64L276.8 316.74C274.18 315.638 271.479 314.742 268.72 314.06C267.72 313.83 267.03 313.67 266.53 313.57C266.03 313.47 265.63 313.48 265.63 313.48Z" fill="#263238"/>
<path d="M317.78 333.17C317.069 332.994 316.393 332.7 315.78 332.3C314.247 331.445 312.834 330.389 311.58 329.16C310.319 327.936 309.217 326.559 308.3 325.06C307.883 324.446 307.562 323.771 307.35 323.06C308.721 325.08 310.256 326.983 311.94 328.75C313.751 330.395 315.705 331.874 317.78 333.17Z" fill="#263238"/>
<path d="M100.22 415.53C100.22 415.53 106.42 415.86 110.22 418.27C114.02 420.68 120.22 424.4 122.77 429.04C123.94 431.17 120.61 431.62 118.97 430.38C117.33 429.14 114.8 426.82 113.55 426.53L112.3 426.25C113.44 428.83 114.711 431.35 116.11 433.8C117.4 435.8 118.52 439.12 114.65 439.28C114.65 439.28 112.03 442.68 109.39 440.16C109.39 440.16 107.33 443.24 104.01 438.97C104.01 438.97 102.08 441.41 101.27 440.48C100.46 439.55 97.82 438.06 97.05 435C95.901 431.436 94.5659 427.934 93.05 424.51L100.22 415.53Z" fill="#FFBF9D"/>
<path d="M47.4599 334C44.2819 335.023 41.5389 337.083 39.6699 339.85C37.2899 343.51 36.5599 349.85 37.2399 354.57C38.6799 364.52 43.2399 381.31 45.8099 392.09C46.6899 395.81 48.4999 402.47 53.8099 406L91.6999 428.72L101.83 413.72L67.2899 385.57L60.4599 346.99L47.4599 334Z" fill="#455A64"/>
<path d="M40.91 371.92C40.9619 372.046 41.0021 372.177 41.03 372.31L41.35 373.48C41.62 374.54 42 376.06 42.5 378.01C43.5 382.01 44.92 387.69 46.69 394.76C47.7176 398.611 49.8943 402.057 52.93 404.64C54.6641 406.028 56.518 407.26 58.47 408.32L64.56 412L91.85 428.48L91.5 428.56L95.15 423.15L101.63 413.52L101.68 413.87L67.45 385.68H67.39V385.61C65.13 376.1 63.49 368.31 62.45 362.89C61.94 360.18 61.58 358.07 61.35 356.63C61.25 355.93 61.17 355.38 61.11 354.99C61.05 354.6 61.04 354.43 61.04 354.43C61.0943 354.611 61.1377 354.794 61.17 354.98C61.24 355.37 61.34 355.91 61.46 356.61C61.73 358.04 62.12 360.15 62.68 362.85C63.77 368.25 65.47 376.02 67.78 385.52L67.71 385.41L102 413.47L102.18 413.62L102.05 413.81L95.57 423.44L91.92 428.85L91.79 429.05L91.57 428.93L64.32 412.4L58.24 408.71C56.2751 407.639 54.408 406.397 52.66 405C49.5718 402.355 47.3693 398.826 46.35 394.89C44.64 387.8 43.27 382.07 42.35 378.1C41.9 376.1 41.54 374.61 41.29 373.55L41 372.32C40.9606 372.189 40.9306 372.055 40.91 371.92Z" fill="#263238"/>
<path d="M41.53 339.33C41.7652 339.176 42.0259 339.064 42.3 339C43.0258 338.776 43.7681 338.609 44.52 338.5C47.0282 338.113 49.5947 338.461 51.91 339.5C54.1476 340.667 56.0483 342.388 57.43 344.5C57.8489 345.138 58.1849 345.827 58.43 346.55C58.5373 346.807 58.5983 347.082 58.61 347.36C58.1778 346.442 57.6798 345.556 57.12 344.71C55.6965 342.739 53.8341 341.127 51.68 340C49.4458 339.01 46.9888 338.63 44.56 338.9C42.69 339.05 41.56 339.42 41.53 339.33Z" fill="#263238"/>
</svg>
