<svg width="360" height="370" viewBox="0 0 360 370" fill="none" xmlns="http://www.w3.org/2000/svg">
<path d="M303.265 147.082C311.492 199.725 308.102 276.568 224.039 275.833C177.937 278.996 73.2704 317.948 65.0442 265.305C56.818 212.663 81.3371 71.2669 175.93 84.0451C276.935 77.1153 295.039 94.4394 303.265 147.082Z" fill="#ACF1D3"/>
<path d="M243.051 267.678L243.032 267.684L243.013 267.692C232.436 272 218.996 279.646 204.505 287.89L204.465 287.913C189.943 296.174 174.351 305.044 159.447 311.819C144.531 318.599 130.371 323.25 118.705 323.129C112.882 323.069 107.704 321.82 103.365 319.075C99.029 316.332 95.4918 312.071 92.9864 305.92C82.8681 281.078 75.0211 231.674 81.0954 186.48C87.1722 141.268 107.132 100.519 152.401 92.5285L152.454 92.5193L152.503 92.4992C175.605 83.0895 194.225 76.7731 209.475 73.3641C224.728 69.9546 236.576 69.4615 246.151 71.6655C265.241 76.0598 275.492 91.2288 285.64 116.145C295.784 141.048 304.647 172.784 301.211 201.366C299.495 215.647 294.709 229.127 285.491 240.579C276.274 252.03 262.599 261.485 243.051 267.678Z" stroke="black"/>
</svg>
