<svg width="500" height="500" viewBox="0 0 500 500" fill="none" xmlns="http://www.w3.org/2000/svg">
<path d="M456.542 209.107C407.803 125.629 275.595 155.358 248.596 114.759C234.766 93.9992 219.296 69.8696 196.857 57.3398C175.467 45.34 150.668 41.13 129.048 42.71C51.8396 48.3599 19.1102 117.439 33.9399 193.298C53.7395 294.486 143.438 397.854 249.996 398.574C305.735 398.994 358.994 378.995 400.693 350.865L401.623 350.235C443.322 321.846 493.761 272.836 456.542 209.107Z" fill="#5AE4A8"/>
<path opacity="0.7" d="M456.542 209.107C407.803 125.629 275.595 155.358 248.596 114.759C234.766 93.9992 219.296 69.8696 196.857 57.3398C175.467 45.34 150.668 41.13 129.048 42.71C51.8396 48.3599 19.1102 117.439 33.9399 193.298C53.7395 294.486 143.438 397.854 249.996 398.574C305.735 398.994 358.994 378.995 400.693 350.865L401.623 350.235C443.322 321.846 493.761 272.836 456.542 209.107Z" fill="white"/>
<path d="M78.19 215.186H72.77C66.9538 215.186 61.3758 217.496 57.2632 221.609C53.1505 225.721 50.84 231.299 50.84 237.116V357.456C50.84 363.272 53.1505 368.85 57.2632 372.962C61.3758 377.075 66.9538 379.386 72.77 379.386H147.13C152.946 379.386 158.524 377.075 162.637 372.962C166.749 368.85 169.06 363.272 169.06 357.456" stroke="#263238" stroke-width="1.10311" stroke-linecap="round" stroke-linejoin="round" stroke-dasharray="4.41 4.41"/>
<path d="M163 101.63V77.86C163 74.3033 164.411 70.8919 166.923 68.3741C169.435 65.8564 172.843 64.4379 176.4 64.43H273.1C276.662 64.43 280.078 65.8449 282.596 68.3635C285.115 70.8822 286.53 74.2981 286.53 77.86" stroke="#263238" stroke-width="1.10311" stroke-linecap="round" stroke-linejoin="round" stroke-dasharray="4.41 4.41"/>
<path d="M250.006 472.16C355.782 472.16 441.531 460.179 441.531 445.4C441.531 430.621 355.782 418.64 250.006 418.64C144.229 418.64 58.48 430.621 58.48 445.4C58.48 460.179 144.229 472.16 250.006 472.16Z" fill="#5AE4A8"/>
<path opacity="0.5" d="M250.006 472.16C355.782 472.16 441.531 460.179 441.531 445.4C441.531 430.621 355.782 418.64 250.006 418.64C144.229 418.64 58.48 430.621 58.48 445.4C58.48 460.179 144.229 472.16 250.006 472.16Z" fill="white"/>
<path d="M430.557 133.52V313.58C430.557 319.466 428.219 325.111 424.058 329.275C419.896 333.438 414.252 335.778 408.366 335.78H91.651C85.7647 335.778 80.1203 333.438 75.959 329.275C71.7976 325.111 69.46 319.466 69.46 313.58V133.52C69.46 132.99 69.46 132.52 69.53 131.96C69.9199 126.359 72.4196 121.114 76.5251 117.283C80.6305 113.453 86.036 111.322 91.651 111.32H408.366C413.987 111.322 419.398 113.459 423.504 117.298C427.611 121.137 430.106 126.392 430.487 132C430.537 132.48 430.557 133 430.557 133.52Z" fill="white" stroke="#263238" stroke-width="1.10311" stroke-linecap="round" stroke-linejoin="round"/>
<path d="M80.26 140.28H420.853V306.61C420.853 312.126 418.662 317.417 414.761 321.318C410.861 325.218 405.57 327.41 400.054 327.41H101.069C95.5527 327.41 90.2625 325.218 86.3619 321.318C82.4613 317.417 80.27 312.126 80.27 306.61V140.28H80.26Z" fill="#263238"/>
<path opacity="0.2" d="M420.886 140.28V306.61C420.915 312.095 418.765 317.368 414.907 321.269C411.05 325.169 405.801 327.378 400.316 327.41H100.83C95.3446 327.378 90.0961 325.169 86.2386 321.269C82.3812 317.368 80.2307 312.095 80.26 306.61V140.28H420.886Z" fill="white"/>
<path d="M430.458 132H69.53C69.9198 126.399 72.4194 121.154 76.5245 117.323C80.6296 113.493 86.0347 111.362 91.6493 111.36H408.339C413.954 111.362 419.359 113.493 423.464 117.323C427.569 121.154 430.068 126.399 430.458 132Z" fill="#5AE4A8" stroke="#263238" stroke-width="1.10311" stroke-miterlimit="10"/>
<path d="M113.88 121.64C113.88 122.417 113.65 123.177 113.218 123.823C112.786 124.47 112.172 124.973 111.454 125.271C110.736 125.568 109.946 125.646 109.183 125.494C108.421 125.343 107.721 124.969 107.171 124.419C106.622 123.869 106.247 123.169 106.096 122.407C105.944 121.644 106.022 120.854 106.319 120.136C106.617 119.418 107.12 118.804 107.767 118.372C108.413 117.941 109.173 117.71 109.95 117.71C110.992 117.71 111.992 118.124 112.729 118.861C113.466 119.598 113.88 120.598 113.88 121.64Z" fill="#263238"/>
<path d="M130.5 121.64C130.5 122.417 130.27 123.177 129.838 123.823C129.406 124.47 128.792 124.973 128.074 125.271C127.356 125.568 126.566 125.646 125.803 125.494C125.041 125.343 124.341 124.969 123.791 124.419C123.241 123.869 122.867 123.169 122.716 122.407C122.564 121.644 122.642 120.854 122.939 120.136C123.237 119.418 123.74 118.804 124.387 118.372C125.033 117.941 125.793 117.71 126.57 117.71C127.612 117.71 128.612 118.124 129.349 118.861C130.086 119.598 130.5 120.598 130.5 121.64Z" fill="#263238"/>
<path d="M143.19 125.57C145.36 125.57 147.12 123.81 147.12 121.64C147.12 119.47 145.36 117.71 143.19 117.71C141.02 117.71 139.26 119.47 139.26 121.64C139.26 123.81 141.02 125.57 143.19 125.57Z" fill="#263238"/>
<path d="M420.881 140.28V306.61C420.881 312.126 418.69 317.417 414.789 321.318C410.888 325.218 405.597 327.41 400.081 327.41H101.071C96.2559 327.409 91.5905 325.738 87.8702 322.681C84.1499 319.625 81.6052 315.373 80.67 310.65V310.59C80.4158 309.272 80.2885 307.932 80.29 306.59V140.28H420.881Z" stroke="#263238" stroke-width="1.10311" stroke-miterlimit="10"/>
<path d="M420.544 166C419.086 165.181 417.535 164.54 415.924 164.09L414.054 155.74H406.114L404.264 164.09C402.645 164.532 401.086 165.173 399.624 166L392.454 161.41L386.844 167L391.354 174.17C390.529 175.632 389.887 177.191 389.444 178.81L381.094 180.66V188.6L389.444 190.47C389.882 192.098 390.524 193.663 391.354 195.13L386.764 202.35L392.384 207.96L399.594 203.37C401.053 204.198 402.608 204.843 404.224 205.29L406.084 213.63H413.994L415.854 205.29C417.466 204.838 419.017 204.194 420.474 203.37L420.844 203.61V165.8L420.544 166ZM410.104 195C408.075 195 406.091 194.398 404.403 193.27C402.716 192.142 401.401 190.539 400.624 188.664C399.848 186.789 399.646 184.725 400.042 182.735C400.439 180.744 401.417 178.916 402.853 177.482C404.289 176.047 406.118 175.071 408.109 174.676C410.1 174.281 412.163 174.486 414.038 175.264C415.912 176.042 417.514 177.359 418.64 179.047C419.766 180.736 420.366 182.72 420.364 184.75C420.364 186.097 420.099 187.431 419.583 188.675C419.067 189.919 418.312 191.05 417.359 192.001C416.406 192.953 415.275 193.708 414.03 194.223C412.785 194.737 411.451 195.001 410.104 195Z" fill="#263238"/>
<path d="M277.456 174.05V157.31L259.856 153.4C258.906 149.999 257.563 146.72 255.856 143.63L257.986 140.28H174.886L176.936 143.54C175.207 146.617 173.863 149.895 172.936 153.3L155.326 157.22V174L172.936 177.93C173.863 181.361 175.207 184.665 176.936 187.77L167.266 202.98L179.116 214.82L194.316 205.14C197.399 206.875 200.679 208.234 204.086 209.19L208.006 226.74H224.706L228.646 209.15C232.041 208.19 235.31 206.83 238.386 205.1L253.596 214.78L265.436 202.94L255.826 187.73C257.529 184.645 258.871 181.373 259.826 177.98L277.456 174.05ZM216.456 187.31C212.178 187.31 207.996 186.042 204.439 183.665C200.882 181.288 198.109 177.91 196.472 173.958C194.835 170.005 194.407 165.656 195.241 161.46C196.076 157.264 198.136 153.41 201.161 150.385C204.186 147.36 208.04 145.3 212.236 144.466C216.432 143.631 220.781 144.059 224.733 145.696C228.685 147.334 232.063 150.106 234.44 153.663C236.817 157.22 238.086 161.402 238.086 165.68C238.087 168.521 237.528 171.334 236.442 173.959C235.355 176.584 233.762 178.969 231.753 180.978C229.744 182.987 227.359 184.58 224.735 185.666C222.11 186.753 219.296 187.311 216.456 187.31Z" fill="#263238"/>
<path d="M166.386 289L167.096 275.71L153.325 271.83C152.685 269.099 151.739 266.449 150.504 263.93L158.825 252.25L149.904 242.36L137.444 249.36C135.062 247.862 132.515 246.644 129.853 245.73L127.473 231.61L114.192 231L110.352 244.81C107.616 245.424 104.963 246.364 102.451 247.61L90.7807 239.3L80.87 248.21L87.9305 260.68C86.4169 263.051 85.1946 265.596 84.2903 268.26L80.29 268.92V286.92L83.2102 287.74C83.816 290.48 84.753 293.136 86.0004 295.65L80.26 303.7L80.64 310.59V310.65L86.5704 317.22L99.0512 310.17C101.429 311.699 103.985 312.932 106.662 313.84L109.002 327.4L109.112 327.97L122.393 328.67L122.743 327.4L126.233 314.87C128.981 314.255 131.647 313.315 134.173 312.07L145.824 320.37L155.725 311.47L148.724 298.99C150.224 296.622 151.43 294.08 152.315 291.42L166.386 289ZM131.113 268.25C128.838 265.72 125.864 263.921 122.566 263.081C119.269 262.242 115.797 262.399 112.588 263.533C109.38 264.667 106.581 266.727 104.544 269.452C102.507 272.178 101.324 275.446 101.144 278.844C100.965 282.242 101.798 285.616 103.537 288.541C105.276 291.465 107.844 293.808 110.915 295.273C113.986 296.738 117.423 297.26 120.79 296.771C124.158 296.283 127.305 294.807 129.833 292.53C133.209 289.48 135.239 285.217 135.479 280.674C135.719 276.131 134.149 271.678 131.113 268.29V268.25Z" fill="#263238"/>
<path d="M272.594 269.19C273.108 267.132 273.38 265.021 273.404 262.9L282.954 257.9L280.314 248.21L269.534 248.71C268.443 246.899 267.144 245.221 265.664 243.71L268.854 233.4L260.154 228.4L252.874 236.34C250.82 235.844 248.717 235.576 246.604 235.54L241.604 225.99L231.924 228.62L232.434 239.41C230.623 240.502 228.945 241.8 227.434 243.28L217.114 240.09L212.114 248.78L220.114 256.05C219.597 258.1 219.332 260.206 219.324 262.32L209.754 267.32L212.394 277L223.194 276.49C224.265 278.31 225.558 279.99 227.044 281.49L223.834 291.75L232.544 296.75L239.784 288.87C241.841 289.388 243.953 289.653 246.074 289.66L251.074 299.22L260.754 296.59L260.324 287.37L260.254 285.79C262.091 284.709 263.79 283.41 265.314 281.92L275.624 285.12L279.884 277.68L280.604 276.42L272.594 269.19ZM249.724 275.07C247.242 275.755 244.612 275.687 242.169 274.875C239.725 274.063 237.577 272.543 235.999 270.509C234.42 268.475 233.481 266.017 233.3 263.449C233.12 260.88 233.706 258.315 234.985 256.081C236.265 253.846 238.179 252.041 240.485 250.895C242.791 249.75 245.385 249.315 247.939 249.646C250.493 249.977 252.891 251.059 254.829 252.754C256.767 254.45 258.157 256.683 258.824 259.17C259.714 262.485 259.256 266.017 257.551 268.995C255.846 271.974 253.033 274.158 249.724 275.07Z" fill="#263238"/>
<path d="M383.314 286.23L385.514 272.93L372.054 267.52C371.749 264.685 371.101 261.898 370.124 259.22L379.814 248.43L371.974 237.43L358.614 243.1C356.396 241.322 353.972 239.818 351.394 238.62L350.614 224.13L337.314 221.93L331.864 235.33C329.042 235.662 326.267 236.316 323.594 237.28L312.774 227.59L301.824 235.43L307.504 248.78C305.941 250.731 304.584 252.839 303.454 255.07C303.304 255.38 303.144 255.69 303.004 256L288.524 256.8L286.314 270.08L288.494 270.96L299.774 275.51C300.082 278.331 300.73 281.105 301.704 283.77L291.994 294.63L299.844 305.63L313.194 299.93C315.405 301.724 317.826 303.242 320.404 304.45L321.154 318.87L334.444 321.07L339.884 307.77C342.713 307.461 345.493 306.809 348.164 305.83L358.964 315.52L369.964 307.67L364.284 294.31C366.094 292.09 367.622 289.655 368.834 287.06L383.314 286.23ZM346.014 285.63C343.216 287.637 339.886 288.77 336.444 288.885C333.002 288.999 329.604 288.09 326.679 286.273C323.754 284.456 321.433 281.813 320.01 278.677C318.588 275.541 318.127 272.053 318.686 268.655C319.246 265.257 320.801 262.102 323.154 259.588C325.507 257.073 328.553 255.313 331.906 254.53C335.26 253.747 338.77 253.976 341.993 255.188C345.216 256.401 348.008 258.541 350.014 261.34C352.702 265.094 353.789 269.762 353.035 274.317C352.281 278.873 349.748 282.942 345.994 285.63H346.014Z" fill="#263238"/>
<path d="M203.08 187.77H98.5C91.2595 187.77 85.39 193.639 85.39 200.88V345.67C85.39 352.91 91.2595 358.78 98.5 358.78H203.08C210.32 358.78 216.19 352.91 216.19 345.67V200.88C216.19 193.639 210.32 187.77 203.08 187.77Z" fill="#5AE4A8" stroke="#263238" stroke-width="1.10311" stroke-miterlimit="10"/>
<path opacity="0.2" d="M203.08 187.77H98.5C91.2595 187.77 85.39 193.639 85.39 200.88V345.67C85.39 352.91 91.2595 358.78 98.5 358.78H203.08C210.32 358.78 216.19 352.91 216.19 345.67V200.88C216.19 193.639 210.32 187.77 203.08 187.77Z" fill="black"/>
<path d="M228.36 213.8V358.59C228.361 360.312 228.023 362.018 227.365 363.61C226.707 365.202 225.741 366.648 224.524 367.867C223.306 369.085 221.861 370.052 220.269 370.711C218.678 371.371 216.973 371.71 215.25 371.71H110.67C108.948 371.709 107.244 371.368 105.654 370.708C104.064 370.048 102.619 369.081 101.403 367.863C100.186 366.645 99.2217 365.199 98.5641 363.608C97.9064 362.017 97.5686 360.312 97.57 358.59V213.8C97.5699 210.325 98.9498 206.992 101.406 204.533C103.863 202.075 107.195 200.693 110.67 200.69H215.25C218.727 200.69 222.062 202.071 224.52 204.53C226.979 206.989 228.36 210.323 228.36 213.8Z" fill="white" stroke="#263238" stroke-width="1.10311" stroke-linecap="round" stroke-linejoin="round"/>
<path d="M228.36 213.8V221.55H97.5699V213.8C97.5699 210.325 98.9498 206.992 101.406 204.533C103.863 202.075 107.195 200.693 110.67 200.69H215.25C218.727 200.69 222.062 202.071 224.52 204.53C226.979 206.989 228.36 210.323 228.36 213.8Z" fill="#5AE4A8" stroke="#263238" stroke-width="1.10311" stroke-miterlimit="10"/>
<path d="M142.05 230.53H109.87V235.93H142.05V230.53Z" fill="#5AE4A8"/>
<path d="M142.05 278.92H109.87V284.32H142.05V278.92Z" fill="#5AE4A8"/>
<path d="M142.05 322.8H109.87V328.2H142.05V322.8Z" fill="#5AE4A8"/>
<path d="M201.26 243.9H109.87V247.86H201.26V243.9Z" fill="#263238"/>
<path d="M184.78 251.47H109.87V255.33H184.78V251.47Z" fill="#263238"/>
<path d="M194.59 258.92H109.87V262.78H194.59V258.92Z" fill="#263238"/>
<path d="M194.59 266.36H109.87V270.22H194.59V266.36Z" fill="#263238"/>
<path d="M201.26 287.78H109.87V291.74H201.26V287.78Z" fill="#263238"/>
<path d="M184.78 295.35H109.87V299.21H184.78V295.35Z" fill="#263238"/>
<path d="M194.59 302.8H109.87V306.66H194.59V302.8Z" fill="#263238"/>
<path d="M201.26 335.96H109.87V339.92H201.26V335.96Z" fill="#263238"/>
<path d="M184.78 343.54H109.87V347.4H184.78V343.54Z" fill="#263238"/>
<path d="M194.59 350.99H109.87V354.85H194.59V350.99Z" fill="#263238"/>
<path d="M375.77 100.29V158.81C375.77 160.863 375.365 162.897 374.579 164.794C373.793 166.691 372.641 168.414 371.189 169.866C369.736 171.317 368.012 172.468 366.114 173.253C364.217 174.038 362.183 174.441 360.13 174.44H225.35C223.296 174.441 221.263 174.038 219.365 173.253C217.468 172.468 215.744 171.317 214.291 169.866C212.839 168.414 211.687 166.691 210.901 164.794C210.114 162.897 209.71 160.863 209.71 158.81V100.29C209.713 96.1428 211.361 92.1663 214.294 89.2338C217.226 86.3013 221.203 84.6527 225.35 84.65H360.13C364.278 84.65 368.256 86.2978 371.189 89.2309C374.122 92.1639 375.77 96.142 375.77 100.29Z" fill="white" stroke="#222221" stroke-width="1.10311" stroke-miterlimit="10"/>
<path d="M375.77 100.29V101.63H209.71V100.29C209.713 96.1428 211.361 92.1663 214.294 89.2338C217.226 86.3013 221.203 84.6527 225.35 84.65H360.13C364.278 84.65 368.256 86.2978 371.189 89.2308C374.122 92.1639 375.77 96.142 375.77 100.29Z" fill="#5AE4A8" stroke="#263238" stroke-width="1.10311" stroke-miterlimit="10"/>
<path d="M234.11 95.94C233.775 96.2762 233.347 96.5054 232.881 96.5985C232.416 96.6915 231.933 96.6444 231.494 96.4629C231.055 96.2814 230.68 95.9738 230.416 95.579C230.152 95.1842 230.011 94.7199 230.011 94.245C230.011 93.7701 230.152 93.3059 230.416 92.9111C230.68 92.5163 231.055 92.2086 231.494 92.0272C231.933 91.8457 232.416 91.7985 232.881 91.8916C233.347 91.9846 233.775 92.2138 234.11 92.55C234.556 93.0012 234.807 93.6103 234.807 94.245C234.807 94.8797 234.556 95.4888 234.11 95.94Z" fill="#263238"/>
<path d="M245.23 95.94C244.895 96.2762 244.467 96.5054 244.001 96.5985C243.535 96.6915 243.053 96.6444 242.614 96.4629C242.175 96.2814 241.8 95.9738 241.536 95.579C241.272 95.1842 241.131 94.7199 241.131 94.245C241.131 93.7701 241.272 93.3059 241.536 92.9111C241.8 92.5163 242.175 92.2086 242.614 92.0272C243.053 91.8457 243.535 91.7985 244.001 91.8916C244.467 91.9846 244.895 92.2138 245.23 92.55C245.676 93.0012 245.927 93.6103 245.927 94.245C245.927 94.8797 245.676 95.4888 245.23 95.94Z" fill="#263238"/>
<path d="M256.35 95.94C256.015 96.2762 255.587 96.5054 255.121 96.5985C254.656 96.6915 254.173 96.6444 253.734 96.4629C253.295 96.2814 252.92 95.9738 252.656 95.579C252.392 95.1842 252.251 94.7199 252.251 94.245C252.251 93.7701 252.392 93.3059 252.656 92.9111C252.92 92.5163 253.295 92.2086 253.734 92.0272C254.173 91.8457 254.656 91.7985 255.121 91.8916C255.587 91.9846 256.015 92.2138 256.35 92.55C256.796 93.0012 257.047 93.6103 257.047 94.245C257.047 94.8797 256.796 95.4888 256.35 95.94Z" fill="#263238"/>
<path d="M274.58 112.39H220.3V159.31H274.58V112.39Z" stroke="#263238" stroke-width="1.10311" stroke-linecap="round" stroke-linejoin="round" stroke-dasharray="4.41 4.41"/>
<path d="M345.43 112.39H282.96V115.69H345.43V112.39Z" fill="#263238"/>
<path d="M330.88 119.22H282.96V122.51H330.88V119.22Z" fill="#263238"/>
<path d="M354.31 126.02H282.96V129.35H354.31V126.02Z" fill="#263238"/>
<path d="M343.72 132.65H282.96V135.98H343.72V132.65Z" fill="#263238"/>
<path d="M380.31 245.53H349.76C346.154 245.53 343.23 248.454 343.23 252.06V269.99C343.23 273.596 346.154 276.52 349.76 276.52H380.31C383.917 276.52 386.84 273.596 386.84 269.99V252.06C386.84 248.454 383.917 245.53 380.31 245.53Z" fill="white" stroke="#263238" stroke-width="1.10311" stroke-linecap="round" stroke-linejoin="round"/>
<path d="M357.3 254.85L348.91 260.11L356.7 267.01" stroke="#263238" stroke-width="1.10311" stroke-linecap="round" stroke-linejoin="round"/>
<path d="M372.58 267.51L380.12 261.09L371.42 255.39" stroke="#263238" stroke-width="1.10311" stroke-linecap="round" stroke-linejoin="round"/>
<path d="M361.38 271.47L367.57 252.05" stroke="#263238" stroke-width="1.10311" stroke-linecap="round" stroke-linejoin="round"/>
<path d="M296.86 440.47C296.86 440.47 267.86 448.78 263.81 450.22C260.13 451.52 250.15 455.02 242.66 453.93C241.937 453.826 241.222 453.673 240.52 453.47C232.93 451.21 229.52 449.1 228.52 444.33C227.52 439.56 231.3 436.04 234.94 433.79C238.58 431.54 258.32 429.19 258.32 429.19L263.09 430.59L296.86 440.47Z" fill="#5AE4A8"/>
<path d="M242.66 453.93C241.937 453.826 241.222 453.672 240.52 453.47C232.93 451.21 229.52 449.1 228.52 444.33C227.52 439.56 231.3 436.04 234.94 433.79C238.58 431.54 258.32 429.19 258.32 429.19L263.09 430.59C258.77 432.59 242.69 433.68 239.18 435.7C235.67 437.72 233.98 441.52 236.05 446.7C237.16 449.4 240.12 452.05 242.66 453.93Z" fill="white"/>
<path d="M292.5 441.65C292.5 441.65 270.72 447.29 262.08 450.9C253.44 454.51 236.97 456.09 231.08 448.65C225.19 441.21 230.4 434.79 236.27 433.36C242.14 431.93 254.01 429.68 260.49 430.59" stroke="#263238" stroke-width="1.10311" stroke-linecap="round" stroke-linejoin="round"/>
<path d="M243.09 453.54C243.09 453.54 232.01 447.46 235.69 438.94C238.41 432.66 253.19 434.02 260.51 430.59" stroke="#263238" stroke-width="1.10311" stroke-linecap="round" stroke-linejoin="round"/>
<path d="M385.19 455.28C384.89 458.28 383.84 461.09 380.84 462.86C378.84 464.04 376 464.74 371.93 464.7C361.76 464.57 342.64 457.3 342.64 457.3L324.74 447.4L334.05 432.67L336.6 428.67L343.18 430.15C343.18 430.15 348.63 433.24 354.11 435.7C359.59 438.16 372.9 438.7 377.59 442.47C382.28 446.24 385.7 450.34 385.19 455.28Z" fill="#5AE4A8"/>
<path d="M385.19 455.28C384.89 458.28 383.84 461.09 380.84 462.86C381.704 459.911 381.527 456.754 380.34 453.92C378.34 449.43 371.83 445.47 363.27 444.81C354.71 444.15 348.16 440.15 344.73 438.36C342.05 436.97 336.4 433.93 334.05 432.67L336.6 428.67L343.18 430.15C343.18 430.15 348.63 433.24 354.11 435.7C359.59 438.16 372.9 438.7 377.59 442.47C382.28 446.24 385.7 450.34 385.19 455.28Z" fill="white"/>
<path d="M328.71 450.18C341.595 457.67 355.835 462.533 370.61 464.49C373.87 464.88 377.66 464.94 379.84 462.49C380.42 461.782 380.852 460.965 381.109 460.087C381.367 459.209 381.445 458.289 381.34 457.38C380.95 452.78 377.08 449.14 372.84 447.31C368.6 445.48 363.93 445.06 359.42 444.05C354.935 443.039 350.599 441.453 346.52 439.33C343.28 437.64 340.15 435.59 336.58 434.83C333.01 434.07 328.76 434.99 326.85 438.11" stroke="#263238" stroke-width="1.10311" stroke-linecap="round" stroke-linejoin="round"/>
<path d="M378.64 463.74C380.316 462.938 381.781 461.755 382.918 460.286C384.055 458.817 384.833 457.103 385.19 455.28C385.84 450.95 383.37 446.59 379.9 443.93C376.43 441.27 372.08 440.01 367.79 439.12C363.5 438.23 359.11 437.63 355 436C348.73 433.54 342.54 428.7 336 430.43" stroke="#263238" stroke-width="1.10311" stroke-linecap="round" stroke-linejoin="round"/>
<path d="M348.91 295.26L318.62 283.74L318.24 283.59C318.24 283.59 318.35 282.79 318.44 281.59C318.63 279.17 318.73 275.23 317.59 273.9C315.9 271.9 311.12 273.58 306.45 271.44C301.78 269.3 293.15 273.13 293.15 273.13C293.15 273.13 286.91 271.98 284.15 276.48C282.75 280.11 283.23 285.48 283.23 285.48L282.66 285.68C279.05 287.03 259.41 294.42 255.26 297.39C250.67 300.64 245.59 334.01 243.96 343.81C242.33 353.61 239.43 362.44 240.9 365.81C242.37 369.18 263.47 385.43 275.61 389.62C287.75 393.81 330.8 392.62 330.8 392.62C330.8 392.62 331.5 392.43 332.75 392.03C340.03 389.69 365.86 380.03 379.57 357.35C379.59 357.39 366.31 313.86 348.91 295.26ZM267.07 351.39C264.84 352.97 266.07 359.09 266.07 359.09L262.28 355.75L271.8 332.34L275.86 350.34C275.86 350.34 269.3 349.82 267.07 351.39ZM343.23 366.26C342.18 366.8 346.23 355.55 344.31 353C342.39 350.45 336.6 350.69 336.6 350.69L337.09 347.62L340.52 330.02L341.66 328.67C341.66 328.67 353.44 348.86 355.55 355.98C355.55 356 342.71 366.26 343.23 366.26Z" fill="#5AE4A8"/>
<path d="M291.72 222.25L276.08 238.85C276.08 238.85 273.93 240.76 274.78 245.57C275.63 250.38 277.63 254.57 279.14 254.85C280.335 255.059 281.546 255.166 282.76 255.17C282.76 255.17 286.11 262.43 288.49 265.28C288.49 265.28 289.31 276.49 288.87 279.6C288.87 279.6 294.49 284.51 299.78 285.13C305.07 285.75 313.24 277.65 313.24 277.65L315.24 267.73C315.24 267.73 320.04 260.45 320.36 258.51C320.68 256.57 322.88 257.07 323.96 256.11C325.04 255.15 327.53 250.88 327.96 246.84C328.39 242.8 328.4 238.16 323.71 239.52C319.64 238.43 322.19 229.83 322.19 229.83L315.04 223.53L291.72 222.25Z" fill="white"/>
<path opacity="0.5" d="M318.62 283.74C318.384 284.358 318.114 284.962 317.81 285.55C315.23 290.41 303.99 299.68 303.99 299.68L300.59 289.23L298.73 299.68C294.98 298.04 283.54 288.13 283.54 288.13C283.54 288.13 283.15 287.2 282.68 285.75L283.25 285.55C283.25 285.55 282.77 280.14 284.17 276.55C286.91 272.05 293.17 273.2 293.17 273.2C293.17 273.2 301.8 269.37 306.47 271.51C311.14 273.65 315.92 271.99 317.61 273.97C319.3 275.95 318.26 283.63 318.26 283.63L318.62 283.74Z" fill="white"/>
<path opacity="0.2" d="M348.91 295.26L318.62 283.74L318.24 283.59C318.24 283.59 318.35 282.79 318.44 281.59L317.81 285.52L313.33 291.6C318.119 293.363 322.795 295.42 327.33 297.76C329.501 298.923 331.273 300.712 332.414 302.895C333.555 305.078 334.014 307.553 333.73 310L328.15 357.75L325.86 384.86L332.77 392.03C340.05 389.69 365.88 380.03 379.59 357.35C379.59 357.39 366.31 313.86 348.91 295.26ZM343.23 366.26C342.18 366.8 346.23 355.55 344.31 353C342.39 350.45 336.6 350.69 336.6 350.69L337.09 347.62L340.52 330.02L341.66 328.67C341.66 328.67 353.44 348.86 355.55 355.98C355.55 356 342.71 366.26 343.23 366.26Z" fill="black"/>
<path opacity="0.2" d="M277.87 353L273.16 337.26C273.16 337.26 264.71 308.45 258.92 301.35L260.44 321.61C260.44 321.61 255.44 345.81 250.87 353C246.3 360.19 245.28 362 250.87 362C256.46 362 270.07 372.84 270.07 372.84L269.02 363.84L277.87 353ZM266 359.09L262.21 355.75L271.73 332.34L275.79 350.34C275.79 350.34 269.27 349.85 267.04 351.42C264.81 352.99 266 359.09 266 359.09Z" fill="black"/>
<path d="M288.49 265.28C288.49 265.28 289.35 273.77 288.49 277.65" stroke="#263238" stroke-width="1.10311" stroke-linecap="round" stroke-linejoin="round"/>
<path d="M314.11 276.51C314.119 273.78 314.435 271.06 315.05 268.4" stroke="#263238" stroke-width="1.10311" stroke-linecap="round" stroke-linejoin="round"/>
<path d="M316.38 228.58C316.38 228.58 321.52 235.03 321.25 239.91C320.98 244.79 320.6 250.57 320.73 256.23C320.86 261.89 311.64 273.75 306.9 274.8C302.16 275.85 298.08 276.12 295.05 273.09C292.02 270.06 288.99 265.85 285.05 260.45C281.11 255.05 282.05 243.2 282.05 243.2" stroke="#263238" stroke-width="1.10311" stroke-linecap="round" stroke-linejoin="round"/>
<path d="M304 247.71C303.687 249.482 303.553 251.281 303.6 253.08C303.497 254.596 303.968 256.095 304.92 257.28C305.49 257.86 306.31 258.33 306.42 259.13C306.417 259.49 306.317 259.843 306.131 260.151C305.944 260.459 305.678 260.711 305.36 260.88C304.719 261.204 304.101 261.571 303.51 261.98" stroke="#263238" stroke-width="1.10311" stroke-linecap="round" stroke-linejoin="round"/>
<path d="M295.87 262.6C295.87 262.6 296.46 266.43 301.59 267.23" stroke="#263238" stroke-width="1.10311" stroke-linecap="round" stroke-linejoin="round"/>
<path d="M296.4 250.63C296.4 251.74 295.92 252.63 295.33 252.63C294.74 252.63 294.26 251.74 294.26 250.63C294.26 249.52 294.74 248.63 295.33 248.63C295.92 248.63 296.4 249.53 296.4 250.63Z" fill="#263238"/>
<path d="M311.71 251.11C311.71 252.22 311.23 253.11 310.64 253.11C310.05 253.11 309.57 252.21 309.57 251.11C309.57 250.01 310.05 249.11 310.64 249.11C311.23 249.11 311.71 250 311.71 251.11Z" fill="#263238"/>
<path d="M308.62 246.26C308.62 246.26 313.62 241.26 317.81 246.84" stroke="#263238" stroke-width="2.20621" stroke-linecap="round" stroke-linejoin="round"/>
<path d="M298.09 246.36C298.09 246.36 294.93 242.82 289.95 246.36" stroke="#263238" stroke-width="2.20621" stroke-linecap="round" stroke-linejoin="round"/>
<path d="M288.87 270C288.87 270 291.92 278.4 298.73 280.79C305.54 283.18 314.58 270.79 314.58 270.79L314.11 269.18C314.11 269.18 308.18 276.88 301.59 275.57C295 274.26 288.49 265.32 288.49 265.32L288.87 270Z" fill="#263238"/>
<path d="M282.76 254.85C282.76 254.85 278.7 256.28 277.62 253.12C276.54 249.96 272.84 241.63 276.08 238.85C279.32 236.07 281.92 242.52 281.92 242.52" stroke="#263238" stroke-width="1.10311" stroke-linecap="round" stroke-linejoin="round"/>
<path d="M320.72 256.57C320.72 256.57 324.49 257.33 325.57 254.17C326.65 251.01 330.35 242.68 327.11 239.9C323.87 237.12 321.27 243.57 321.27 243.57" stroke="#263238" stroke-width="1.10311" stroke-linecap="round" stroke-linejoin="round"/>
<path d="M281.92 250.63C283.33 250.408 284.603 249.657 285.48 248.53C286.016 247.541 286.355 246.458 286.48 245.34C286.851 243.213 287.039 241.059 287.04 238.9C286.996 238.057 287.073 237.211 287.27 236.39C287.57 235.563 288.033 234.805 288.63 234.16C290.04 232.5 291.75 231.1 293.1 229.38C293.824 228.568 294.374 227.618 294.718 226.586C295.062 225.554 295.192 224.463 295.1 223.38C298.194 225.931 301.809 227.773 305.691 228.777C309.573 229.78 313.628 229.921 317.57 229.19C324.72 227.79 331.57 221.52 330.74 213.64C330.583 212.319 330.017 211.08 329.12 210.097C328.223 209.114 327.041 208.437 325.74 208.16C322.21 207.28 319.04 209.16 315.84 210.37C310.01 212.57 304.3 208.79 298.41 208.16C293.41 207.61 287.18 208.24 284.56 213.25C284.56 213.25 275.56 214.31 271.56 221.75C267.56 229.19 275.13 239.48 275.13 239.48C275.13 239.48 278.13 235.8 282.06 243.24L281.92 250.63Z" fill="#263238"/>
<path d="M317 226.68C317 226.68 314.66 238.88 320.77 244.79C320.77 244.79 322.11 241.12 323.46 240.22C324.433 238.055 324.846 235.679 324.659 233.313C324.472 230.947 323.691 228.665 322.39 226.68C317.87 219.58 317 226.68 317 226.68Z" fill="#263238"/>
<path opacity="0.2" d="M328.14 212.8C327.604 214.465 326.694 215.985 325.481 217.245C324.268 218.504 322.783 219.471 321.14 220.07C312.66 223.53 304.43 219.7 295.93 218.95C289 218.33 281.35 224.59 280.86 231.71" stroke="white" stroke-width="1.10311" stroke-linecap="round" stroke-linejoin="round"/>
<path opacity="0.2" d="M275.63 229.83C275.734 227.02 276.635 224.298 278.229 221.982C279.823 219.666 282.043 217.851 284.63 216.75" stroke="white" stroke-width="1.10311" stroke-linecap="round" stroke-linejoin="round"/>
<path d="M286.53 276.51C290.259 280.396 294.758 283.462 299.74 285.51C299.74 285.51 309.89 282.56 315.05 275.51" stroke="#263238" stroke-width="1.10311" stroke-linecap="round" stroke-linejoin="round"/>
<path d="M296.902 258.771C301.41 256.704 303.388 251.373 301.321 246.866C299.253 242.358 293.923 240.38 289.415 242.447C284.907 244.515 282.929 249.845 284.996 254.353C287.064 258.861 292.395 260.839 296.902 258.771Z" stroke="#263238" stroke-width="1.10311" stroke-linecap="round" stroke-linejoin="round"/>
<path d="M314.304 259.561C319.226 258.957 322.726 254.477 322.122 249.554C321.518 244.632 317.037 241.131 312.115 241.736C307.192 242.34 303.692 246.82 304.296 251.743C304.901 256.665 309.381 260.166 314.304 259.561Z" stroke="#263238" stroke-width="1.10311" stroke-linecap="round" stroke-linejoin="round"/>
<path d="M288.49 273.16C287.58 273.399 286.728 273.819 285.984 274.394C285.24 274.97 284.62 275.689 284.16 276.51C282.57 279.31 283.53 288.12 283.53 288.12C283.53 288.12 291.74 296.24 298.73 299.67L300.79 288.08L303.99 299.67C303.99 299.67 314.81 292.02 317.81 285.55C317.81 285.55 318.81 278 317.81 275.55C317.583 274.869 317.15 274.276 316.571 273.852C315.993 273.427 315.297 273.193 314.58 273.18" stroke="#263238" stroke-width="1.10311" stroke-linecap="round" stroke-linejoin="round"/>
<path d="M275.63 350.7C275.63 350.7 272.42 329.2 268.15 320.43" stroke="#263238" stroke-width="1.10311" stroke-linecap="round" stroke-linejoin="round"/>
<path d="M258.92 301.35C261.406 304.883 263.626 308.597 265.56 312.46" stroke="#263238" stroke-width="1.10311" stroke-linecap="round" stroke-linejoin="round"/>
<path d="M343.23 317.4C344.092 313.805 345.274 310.295 346.76 306.91" stroke="#263238" stroke-width="1.10311" stroke-linecap="round" stroke-linejoin="round"/>
<path d="M336.6 350.7C336.6 350.7 338.91 335.96 341.67 323.82" stroke="#263238" stroke-width="1.10311" stroke-linecap="round" stroke-linejoin="round"/>
<path d="M340.52 330C342.753 327.04 345.892 324.89 349.46 323.88" stroke="#263238" stroke-width="1.10311" stroke-linecap="round" stroke-linejoin="round"/>
<path d="M318.25 283.59C318.25 283.59 336.88 291.04 348.91 295.27C348.91 295.27 363.71 309.18 379.58 357.39C379.58 357.39 365.04 381.85 337.38 389.69" stroke="#263238" stroke-width="1.10311" stroke-linecap="round" stroke-linejoin="round"/>
<path d="M342.18 367.13L355.55 356C355.55 356 362.62 350.63 369.97 354.3" stroke="#263238" stroke-width="1.10311" stroke-linecap="round" stroke-linejoin="round"/>
<path d="M341.67 328.67C341.67 328.67 352.72 345 355.55 356" stroke="#263238" stroke-width="1.10311" stroke-linecap="round" stroke-linejoin="round"/>
<path d="M266.15 359.71L262.24 356C262.24 356 256.44 355 249.86 359.39" stroke="#263238" stroke-width="1.10311" stroke-linecap="round" stroke-linejoin="round"/>
<path d="M262.24 356C262.24 356 267.1 340 271.89 331.81" stroke="#263238" stroke-width="1.10311" stroke-linecap="round" stroke-linejoin="round"/>
<path d="M283.25 285.55C283.25 285.55 256.44 295.61 253.81 298.55C251.18 301.49 241.19 357.74 240.92 364.18C240.69 369.94 261.57 382.87 271.92 388.32" stroke="#263238" stroke-width="1.10311" stroke-linecap="round" stroke-linejoin="round"/>
<path d="M303.3 304.56C303.3 304.91 303.196 305.252 303.002 305.543C302.807 305.834 302.531 306.061 302.207 306.195C301.884 306.329 301.528 306.364 301.185 306.296C300.841 306.228 300.526 306.059 300.278 305.812C300.031 305.564 299.862 305.249 299.794 304.905C299.726 304.562 299.761 304.206 299.895 303.883C300.029 303.559 300.256 303.283 300.547 303.088C300.838 302.894 301.18 302.79 301.53 302.79C301.763 302.789 301.994 302.834 302.209 302.922C302.424 303.01 302.62 303.141 302.785 303.305C302.949 303.47 303.079 303.666 303.168 303.881C303.256 304.096 303.301 304.327 303.3 304.56Z" fill="#263238"/>
<path d="M334.32 398.78H273.32C272.941 398.78 272.577 398.629 272.309 398.361C272.041 398.093 271.89 397.729 271.89 397.35C271.89 396.971 272.041 396.607 272.309 396.339C272.577 396.071 272.941 395.92 273.32 395.92H334.32C334.699 395.92 335.063 396.071 335.331 396.339C335.599 396.607 335.75 396.971 335.75 397.35C335.75 397.729 335.599 398.093 335.331 398.361C335.063 398.629 334.699 398.78 334.32 398.78Z" fill="#263238"/>
<path d="M336.46 394L344.63 355.6C344.757 355.005 344.749 354.388 344.606 353.796C344.464 353.205 344.191 352.652 343.808 352.179C343.424 351.707 342.94 351.326 342.39 351.065C341.84 350.803 341.239 350.669 340.63 350.67H269.33C268.726 350.67 268.13 350.804 267.585 351.062C267.039 351.321 266.558 351.697 266.175 352.164C265.793 352.63 265.518 353.176 265.372 353.762C265.226 354.347 265.212 354.958 265.33 355.55L272.66 392.67C272.84 393.582 273.325 394.405 274.036 395.003C274.747 395.601 275.641 395.939 276.57 395.96L332.36 397.24C333.313 397.261 334.245 396.949 334.993 396.358C335.741 395.766 336.26 394.933 336.46 394Z" fill="white" stroke="#263238" stroke-width="1.10311" stroke-linecap="round" stroke-linejoin="round"/>
<path d="M310.44 372.83C310.438 373.955 310.103 375.054 309.476 375.988C308.85 376.923 307.96 377.651 306.921 378.08C305.881 378.509 304.737 378.62 303.634 378.399C302.531 378.179 301.518 377.636 300.723 376.84C299.928 376.044 299.387 375.03 299.169 373.926C298.95 372.823 299.063 371.679 299.494 370.64C299.925 369.601 300.654 368.713 301.59 368.088C302.525 367.464 303.625 367.13 304.75 367.13C305.498 367.13 306.239 367.278 306.93 367.564C307.621 367.851 308.248 368.271 308.777 368.8C309.305 369.33 309.724 369.958 310.01 370.65C310.295 371.341 310.441 372.082 310.44 372.83Z" fill="#263238"/>
<path d="M321.63 354.34H330.1" stroke="#263238" stroke-width="1.10311" stroke-linecap="round" stroke-linejoin="round"/>
<path d="M281.18 354.34H313.33" stroke="#263238" stroke-width="1.10311" stroke-linecap="round" stroke-linejoin="round"/>
<path d="M336.6 434.77L330.1 451.83C330.1 451.83 313.52 447.65 292.29 443.3C270.08 438.75 246.89 432.86 234.86 411.75C233.4 409.18 232.42 406.14 233.11 403.26C234.84 395.97 244.33 393.99 250.58 393.26C254.509 392.835 258.458 392.614 262.41 392.6C264.41 392.6 271.06 391.51 272.67 392.7C275.089 394.464 277.671 395.995 280.38 397.27C283.93 398.78 335.75 395.92 335.75 395.92C336.652 393.954 337.203 391.845 337.38 389.69C345.53 385.55 364.38 382.05 372.38 383.6C384.91 386.03 392.22 393.34 390.83 401C389.44 408.66 361.76 429.2 336.6 434.77Z" fill="#263238"/>
<path d="M336.6 434.77C336.6 434.77 320.83 430.59 307.95 421.89C295.07 413.19 285.01 403.09 267.06 405.18" stroke="white" stroke-width="1.10311" stroke-linecap="round" stroke-linejoin="round"/>
<path d="M305 419.84C313.14 417.5 319.11 412.23 325.64 407.18C332.528 401.652 339.924 396.79 347.73 392.66" stroke="white" stroke-width="1.10311" stroke-linecap="round" stroke-linejoin="round"/>
<path d="M302.13 252.05H304.52" stroke="#263238" stroke-width="1.10311" stroke-linecap="round" stroke-linejoin="round"/>
</svg>
