<svg width="167" height="28" viewBox="0 0 167 28" fill="none" xmlns="http://www.w3.org/2000/svg">
<path d="M0.592 1.224H5.38L13.264 14.868H13.552L21.436 1.224H26.26V27H21.436V14.292L21.724 9.972H21.436L14.884 21.528H11.968L5.38 9.972H5.092L5.38 14.292V27H0.592V1.224ZM42.7356 24.696H42.4476C41.8956 25.584 41.1516 26.292 40.2156 26.82C39.2796 27.324 38.2116 27.576 37.0116 27.576C34.7796 27.576 33.1116 26.892 32.0076 25.524C30.9276 24.156 30.3876 22.332 30.3876 20.052V9.36H35.1036V19.476C35.1036 20.748 35.3796 21.696 35.9316 22.32C36.5076 22.92 37.3356 23.22 38.4156 23.22C39.0636 23.22 39.6276 23.088 40.1076 22.824C40.6116 22.536 41.0316 22.164 41.3676 21.708C41.7276 21.228 41.9916 20.676 42.1596 20.052C42.3516 19.404 42.4476 18.72 42.4476 18V9.36H47.1636V27H42.7356V24.696ZM51.2035 27V1.224H55.9195V27H51.2035ZM62.0772 13.392H58.9812V9.36H62.0772V3.96H66.7932V9.36H71.1132V13.392H66.7932V20.232C66.7932 20.64 66.8292 21.024 66.9012 21.384C66.9972 21.72 67.1652 22.008 67.4052 22.248C67.7412 22.632 68.2212 22.824 68.8452 22.824C69.2532 22.824 69.5772 22.788 69.8172 22.716C70.0572 22.62 70.2852 22.5 70.5012 22.356L71.8332 26.496C71.2812 26.76 70.6812 26.952 70.0332 27.072C69.4092 27.216 68.7132 27.288 67.9452 27.288C67.0572 27.288 66.2532 27.156 65.5332 26.892C64.8372 26.604 64.2492 26.22 63.7692 25.74C62.6412 24.66 62.0772 23.124 62.0772 21.132V13.392ZM77.3862 6.804C76.9782 6.804 76.5822 6.732 76.1982 6.588C75.8382 6.42 75.5142 6.204 75.2262 5.94C74.9622 5.652 74.7462 5.328 74.5782 4.968C74.4342 4.608 74.3622 4.212 74.3622 3.78C74.3622 3.348 74.4342 2.952 74.5782 2.592C74.7462 2.232 74.9622 1.92 75.2262 1.656C75.5142 1.368 75.8382 1.152 76.1982 1.008C76.5822 0.839998 76.9782 0.755999 77.3862 0.755999C78.2262 0.755999 78.9462 1.056 79.5462 1.656C80.1462 2.232 80.4462 2.94 80.4462 3.78C80.4462 4.62 80.1462 5.34 79.5462 5.94C78.9462 6.516 78.2262 6.804 77.3862 6.804ZM75.0462 27V9.36H79.7622V27H75.0462Z" fill="#47B785"/>
<path d="M91.0586 27.576C89.9066 27.576 88.8746 27.432 87.9626 27.144C87.0746 26.856 86.2946 26.484 85.6226 26.028C84.9746 25.548 84.4226 25.008 83.9666 24.408C83.5106 23.784 83.1626 23.16 82.9226 22.536L87.1346 20.736C87.5426 21.648 88.0826 22.332 88.7546 22.788C89.4506 23.22 90.2186 23.436 91.0586 23.436C91.9226 23.436 92.6066 23.28 93.1106 22.968C93.6146 22.656 93.8666 22.284 93.8666 21.852C93.8666 21.372 93.6506 20.988 93.2186 20.7C92.8106 20.388 92.0906 20.112 91.0586 19.872L88.5746 19.332C88.0226 19.212 87.4466 19.02 86.8466 18.756C86.2706 18.492 85.7426 18.156 85.2626 17.748C84.7826 17.34 84.3866 16.848 84.0746 16.272C83.7626 15.696 83.6066 15.024 83.6066 14.256C83.6066 13.392 83.7866 12.624 84.1466 11.952C84.5306 11.28 85.0466 10.716 85.6946 10.26C86.3426 9.78 87.0986 9.42 87.9626 9.18C88.8506 8.916 89.7986 8.784 90.8066 8.784C92.4866 8.784 93.9866 9.12 95.3066 9.792C96.6266 10.44 97.5986 11.484 98.2226 12.924L94.1546 14.58C93.8186 13.884 93.3266 13.38 92.6786 13.068C92.0306 12.756 91.3826 12.6 90.7346 12.6C90.0626 12.6 89.4746 12.744 88.9706 13.032C88.4666 13.296 88.2146 13.644 88.2146 14.076C88.2146 14.484 88.4186 14.808 88.8266 15.048C89.2586 15.288 89.8346 15.504 90.5546 15.696L93.2546 16.344C95.0546 16.776 96.3866 17.472 97.2506 18.432C98.1386 19.368 98.5826 20.484 98.5826 21.78C98.5826 22.548 98.4026 23.28 98.0426 23.976C97.6826 24.672 97.1666 25.296 96.4946 25.848C95.8466 26.376 95.0546 26.796 94.1186 27.108C93.2066 27.42 92.1866 27.576 91.0586 27.576ZM103.245 13.392H100.149V9.36H103.245V3.96H107.961V9.36H112.281V13.392H107.961V20.232C107.961 20.64 107.997 21.024 108.069 21.384C108.165 21.72 108.333 22.008 108.573 22.248C108.909 22.632 109.389 22.824 110.013 22.824C110.421 22.824 110.745 22.788 110.985 22.716C111.225 22.62 111.453 22.5 111.669 22.356L113.001 26.496C112.449 26.76 111.849 26.952 111.201 27.072C110.577 27.216 109.881 27.288 109.113 27.288C108.225 27.288 107.421 27.156 106.701 26.892C106.005 26.604 105.417 26.22 104.937 25.74C103.809 24.66 103.245 23.124 103.245 21.132V13.392ZM123.927 8.784C125.295 8.784 126.543 9.024 127.671 9.504C128.823 9.96 129.807 10.608 130.623 11.448C131.463 12.264 132.111 13.248 132.567 14.4C133.047 15.552 133.287 16.812 133.287 18.18C133.287 19.548 133.047 20.808 132.567 21.96C132.111 23.112 131.463 24.108 130.623 24.948C129.807 25.764 128.823 26.412 127.671 26.892C126.543 27.348 125.295 27.576 123.927 27.576C122.559 27.576 121.299 27.348 120.147 26.892C119.019 26.412 118.035 25.764 117.195 24.948C116.379 24.108 115.731 23.112 115.251 21.96C114.795 20.808 114.567 19.548 114.567 18.18C114.567 16.812 114.795 15.552 115.251 14.4C115.731 13.248 116.379 12.264 117.195 11.448C118.035 10.608 119.019 9.96 120.147 9.504C121.299 9.024 122.559 8.784 123.927 8.784ZM123.927 23.22C124.527 23.22 125.103 23.112 125.655 22.896C126.231 22.656 126.735 22.32 127.167 21.888C127.599 21.456 127.935 20.928 128.175 20.304C128.439 19.68 128.571 18.972 128.571 18.18C128.571 17.388 128.439 16.68 128.175 16.056C127.935 15.432 127.599 14.904 127.167 14.472C126.735 14.04 126.231 13.716 125.655 13.5C125.103 13.26 124.527 13.14 123.927 13.14C123.303 13.14 122.715 13.26 122.163 13.5C121.611 13.716 121.119 14.04 120.687 14.472C120.255 14.904 119.907 15.432 119.643 16.056C119.403 16.68 119.283 17.388 119.283 18.18C119.283 18.972 119.403 19.68 119.643 20.304C119.907 20.928 120.255 21.456 120.687 21.888C121.119 22.32 121.611 22.656 122.163 22.896C122.715 23.112 123.303 23.22 123.927 23.22ZM135.965 9.36H140.393V11.808H140.681C140.897 11.376 141.185 10.98 141.545 10.62C141.905 10.26 142.301 9.948 142.733 9.684C143.189 9.42 143.669 9.216 144.173 9.072C144.701 8.928 145.217 8.856 145.721 8.856C146.345 8.856 146.873 8.916 147.305 9.036C147.761 9.156 148.145 9.312 148.457 9.504L147.197 13.788C146.909 13.644 146.585 13.536 146.225 13.464C145.889 13.368 145.469 13.32 144.965 13.32C144.317 13.32 143.729 13.452 143.201 13.716C142.673 13.956 142.217 14.304 141.833 14.76C141.473 15.216 141.185 15.756 140.969 16.38C140.777 16.98 140.681 17.64 140.681 18.36V27H135.965V9.36ZM166.24 22.752C165.424 24.192 164.32 25.356 162.928 26.244C161.56 27.132 159.88 27.576 157.888 27.576C156.544 27.576 155.296 27.348 154.144 26.892C153.016 26.412 152.032 25.752 151.192 24.912C150.352 24.072 149.692 23.088 149.212 21.96C148.756 20.808 148.528 19.548 148.528 18.18C148.528 16.908 148.756 15.708 149.212 14.58C149.668 13.428 150.304 12.432 151.12 11.592C151.936 10.728 152.896 10.044 154 9.54C155.128 9.036 156.364 8.784 157.708 8.784C159.124 8.784 160.384 9.024 161.488 9.504C162.592 9.96 163.516 10.608 164.26 11.448C165.004 12.264 165.568 13.236 165.952 14.364C166.336 15.492 166.528 16.716 166.528 18.036C166.528 18.204 166.528 18.348 166.528 18.468C166.504 18.612 166.492 18.744 166.492 18.864C166.468 18.984 166.456 19.116 166.456 19.26H153.172C153.268 19.98 153.46 20.604 153.748 21.132C154.06 21.636 154.432 22.068 154.864 22.428C155.32 22.764 155.812 23.016 156.34 23.184C156.868 23.328 157.408 23.4 157.96 23.4C159.04 23.4 159.928 23.16 160.624 22.68C161.344 22.176 161.908 21.552 162.316 20.808L166.24 22.752ZM161.956 15.912C161.932 15.6 161.824 15.252 161.632 14.868C161.464 14.484 161.2 14.124 160.84 13.788C160.504 13.452 160.072 13.176 159.544 12.96C159.04 12.744 158.428 12.636 157.708 12.636C156.7 12.636 155.812 12.924 155.044 13.5C154.276 14.076 153.736 14.88 153.424 15.912H161.956Z" fill="black"/>
</svg>
