<svg width="71" height="44" viewBox="0 0 71 44" fill="none" xmlns="http://www.w3.org/2000/svg">
<path d="M62.375 30C56.5 24.25 57.25 25.125 64.375 15.25C68.625 9.25 70.375 5.5 69.875 3.875C69.625 2.875 66.25 3.125 66.25 3.125H55.75C55.75 3.125 54.125 3.125 53.5 4.25C52.375 6.375 51.875 9 49.625 12.875C44.875 21.25 43 21.75 42.25 21.25C40.5 20 40.875 16.375 40.875 13.75C40.875 5.625 42 2.25 38.625 1.25C37.875 1 37.25 0.999998 36.125 0.874998C34.75 0.749998 33.375 0.75 32.125 0.75C29 0.75 26.625 0.874999 25 1.625C23.75 2.25 22.875 3.625 23.5 3.75C24.25 3.875 25.75 4.25 26.625 5.375C27.75 6.875 27.625 10.375 27.625 10.375C27.625 10.375 28.25 20 26.125 21.125C24.75 22 22.75 20.25 18.625 12.625C16.5 8.75 16.25 6.125 14.875 4.375C14 3.25 12.375 2.875 12.375 2.875H2.37499C2.37499 2.875 0.624993 2.75 0.374993 3.25C-0.125007 3.875 0.374993 5.125 0.374993 5.125C0.374993 5.125 8.24999 24.5 17.125 34.25C25 43.5 34.25 43 34.25 43C34.25 43 39.625 43.25 40.375 41.875C40.875 41.375 41 39.875 41 39.875C41 39.875 40.875 33.875 43.5 33C46.125 32.125 49.375 38.75 52.875 41.25C55.5 43.25 56.25 43 57.5 43C60 43 66.875 43 66.875 43C66.875 43 71.75 42.5 69.5 38.375C69.125 38.125 68 35.5 62.375 30Z" fill="#47B785"/>
</svg>
