<svg width="80" height="80" viewBox="0 0 80 80" fill="none" xmlns="http://www.w3.org/2000/svg">
<path d="M39.7884 23.5625C29.9118 23.5625 21.7284 31.6048 21.7284 41.6225C21.7284 51.6401 29.7707 59.6824 39.7884 59.6824C49.806 59.6824 57.8483 51.499 57.8483 41.6225C57.8483 31.7459 49.6649 23.5625 39.7884 23.5625ZM39.7884 53.1921C33.4392 53.1921 28.2187 47.9717 28.2187 41.6225C28.2187 35.2733 33.4392 30.0528 39.7884 30.0528C46.1376 30.0528 51.358 35.2733 51.358 41.6225C51.358 47.9717 46.1376 53.1921 39.7884 53.1921Z" fill="#47B785"/>
<path d="M58.5538 27.2308C60.8136 27.2308 62.6455 25.3989 62.6455 23.1391C62.6455 20.8793 60.8136 19.0474 58.5538 19.0474C56.294 19.0474 54.4621 20.8793 54.4621 23.1391C54.4621 25.3989 56.294 27.2308 58.5538 27.2308Z" fill="#47B785"/>
<path d="M69.1358 12.5573C65.4674 8.74777 60.2469 6.77246 54.321 6.77246H25.2557C12.9806 6.77246 4.79718 14.9559 4.79718 27.231V56.1552C4.79718 62.2222 6.77249 67.4427 10.7231 71.2522C14.5326 74.9206 19.612 76.7548 25.3968 76.7548H54.1799C60.2469 76.7548 65.3263 74.7795 68.9947 71.2522C72.8042 67.5838 74.7795 62.3633 74.7795 56.2963V27.231C74.7795 21.3051 72.8042 16.2257 69.1358 12.5573ZM68.5714 56.2963C68.5714 60.6702 67.0194 64.1975 64.4797 66.5961C61.94 68.9947 58.4127 70.2645 54.1799 70.2645H25.3968C21.164 70.2645 17.6367 68.9947 15.097 66.5961C12.5573 64.0564 11.2875 60.5291 11.2875 56.1552V27.231C11.2875 22.9982 12.5573 19.4709 15.097 16.9312C17.4956 14.5326 21.164 13.2628 25.3968 13.2628H54.4621C58.6949 13.2628 62.2222 14.5326 64.7619 17.0723C67.1605 19.612 68.5714 23.1393 68.5714 27.231V56.2963Z" fill="#47B785"/>
</svg>
