<svg width="80" height="56" viewBox="0 0 80 56" fill="none" xmlns="http://www.w3.org/2000/svg">
<path d="M78.3286 8.74453C77.4088 5.30234 74.6981 2.59187 71.2559 1.67187C65.0166 -4.47035e-07 40 0 40 0C40 0 14.9833 -4.47035e-07 8.74391 1.67187C5.30234 2.59187 2.59125 5.30234 1.67141 8.74453C0 14.9833 0 28.0005 0 28.0005C0 28.0005 0 41.0173 1.67141 47.2555C2.59125 50.6977 5.30234 53.4089 8.74391 54.3287C14.9833 56 40 56 40 56C40 56 65.0166 56 71.2559 54.3287C74.6981 53.4089 77.4088 50.6977 78.3286 47.2555C79.9998 41.0173 79.9998 28.0005 79.9998 28.0005C79.9998 28.0005 79.9998 14.9833 78.3286 8.74453ZM31.9995 40.0006V16.0002L52.7838 28.0005L31.9995 40.0006Z" fill="#47B785"/>
</svg>
