<svg width="629" height="550" viewBox="0 0 629 550" fill="none" xmlns="http://www.w3.org/2000/svg">
<path d="M617 284.223C617 335.462 534.54 377 432.821 377C331.102 377 0 237.815 0 186.575C0 135.336 331.102 191.446 432.821 191.446C534.54 191.446 617 232.984 617 284.223Z" fill="#47B785" fill-opacity="0.3"/>
<path d="M354 470.316C471.791 470.316 567.279 464.741 567.279 457.864C567.279 450.987 471.791 445.412 354 445.412C236.209 445.412 140.721 450.987 140.721 457.864C140.721 464.741 236.209 470.316 354 470.316Z" fill="#F5F5F5"/>
<path d="M224.354 140.063C217.842 141.504 210.274 150.634 217.754 159.951C225.234 169.268 212.705 165.198 210.758 181.5C208.811 197.802 223.672 195.063 219.008 205.755C214.344 216.447 246.717 233.387 266.913 220.55C287.109 207.713 289.001 180.07 282.687 170.302C276.373 160.534 267.155 159.918 271.335 149.457C275.515 138.996 270.587 128.117 257.552 128.018C247.718 127.941 253.614 121.066 240.084 121.121C228.798 121.176 218.821 129.096 224.354 140.063Z" fill="#263238"/>
<path d="M260.555 153.692C259.92 153.692 259.299 153.88 258.771 154.233C258.243 154.586 257.831 155.088 257.588 155.675C257.345 156.262 257.281 156.908 257.405 157.531C257.529 158.154 257.835 158.726 258.284 159.175C258.733 159.624 259.306 159.93 259.929 160.054C260.552 160.178 261.198 160.115 261.784 159.871C262.371 159.628 262.873 159.217 263.226 158.688C263.579 158.16 263.767 157.539 263.767 156.904C263.769 156.482 263.687 156.063 263.526 155.673C263.365 155.283 263.128 154.928 262.83 154.63C262.531 154.331 262.177 154.094 261.786 153.934C261.396 153.773 260.977 153.691 260.555 153.692ZM260.555 159.357C260.067 159.357 259.591 159.212 259.185 158.941C258.78 158.67 258.464 158.284 258.278 157.833C258.092 157.382 258.043 156.887 258.139 156.408C258.235 155.93 258.471 155.491 258.817 155.147C259.163 154.803 259.603 154.569 260.081 154.475C260.56 154.381 261.056 154.432 261.506 154.62C261.956 154.808 262.34 155.125 262.609 155.532C262.879 155.939 263.021 156.416 263.019 156.904C263.019 157.227 262.955 157.547 262.831 157.845C262.708 158.144 262.526 158.415 262.297 158.642C262.068 158.87 261.796 159.051 261.497 159.173C261.198 159.296 260.878 159.358 260.555 159.357Z" fill="white"/>
<path d="M287.637 184.987C287.601 184.982 287.567 184.969 287.536 184.95C287.505 184.931 287.478 184.906 287.458 184.876C287.437 184.846 287.423 184.812 287.416 184.776C287.409 184.74 287.409 184.704 287.417 184.668C288.407 179.542 284.414 174.581 280.19 169.268C275.251 163.141 269.663 156.189 271.632 147.906C273.315 140.844 272.567 134.948 269.52 131.296C267.034 128.315 263.151 126.896 257.992 127.204C253.262 127.446 251.865 126.104 250.38 124.806C248.895 123.508 246.926 121.671 240.139 121.715C240.068 121.715 240 121.688 239.949 121.638C239.897 121.589 239.867 121.522 239.864 121.451C239.864 121.377 239.893 121.306 239.944 121.253C239.995 121.199 240.065 121.168 240.139 121.165H240.37C247.212 121.165 249.093 122.881 250.754 124.399C252.206 125.73 253.471 126.885 257.97 126.654C263.305 126.379 267.342 127.82 269.949 130.944C273.106 134.739 273.887 140.844 272.149 148.038C270.246 156.057 275.504 162.602 280.597 168.938C284.898 174.295 288.968 179.355 287.934 184.723C287.933 184.76 287.924 184.797 287.908 184.83C287.892 184.864 287.87 184.894 287.842 184.918C287.814 184.943 287.782 184.962 287.747 184.974C287.711 184.985 287.674 184.99 287.637 184.987Z" fill="#263238"/>
<path d="M313.498 163.966L312.024 166.848C311.747 167.382 311.603 167.974 311.603 168.575C311.603 169.176 311.747 169.768 312.024 170.302L314.631 175.362C315.145 176.36 315.891 177.22 316.806 177.871C317.721 178.522 318.778 178.944 319.889 179.102L321.275 179.3C324.069 174.691 323.684 167.651 323.684 167.651L323.794 165.638C323.83 165.224 323.784 164.808 323.658 164.412C323.531 164.016 323.328 163.65 323.058 163.334C322.789 163.017 322.46 162.758 322.09 162.57C321.719 162.382 321.315 162.269 320.901 162.239L316.908 161.964C316.207 161.934 315.513 162.107 314.908 162.462C314.303 162.817 313.813 163.339 313.498 163.966Z" fill="#FFC3BD"/>
<path d="M280.751 183.227C280.751 183.227 280.817 183.348 280.872 183.425L281.103 183.766L281.631 184.47C282.005 184.954 282.412 185.427 282.83 185.9C283.666 186.846 284.557 187.77 285.481 188.661C287.353 190.429 289.382 192.023 291.542 193.424C295.775 196.238 300.56 198.113 305.578 198.924L306.513 199.056L306.986 199.122C306.946 199.118 306.905 199.118 306.865 199.122C306.627 199.142 306.399 199.225 306.205 199.364C305.996 199.562 306.502 199.276 306.986 198.55C308.222 196.544 309.138 194.358 309.703 192.071C310.419 189.408 310.955 186.699 311.309 183.964C311.518 182.578 311.639 181.159 311.76 179.751C311.881 178.343 311.969 176.869 311.969 175.604L324.641 176.209C324.476 177.936 324.311 179.421 324.135 181.016C323.959 182.611 323.706 184.151 323.486 185.713C323.002 188.859 322.441 192.005 321.616 195.239C321.213 196.904 320.717 198.546 320.131 200.156C319.488 201.973 318.67 203.722 317.689 205.381C316.37 207.665 314.473 209.562 312.189 210.881C310.656 211.707 308.957 212.176 307.217 212.256C306.81 212.256 306.304 212.256 305.974 212.256H305.325L304.027 212.168C300.565 211.844 297.143 211.184 293.808 210.199C290.507 209.192 287.298 207.904 284.216 206.349C281.166 204.79 278.242 202.995 275.471 200.981C274.074 199.98 272.721 198.913 271.39 197.791C270.73 197.23 270.081 196.636 269.421 196.031L268.431 195.096L267.914 194.579C267.727 194.381 267.606 194.26 267.309 193.93L280.751 183.227Z" fill="#1B6343"/>
<path opacity="0.5" d="M280.751 183.227C280.751 183.227 280.817 183.348 280.872 183.425L281.103 183.766L281.631 184.47C282.005 184.954 282.412 185.427 282.83 185.9C283.666 186.846 284.557 187.77 285.481 188.661C287.353 190.429 289.382 192.023 291.542 193.424C295.775 196.238 300.56 198.113 305.578 198.924L306.513 199.056L306.986 199.122C306.946 199.118 306.905 199.118 306.865 199.122C306.627 199.142 306.399 199.225 306.205 199.364C305.996 199.562 306.502 199.276 306.986 198.55C308.222 196.544 309.138 194.358 309.703 192.071C310.419 189.408 310.955 186.699 311.309 183.964C311.518 182.578 311.639 181.159 311.76 179.751C311.881 178.343 311.969 176.869 311.969 175.604L324.641 176.209C324.476 177.936 324.311 179.421 324.135 181.016C323.959 182.611 323.706 184.151 323.486 185.713C323.002 188.859 322.441 192.005 321.616 195.239C321.213 196.904 320.717 198.546 320.131 200.156C319.488 201.973 318.67 203.722 317.689 205.381C316.37 207.665 314.473 209.562 312.189 210.881C310.656 211.707 308.957 212.176 307.217 212.256C306.81 212.256 306.304 212.256 305.974 212.256H305.325L304.027 212.168C300.565 211.844 297.143 211.184 293.808 210.199C290.507 209.192 287.298 207.904 284.216 206.349C281.166 204.79 278.242 202.995 275.471 200.981C274.074 199.98 272.721 198.913 271.39 197.791C270.73 197.23 270.081 196.636 269.421 196.031L268.431 195.096L267.914 194.579C267.727 194.381 267.606 194.26 267.309 193.93L280.751 183.227Z" fill="white"/>
<path d="M254.351 449.086C252.745 445.5 253.856 430.386 254.076 427.933C251.293 426.47 241.723 428.263 241.723 428.263C241.723 428.263 244.396 444.136 242.823 449.086C246.486 451.132 254.351 449.086 254.351 449.086Z" fill="#FFC3BD"/>
<path d="M372.436 434.61C369.422 432.091 363.086 418.308 362.195 415.987C359.049 415.91 351.954 421.487 351.954 421.487C351.954 421.487 361.326 434.566 362.063 439.725C366.276 439.901 372.436 434.61 372.436 434.61Z" fill="#FFC3BD"/>
<path d="M264.141 457.853C256.1 457.853 254.725 457.732 250.204 457.578C246.332 457.435 245.408 457.919 242.295 457.853C239.699 457.798 239.798 455.312 240.59 452.441C240.876 451.429 241.272 450.241 241.69 448.811C241.845 448.269 242.173 447.792 242.623 447.452C243.074 447.113 243.623 446.93 244.187 446.93H252.987C253.386 446.936 253.779 447.031 254.136 447.208C254.494 447.385 254.808 447.639 255.055 447.953C257.189 450.604 261.798 452.54 265.824 453.079C270.18 453.662 267.353 457.853 264.141 457.853Z" fill="#47B785"/>
<path d="M388.32 440.759C379.663 444.675 375.12 442.684 370.775 443.674C367.046 444.51 367.167 445.214 363.46 446.281C360.996 446.974 359.731 444.345 359.951 442.035C360.131 440.355 360.216 438.665 360.204 436.975C360.194 436.65 360.281 436.329 360.453 436.053C360.626 435.777 360.876 435.558 361.172 435.424L369.774 431.519C370.052 431.394 370.358 431.348 370.661 431.385C370.963 431.421 371.25 431.54 371.49 431.728C374.922 434.478 382.49 437.921 387.737 436.128C391.829 434.775 391.202 439.45 388.32 440.759Z" fill="#47B785"/>
<path d="M292.84 244.574C292.84 244.574 313.157 291.225 324.3 325.6C337.951 356.708 365.297 421.971 365.297 421.971C365.836 423.632 357.19 426.679 355.32 426.371C355.32 426.371 319.218 383.075 304.522 333.894C266.297 285.934 255.022 247.434 255.022 247.434L292.84 244.574Z" fill="#263238"/>
<path opacity="0.2" d="M276.538 270.116C282.148 276.265 286.097 297.616 288.11 311.553C281.217 301.433 274.911 290.925 269.223 280.082C269.784 274.868 272.072 271.029 276.538 270.116Z" fill="black"/>
<path d="M281.521 245.443C281.521 245.443 282.962 310.244 277.33 342.166C271.412 375.683 253.13 416.119 254.395 438.119C252.503 439.219 245.881 439.285 242.174 438.119C242.174 438.119 235.838 372.79 254.879 340.901C250.754 309.001 239.776 267.63 249.522 247.874L281.521 245.443Z" fill="#263238"/>
<path d="M255.319 433.543C255.349 435.054 255.489 436.562 255.737 438.053C255.762 438.177 255.762 438.305 255.735 438.428C255.709 438.552 255.658 438.669 255.585 438.772C255.512 438.875 255.418 438.962 255.31 439.028C255.202 439.093 255.081 439.136 254.956 439.153C250.479 439.868 243.956 438.834 241.954 438.471C241.762 438.435 241.587 438.34 241.451 438.201C241.315 438.061 241.225 437.882 241.195 437.69L240.524 433.466C240.501 433.329 240.509 433.19 240.546 433.057C240.584 432.923 240.65 432.8 240.74 432.695C240.83 432.59 240.942 432.506 241.068 432.449C241.194 432.393 241.332 432.364 241.47 432.366L254.395 432.608C254.64 432.614 254.873 432.714 255.046 432.889C255.218 433.063 255.316 433.298 255.319 433.543Z" fill="#263238"/>
<path opacity="0.1" d="M255.319 433.543C255.349 435.054 255.489 436.562 255.737 438.053C255.762 438.177 255.762 438.305 255.735 438.428C255.709 438.552 255.658 438.669 255.585 438.772C255.512 438.875 255.418 438.962 255.31 439.028C255.202 439.093 255.081 439.136 254.956 439.153C250.479 439.868 243.956 438.834 241.954 438.471C241.762 438.435 241.587 438.34 241.451 438.201C241.315 438.061 241.225 437.882 241.195 437.69L240.524 433.466C240.501 433.329 240.509 433.19 240.546 433.057C240.584 432.923 240.65 432.8 240.74 432.695C240.83 432.59 240.942 432.506 241.068 432.449C241.194 432.393 241.332 432.364 241.47 432.366L254.395 432.608C254.64 432.614 254.873 432.714 255.046 432.889C255.218 433.063 255.316 433.298 255.319 433.543Z" fill="white"/>
<path d="M364.362 417.208C364.912 418.308 365.913 420.101 366.705 421.454C366.827 421.668 366.86 421.921 366.799 422.159C366.737 422.397 366.585 422.602 366.375 422.73C362.835 424.64 359.127 426.22 355.298 427.449C355.105 427.525 354.892 427.535 354.693 427.478C354.494 427.42 354.32 427.298 354.198 427.13L351.58 423.665C351.496 423.554 351.437 423.426 351.408 423.29C351.379 423.154 351.38 423.013 351.411 422.878C351.443 422.742 351.504 422.616 351.59 422.506C351.676 422.397 351.785 422.308 351.91 422.246L363.064 416.812C363.174 416.748 363.296 416.707 363.423 416.692C363.549 416.677 363.678 416.689 363.799 416.726C363.921 416.763 364.034 416.825 364.131 416.908C364.228 416.991 364.306 417.093 364.362 417.208Z" fill="#263238"/>
<path opacity="0.1" d="M364.362 417.208C364.912 418.308 365.913 420.101 366.705 421.454C366.827 421.668 366.86 421.921 366.799 422.159C366.737 422.397 366.585 422.602 366.375 422.73C362.835 424.64 359.127 426.22 355.298 427.449C355.105 427.525 354.892 427.535 354.693 427.478C354.494 427.42 354.32 427.298 354.198 427.13L351.58 423.665C351.496 423.554 351.437 423.426 351.408 423.29C351.379 423.154 351.38 423.013 351.411 422.878C351.443 422.742 351.504 422.616 351.59 422.506C351.676 422.397 351.785 422.308 351.91 422.246L363.064 416.812C363.174 416.748 363.296 416.707 363.423 416.692C363.549 416.677 363.678 416.689 363.799 416.726C363.921 416.763 364.034 416.825 364.131 416.908C364.228 416.991 364.306 417.093 364.362 417.208Z" fill="white"/>
<path d="M284.194 189.662C285.294 193.798 287.01 198.341 289.1 208.362C291.025 216.777 292.4 231.572 292.84 244.596C287.186 249.634 268.387 248.776 249.522 247.896C249.467 235.631 244.429 224.312 230.734 199.199C229.966 197.899 229.497 196.444 229.364 194.94C229.23 193.436 229.434 191.921 229.961 190.505C230.488 189.09 231.325 187.811 232.411 186.761C233.496 185.711 234.802 184.917 236.234 184.437C237.873 183.887 239.622 183.337 241.437 182.831C247.736 180.916 254.161 179.446 260.665 178.431C262.799 178.145 265.065 177.925 267.155 177.738C270.937 177.441 274.705 178.468 277.814 180.643C280.922 182.819 283.178 186.007 284.194 189.662Z" fill="#1B6343"/>
<path opacity="0.5" d="M284.194 189.662C285.294 193.798 287.01 198.341 289.1 208.362C291.025 216.777 292.4 231.572 292.84 244.596C287.186 249.634 268.387 248.776 249.522 247.896C249.467 235.631 244.429 224.312 230.734 199.199C229.966 197.899 229.497 196.444 229.364 194.94C229.23 193.436 229.434 191.921 229.961 190.505C230.488 189.09 231.325 187.811 232.411 186.761C233.496 185.711 234.802 184.917 236.234 184.437C237.873 183.887 239.622 183.337 241.437 182.831C247.736 180.916 254.161 179.446 260.665 178.431C262.799 178.145 265.065 177.925 267.155 177.738C270.937 177.441 274.705 178.468 277.814 180.643C280.922 182.819 283.178 186.007 284.194 189.662Z" fill="white"/>
<path d="M261.93 178.42L242.515 182.6C242.515 182.6 258.223 189.2 270.818 199.254C274.25 181.962 261.93 178.42 261.93 178.42Z" fill="white"/>
<path d="M237.884 160.853C240.964 166.661 245.584 177.529 242.515 182.578C242.515 182.578 260.038 187.638 269.388 195.679C270.642 182.677 261.93 178.42 261.93 178.42C254.538 178.42 252.976 173.074 252.734 168.08L237.884 160.853Z" fill="#FFC3BD"/>
<path d="M254.351 184.239C250.348 184.156 246.362 183.688 242.449 182.842C242.413 182.834 242.38 182.819 242.35 182.799C242.32 182.778 242.295 182.751 242.276 182.721C242.256 182.69 242.243 182.656 242.237 182.62C242.231 182.584 242.232 182.547 242.24 182.512C242.258 182.442 242.302 182.381 242.364 182.342C242.425 182.304 242.499 182.289 242.57 182.303C242.68 182.303 253.053 184.624 259.07 183.249C260.995 182.809 262.128 182.149 262.37 181.148C262.434 180.669 262.39 180.182 262.239 179.723C262.089 179.264 261.836 178.845 261.501 178.497C261.474 178.471 261.453 178.441 261.439 178.407C261.424 178.373 261.417 178.336 261.417 178.299C261.417 178.262 261.424 178.225 261.439 178.191C261.453 178.157 261.474 178.127 261.501 178.101C261.552 178.051 261.621 178.022 261.693 178.022C261.765 178.022 261.834 178.051 261.886 178.101C262.291 178.517 262.593 179.023 262.766 179.577C262.94 180.131 262.982 180.718 262.887 181.291C262.535 182.391 261.27 183.282 259.136 183.766C257.562 184.094 255.958 184.253 254.351 184.239Z" fill="white"/>
<path d="M262.172 184.393C261.944 184.552 261.664 184.62 261.388 184.581C261.113 184.542 260.862 184.4 260.687 184.184L260.082 183.392C259.922 183.164 259.855 182.884 259.894 182.608C259.933 182.333 260.075 182.082 260.291 181.907C260.519 181.748 260.799 181.68 261.074 181.719C261.35 181.758 261.601 181.9 261.776 182.116L262.381 182.919C262.537 183.146 262.602 183.424 262.564 183.697C262.525 183.97 262.385 184.218 262.172 184.393Z" fill="#47B785"/>
<path opacity="0.2" d="M243.934 163.801L252.734 168.08C252.774 169.253 252.921 170.42 253.174 171.567C250.424 171.787 245.925 169.774 244.814 167.167C244.319 166.108 244.021 164.967 243.934 163.801Z" fill="black"/>
<path d="M229.018 152.042C233.55 161.436 235.255 165.495 242.218 168.718C252.635 173.569 263.283 166.65 261.677 156.266C260.236 146.916 253.086 133.166 242.009 132.605C239.631 132.403 237.242 132.843 235.091 133.878C232.94 134.913 231.106 136.506 229.779 138.491C228.453 140.475 227.683 142.779 227.549 145.162C227.415 147.546 227.922 149.921 229.018 152.042Z" fill="#FFC3BD"/>
<path d="M233 138.402C237.917 145.387 237.664 156.849 231.9 158.4C223.1 157.036 221.186 154.759 221.186 154.759C221.186 154.759 224.002 133.21 233 138.402Z" fill="#263238"/>
<path d="M226.07 141.273C239.072 142.934 249.423 137.5 251.37 134.453C239.6 126.5 227.357 133.265 226.07 141.273Z" fill="#263238"/>
<path d="M253.218 146.619C254.727 148.206 256.431 149.596 258.289 150.755C257.651 152.108 255.649 152.295 255.649 152.295L253.218 146.619Z" fill="#ED847E"/>
<path d="M252.591 156.629C253.066 156.549 253.533 156.432 253.988 156.277C254.019 156.266 254.047 156.249 254.071 156.227C254.095 156.204 254.113 156.177 254.126 156.147C254.138 156.117 254.144 156.085 254.143 156.052C254.142 156.019 254.134 155.987 254.12 155.958C254.093 155.894 254.043 155.843 253.98 155.814C253.917 155.786 253.845 155.782 253.779 155.804C252.752 156.167 251.656 156.294 250.572 156.176C249.489 156.058 248.446 155.697 247.52 155.122C247.473 155.076 247.41 155.051 247.344 155.051C247.279 155.051 247.215 155.076 247.168 155.122C247.133 155.178 247.12 155.246 247.132 155.311C247.145 155.376 247.181 155.434 247.234 155.474C248.815 156.509 250.724 156.92 252.591 156.629Z" fill="#263238"/>
<path d="M229.601 161.7C230.456 162.21 231.409 162.536 232.398 162.655C233.387 162.774 234.39 162.685 235.343 162.393C237.675 161.579 236.993 158.741 234.793 156.893C232.824 155.265 229.227 153.736 227.643 155.529C226.059 157.322 227.247 160.391 229.601 161.7Z" fill="#FFC3BD"/>
<path d="M233.748 162.272C233.113 162.272 232.492 162.46 231.964 162.813C231.435 163.166 231.024 163.668 230.781 164.255C230.538 164.842 230.474 165.488 230.598 166.111C230.722 166.734 231.028 167.306 231.477 167.755C231.926 168.204 232.498 168.51 233.122 168.634C233.745 168.758 234.39 168.695 234.977 168.451C235.564 168.208 236.066 167.797 236.419 167.268C236.772 166.74 236.96 166.119 236.96 165.484C236.962 165.062 236.88 164.643 236.719 164.253C236.558 163.863 236.321 163.508 236.023 163.21C235.724 162.911 235.369 162.674 234.979 162.514C234.589 162.353 234.17 162.271 233.748 162.272ZM233.748 167.937C233.26 167.937 232.784 167.792 232.378 167.521C231.973 167.25 231.657 166.864 231.471 166.413C231.285 165.962 231.236 165.466 231.332 164.988C231.428 164.51 231.664 164.071 232.01 163.727C232.355 163.383 232.796 163.149 233.274 163.055C233.753 162.961 234.249 163.012 234.699 163.2C235.149 163.388 235.533 163.705 235.802 164.112C236.072 164.519 236.214 164.996 236.212 165.484C236.212 165.807 236.148 166.127 236.024 166.425C235.9 166.724 235.719 166.995 235.49 167.222C235.261 167.45 234.989 167.631 234.69 167.753C234.391 167.876 234.071 167.938 233.748 167.937Z" fill="white"/>
<path d="M240.909 145.882C240.966 145.849 241.015 145.802 241.051 145.747C241.087 145.692 241.11 145.629 241.118 145.563C241.193 144.946 241.42 144.358 241.779 143.851C242.138 143.344 242.618 142.934 243.175 142.659C243.235 142.634 243.289 142.597 243.334 142.55C243.38 142.504 243.415 142.448 243.437 142.387C243.46 142.326 243.47 142.261 243.466 142.196C243.463 142.132 243.446 142.068 243.417 142.01C243.355 141.888 243.249 141.793 243.12 141.746C242.992 141.699 242.85 141.703 242.724 141.757C242.012 142.089 241.397 142.596 240.935 143.231C240.473 143.866 240.18 144.608 240.084 145.387C240.077 145.486 240.097 145.586 240.143 145.674C240.189 145.763 240.259 145.837 240.344 145.888C240.43 145.939 240.528 145.966 240.627 145.965C240.727 145.964 240.825 145.935 240.909 145.882Z" fill="#263238"/>
<path d="M256.529 140.052C256.594 140.049 256.657 140.032 256.714 140.002C256.772 139.971 256.821 139.928 256.859 139.876C256.936 139.767 256.967 139.631 256.944 139.499C256.921 139.367 256.847 139.249 256.738 139.172C256.104 138.643 255.356 138.268 254.552 138.077C253.749 137.886 252.912 137.884 252.107 138.072C252.045 138.091 251.988 138.123 251.939 138.166C251.89 138.209 251.851 138.262 251.824 138.321C251.797 138.381 251.783 138.445 251.782 138.51C251.782 138.575 251.795 138.639 251.821 138.699C251.871 138.826 251.966 138.93 252.088 138.991C252.21 139.052 252.35 139.066 252.481 139.029C253.118 138.883 253.779 138.886 254.414 139.037C255.049 139.187 255.641 139.482 256.144 139.898C256.192 139.952 256.252 139.994 256.318 140.021C256.385 140.047 256.457 140.058 256.529 140.052Z" fill="#263238"/>
<path d="M256.375 143.77C256.65 144.584 256.452 145.387 255.913 145.574C255.374 145.761 254.714 145.233 254.428 144.419C254.142 143.605 254.351 142.791 254.89 142.615C255.429 142.439 256.1 143 256.375 143.77Z" fill="#263238"/>
<path d="M246.838 147.697C247.124 148.511 246.915 149.314 246.376 149.501C245.837 149.688 245.177 149.16 244.891 148.401C244.605 147.642 244.814 146.773 245.353 146.597C245.892 146.421 246.552 146.872 246.838 147.697Z" fill="#263238"/>
<path d="M244.891 147.015L245.793 145.079C245.793 145.079 246.31 146.927 244.891 147.015Z" fill="#263238"/>
<path d="M254.362 143.209L255.264 141.273C255.264 141.273 255.781 143.11 254.362 143.209Z" fill="#263238"/>
<path opacity="0.5" d="M242.9 200.365L233.352 203.951C237.279 211.233 240.392 217.261 242.779 222.497C242.197 215.129 242.238 207.726 242.9 200.365Z" fill="#47B785"/>
<path d="M302.663 457.853H315.214V277.002H302.663V457.853Z" fill="#47B785"/>
<path opacity="0.2" d="M302.674 277.013H315.225V307.428L302.674 304.194V277.013Z" fill="black"/>
<path d="M376.055 299.53H264.097V278.564C264.097 270.944 267.124 263.636 272.513 258.247C277.901 252.859 285.209 249.832 292.829 249.832H347.323C354.943 249.832 362.251 252.859 367.64 258.247C373.028 263.636 376.055 270.944 376.055 278.564V299.53Z" fill="#47B785"/>
<path d="M272.358 265.166L270.499 262.515C270.153 262.024 269.696 261.622 269.164 261.343C268.632 261.063 268.042 260.915 267.441 260.909H261.743C260.622 260.899 259.515 261.158 258.514 261.663C257.513 262.168 256.648 262.905 255.99 263.813L255.165 264.913C257.948 269.533 264.35 272.459 264.35 272.459L266.088 273.504C266.437 273.728 266.828 273.88 267.236 273.951C267.645 274.023 268.064 274.012 268.468 273.92C268.873 273.828 269.255 273.656 269.592 273.415C269.929 273.173 270.215 272.867 270.433 272.514L272.534 269.115C272.889 268.51 273.062 267.815 273.031 267.114C272.999 266.414 272.766 265.737 272.358 265.166Z" fill="#FFC3BD"/>
<path d="M246.42 197.648C246.134 198.253 245.76 199.133 245.441 199.848L244.462 202.29C243.824 203.929 243.219 205.59 242.669 207.251C241.573 210.548 240.666 213.905 239.952 217.305C239.622 218.977 239.347 220.605 239.138 222.277C238.963 223.866 238.867 225.463 238.852 227.062C238.766 229.763 239.242 232.452 240.249 234.96L240.667 235.84C240.698 235.912 240.723 235.985 240.744 236.06C241.447 238.249 242.531 240.297 243.945 242.11C245.586 244.312 247.388 246.389 249.335 248.325C251.359 250.305 253.526 252.23 255.77 254.078C256.87 255.002 258.058 255.893 259.224 256.762C260.39 257.631 261.622 258.511 262.711 259.226L256.474 269.126C254.978 268.191 253.713 267.333 252.36 266.42C251.007 265.507 249.731 264.572 248.433 263.615C245.837 261.723 243.296 259.71 240.821 257.532C238.25 255.325 235.846 252.931 233.627 250.371C232.426 248.983 231.323 247.513 230.327 245.971C229.216 244.287 228.284 242.491 227.544 240.614L228.039 241.714C225.689 237.419 224.329 232.654 224.057 227.766C223.779 223.482 223.897 219.181 224.409 214.918C224.89 210.849 225.595 206.81 226.521 202.818C226.961 200.845 227.452 198.88 227.995 196.922C228.259 195.943 228.534 194.975 228.831 193.996C229.128 193.017 229.414 192.093 229.821 190.927L246.42 197.648Z" fill="#1B6343"/>
<path opacity="0.5" d="M246.42 197.648C246.134 198.253 245.76 199.133 245.441 199.848L244.462 202.29C243.824 203.929 243.219 205.59 242.669 207.251C241.573 210.548 240.666 213.905 239.952 217.305C239.622 218.977 239.347 220.605 239.138 222.277C238.963 223.866 238.867 225.463 238.852 227.062C238.766 229.763 239.242 232.452 240.249 234.96L240.667 235.84C240.698 235.912 240.723 235.985 240.744 236.06C241.447 238.249 242.531 240.297 243.945 242.11C245.586 244.312 247.388 246.389 249.335 248.325C251.359 250.305 253.526 252.23 255.77 254.078C256.87 255.002 258.058 255.893 259.224 256.762C260.39 257.631 261.622 258.511 262.711 259.226L256.474 269.126C254.978 268.191 253.713 267.333 252.36 266.42C251.007 265.507 249.731 264.572 248.433 263.615C245.837 261.723 243.296 259.71 240.821 257.532C238.25 255.325 235.846 252.931 233.627 250.371C232.426 248.983 231.323 247.513 230.327 245.971C229.216 244.287 228.284 242.491 227.544 240.614L228.039 241.714C225.689 237.419 224.329 232.654 224.057 227.766C223.779 223.482 223.897 219.181 224.409 214.918C224.89 210.849 225.595 206.81 226.521 202.818C226.961 200.845 227.452 198.88 227.995 196.922C228.259 195.943 228.534 194.975 228.831 193.996C229.128 193.017 229.414 192.093 229.821 190.927L246.42 197.648Z" fill="white"/>
<path opacity="0.1" d="M264.097 293.315H318.591V279.466H264.097V293.315Z" fill="white"/>
<path opacity="0.2" d="M318.591 299.53V278.564C318.591 270.944 321.618 263.636 327.006 258.247C332.395 252.859 339.703 249.832 347.323 249.832C354.943 249.832 362.251 252.859 367.639 258.247C373.028 263.636 376.055 270.944 376.055 278.564V299.53" fill="black"/>
<path d="M318.591 303.215H397.219V299.53H318.591V303.215Z" fill="#47B785"/>
<path opacity="0.2" d="M339.755 303.215H397.219V299.53H339.755V303.215Z" fill="black"/>
<path d="M308.955 284.482H310.99V235.939H308.955V284.482Z" fill="#E0E0E0"/>
<path d="M297.361 245.366H311.595V238.392C311.595 238.147 311.497 237.912 311.324 237.739C311.151 237.565 310.916 237.468 310.671 237.468H297.361L299.693 241.417L297.361 245.366Z" fill="#47B785"/>
<path d="M440.438 97.163C440.315 97.1611 440.196 97.1177 440.1 97.0399C440.004 96.9621 439.937 96.8544 439.91 96.734C439.892 96.6639 439.889 96.5909 439.9 96.5194C439.911 96.4478 439.936 96.3792 439.974 96.3176C440.012 96.256 440.062 96.2027 440.121 96.1609C440.18 96.119 440.247 96.0895 440.317 96.074C441.538 95.7953 442.736 95.4276 443.903 94.974C443.971 94.9473 444.042 94.9341 444.115 94.9351C444.187 94.9361 444.258 94.9513 444.325 94.9799C444.391 95.0085 444.451 95.0499 444.502 95.1018C444.552 95.1536 444.592 95.2148 444.618 95.282C444.645 95.3492 444.658 95.421 444.657 95.4932C444.656 95.5655 444.641 95.6369 444.612 95.7033C444.584 95.7697 444.542 95.8298 444.491 95.8802C444.439 95.9306 444.378 95.9703 444.31 95.997C443.095 96.483 441.845 96.8765 440.57 97.174L440.438 97.163Z" fill="#47B785"/>
<path d="M399.1 287.188C398.959 287.185 398.824 287.13 398.722 287.032C398.62 286.934 398.558 286.801 398.55 286.66C398.547 286.588 398.559 286.516 398.583 286.448C398.608 286.38 398.647 286.318 398.696 286.265C398.745 286.211 398.804 286.168 398.869 286.138C398.935 286.108 399.006 286.091 399.078 286.088C401.619 285.956 404.215 285.725 406.778 285.384C406.922 285.368 407.066 285.409 407.181 285.497C407.296 285.585 407.372 285.714 407.394 285.857C407.405 285.929 407.401 286.002 407.383 286.072C407.365 286.142 407.333 286.208 407.289 286.266C407.245 286.323 407.189 286.371 407.126 286.407C407.063 286.442 406.993 286.465 406.921 286.473C404.325 286.825 401.696 287.056 399.122 287.177L399.1 287.188ZM414.5 285.153C414.354 285.169 414.208 285.126 414.094 285.035C413.979 284.943 413.906 284.809 413.89 284.664C413.874 284.518 413.916 284.371 414.008 284.257C414.1 284.142 414.233 284.069 414.379 284.053C416.964 283.492 419.483 282.832 421.859 282.084C421.93 282.055 422.005 282.041 422.082 282.042C422.158 282.044 422.233 282.061 422.302 282.094C422.371 282.126 422.433 282.172 422.483 282.229C422.533 282.287 422.571 282.354 422.594 282.427C422.617 282.499 422.625 282.576 422.616 282.652C422.608 282.728 422.584 282.801 422.546 282.867C422.508 282.933 422.457 282.99 422.395 283.035C422.334 283.081 422.264 283.112 422.189 283.129C419.78 283.888 417.239 284.559 414.61 285.131L414.5 285.153ZM429.295 280.401C429.191 280.402 429.088 280.372 429 280.315C428.912 280.258 428.843 280.177 428.8 280.082C428.769 280.016 428.75 279.945 428.747 279.872C428.743 279.8 428.754 279.727 428.778 279.658C428.803 279.59 428.841 279.527 428.89 279.473C428.939 279.419 428.998 279.376 429.064 279.345C430.929 278.512 432.727 277.537 434.443 276.43L435.752 275.55C435.873 275.47 436.021 275.442 436.163 275.471C436.306 275.5 436.431 275.583 436.511 275.704C436.553 275.763 436.582 275.83 436.597 275.9C436.612 275.97 436.613 276.043 436.6 276.114C436.587 276.184 436.559 276.252 436.519 276.312C436.48 276.372 436.428 276.423 436.368 276.463L435.048 277.343C433.294 278.483 431.456 279.487 429.548 280.346C429.479 280.378 429.404 280.397 429.328 280.401H429.295ZM442.242 271.832C442.163 271.831 442.086 271.814 442.014 271.782C441.942 271.75 441.877 271.703 441.824 271.645C441.73 271.533 441.683 271.389 441.693 271.243C441.703 271.097 441.77 270.961 441.879 270.864C443.828 269.183 445.634 267.343 447.28 265.364C447.376 265.253 447.511 265.184 447.657 265.172C447.803 265.16 447.948 265.205 448.061 265.298C448.117 265.344 448.163 265.4 448.197 265.464C448.23 265.527 448.251 265.597 448.257 265.669C448.263 265.741 448.255 265.813 448.232 265.882C448.21 265.95 448.174 266.014 448.127 266.068C446.446 268.078 444.607 269.951 442.627 271.667C442.534 271.764 442.409 271.823 442.275 271.832H442.242ZM452.021 259.842C451.932 259.843 451.845 259.82 451.768 259.776C451.639 259.71 451.54 259.596 451.495 259.457C451.45 259.319 451.461 259.169 451.526 259.039C451.885 258.35 452.215 257.646 452.516 256.927C453.196 255.285 453.747 253.594 454.166 251.867C454.183 251.795 454.215 251.727 454.259 251.667C454.302 251.606 454.357 251.556 454.421 251.517C454.484 251.478 454.554 251.452 454.628 251.44C454.701 251.429 454.776 251.432 454.848 251.449C454.92 251.466 454.989 251.498 455.049 251.541C455.109 251.585 455.16 251.64 455.198 251.703C455.237 251.767 455.263 251.837 455.275 251.91C455.286 251.984 455.283 252.059 455.266 252.131C454.837 253.915 454.267 255.662 453.561 257.356C453.253 258.093 452.912 258.819 452.538 259.556C452.492 259.644 452.422 259.717 452.336 259.767C452.251 259.818 452.153 259.843 452.054 259.842H452.021ZM455.838 244.86C455.765 244.856 455.693 244.837 455.627 244.805C455.561 244.772 455.503 244.727 455.454 244.672C455.406 244.617 455.37 244.552 455.347 244.482C455.324 244.413 455.315 244.339 455.321 244.266C455.42 242.77 455.475 241.186 455.475 239.437C455.475 238.469 455.475 237.512 455.475 236.544C455.472 236.471 455.484 236.398 455.51 236.329C455.535 236.261 455.574 236.198 455.624 236.145C455.675 236.091 455.735 236.049 455.802 236.019C455.869 235.989 455.941 235.973 456.014 235.972C456.087 235.969 456.159 235.981 456.227 236.007C456.295 236.032 456.357 236.072 456.41 236.122C456.462 236.172 456.504 236.233 456.532 236.3C456.561 236.366 456.575 236.438 456.575 236.511C456.575 237.49 456.575 238.458 456.575 239.437C456.575 241.219 456.52 242.825 456.421 244.343C456.413 244.483 456.351 244.615 456.249 244.711C456.147 244.807 456.011 244.86 455.871 244.86H455.838ZM455.629 229.295C455.489 229.295 455.354 229.242 455.251 229.146C455.149 229.05 455.088 228.918 455.079 228.778C454.98 226.578 454.881 224.136 454.881 221.738V220.957C454.876 220.884 454.887 220.811 454.913 220.742C454.939 220.674 454.979 220.612 455.032 220.561C455.084 220.509 455.147 220.47 455.216 220.445C455.285 220.421 455.358 220.411 455.431 220.418C455.577 220.418 455.717 220.476 455.82 220.579C455.923 220.682 455.981 220.822 455.981 220.968V221.738C455.981 224.114 456.08 226.501 456.179 228.723C456.182 228.795 456.171 228.867 456.146 228.935C456.121 229.003 456.083 229.065 456.034 229.118C455.985 229.172 455.926 229.215 455.86 229.245C455.794 229.275 455.723 229.292 455.651 229.295H455.629ZM502.654 222.519C501.653 222.519 500.674 222.519 499.739 222.453C499.667 222.45 499.596 222.433 499.53 222.403C499.465 222.373 499.406 222.33 499.357 222.276C499.308 222.223 499.269 222.161 499.244 222.093C499.22 222.025 499.208 221.953 499.211 221.881C499.214 221.809 499.231 221.738 499.261 221.672C499.292 221.606 499.335 221.547 499.388 221.498C499.441 221.449 499.503 221.411 499.571 221.386C499.639 221.361 499.711 221.35 499.783 221.353C500.707 221.353 501.675 221.419 502.654 221.419C504.267 221.427 505.879 221.346 507.483 221.177C507.629 221.161 507.775 221.204 507.89 221.295C508.004 221.387 508.078 221.521 508.094 221.667C508.11 221.812 508.067 221.959 507.975 222.073C507.884 222.188 507.75 222.261 507.604 222.277C505.971 222.445 504.329 222.526 502.687 222.519H502.654ZM491.995 221.958C489.421 221.76 486.803 221.529 484.229 221.265C484.157 221.258 484.087 221.237 484.022 221.203C483.958 221.169 483.902 221.122 483.855 221.066C483.809 221.009 483.775 220.945 483.754 220.875C483.733 220.805 483.727 220.732 483.734 220.66C483.741 220.588 483.762 220.517 483.796 220.453C483.831 220.389 483.877 220.332 483.933 220.286C483.99 220.24 484.054 220.206 484.124 220.185C484.194 220.164 484.267 220.157 484.339 220.165C486.902 220.429 489.509 220.671 492.039 220.869C492.185 220.869 492.325 220.927 492.428 221.03C492.531 221.133 492.589 221.273 492.589 221.419C492.589 221.565 492.531 221.705 492.428 221.808C492.325 221.911 492.185 221.969 492.039 221.969L491.995 221.958ZM515.095 220.385C514.99 220.384 514.886 220.353 514.797 220.297C514.708 220.241 514.636 220.161 514.589 220.066C514.53 219.933 514.525 219.782 514.577 219.646C514.628 219.51 514.732 219.4 514.864 219.34C517.171 218.363 519.124 216.705 520.463 214.588C520.497 214.52 520.545 214.46 520.604 214.411C520.662 214.363 520.73 214.327 520.804 214.306C520.877 214.285 520.954 214.279 521.029 214.289C521.104 214.3 521.177 214.326 521.242 214.365C521.307 214.405 521.363 214.458 521.406 214.52C521.45 214.583 521.48 214.654 521.494 214.728C521.509 214.803 521.508 214.88 521.492 214.954C521.475 215.029 521.443 215.099 521.398 215.16C519.95 217.466 517.831 219.274 515.326 220.341C515.253 220.372 515.174 220.387 515.095 220.385ZM476.54 220.385H476.474C473.911 220.055 471.304 219.681 468.774 219.285C468.703 219.274 468.634 219.25 468.572 219.212C468.51 219.175 468.456 219.126 468.413 219.067C468.37 219.009 468.339 218.943 468.322 218.873C468.305 218.802 468.301 218.73 468.312 218.658C468.337 218.515 468.415 218.387 468.532 218.3C468.649 218.214 468.795 218.177 468.939 218.196C471.491 218.592 474.076 218.966 476.639 219.296C476.785 219.305 476.921 219.371 477.018 219.48C477.115 219.59 477.165 219.733 477.156 219.879C477.147 220.025 477.081 220.161 476.972 220.258C476.862 220.355 476.719 220.405 476.573 220.396L476.54 220.385ZM461.14 217.998H461.041C458.5 217.536 455.926 217.03 453.396 216.502C453.25 216.473 453.122 216.387 453.039 216.263C452.957 216.139 452.927 215.988 452.956 215.842C452.985 215.696 453.071 215.568 453.195 215.485C453.319 215.403 453.47 215.373 453.616 215.402C456.146 215.93 458.709 216.436 461.239 216.898C461.311 216.91 461.379 216.936 461.441 216.975C461.502 217.013 461.556 217.064 461.598 217.123C461.64 217.182 461.669 217.249 461.685 217.32C461.701 217.391 461.703 217.464 461.69 217.536C461.663 217.659 461.595 217.77 461.497 217.85C461.399 217.93 461.277 217.974 461.151 217.976L461.14 217.998ZM445.905 214.808H445.773C443.265 214.214 440.713 213.576 438.216 212.916C438.144 212.898 438.076 212.866 438.016 212.822C437.956 212.777 437.906 212.722 437.868 212.658C437.829 212.594 437.804 212.523 437.793 212.449C437.782 212.376 437.786 212.301 437.804 212.229C437.822 212.156 437.854 212.088 437.898 212.029C437.942 211.969 437.998 211.918 438.062 211.88C438.126 211.842 438.197 211.816 438.27 211.805C438.344 211.794 438.419 211.798 438.491 211.816C440.988 212.476 443.518 213.114 446.026 213.697C446.169 213.734 446.292 213.824 446.37 213.949C446.448 214.074 446.474 214.224 446.444 214.368C446.415 214.486 446.347 214.592 446.252 214.667C446.156 214.743 446.038 214.785 445.916 214.786L445.905 214.808ZM456.003 213.774H455.915C455.772 213.75 455.644 213.671 455.558 213.554C455.471 213.437 455.434 213.291 455.453 213.147C455.839 210.532 456.491 207.962 457.4 205.48C457.45 205.343 457.552 205.231 457.684 205.169C457.816 205.107 457.967 205.1 458.104 205.15C458.241 205.2 458.353 205.302 458.415 205.434C458.477 205.566 458.484 205.717 458.434 205.854C457.558 208.262 456.931 210.754 456.564 213.29C456.543 213.42 456.476 213.538 456.375 213.623C456.274 213.708 456.146 213.754 456.014 213.752L456.003 213.774ZM430.846 210.837C430.795 210.847 430.743 210.847 430.692 210.837C428.217 210.122 425.698 209.352 423.234 208.56C423.165 208.539 423.1 208.504 423.045 208.457C422.989 208.411 422.943 208.353 422.911 208.288C422.878 208.224 422.858 208.153 422.853 208.081C422.848 208.008 422.858 207.936 422.882 207.867C422.927 207.729 423.026 207.614 423.156 207.548C423.286 207.482 423.437 207.47 423.575 207.515C426.028 208.296 428.525 209.066 431 209.781C431.14 209.822 431.258 209.917 431.328 210.045C431.399 210.172 431.415 210.323 431.374 210.463C431.335 210.568 431.265 210.659 431.172 210.722C431.079 210.785 430.969 210.817 430.857 210.815L430.846 210.837ZM522.487 208.01C522.359 208.007 522.236 207.961 522.138 207.879C522.04 207.797 521.973 207.684 521.948 207.559C521.354 205.134 519.987 202.968 518.054 201.388C518.003 201.338 517.962 201.278 517.934 201.212C517.907 201.146 517.892 201.075 517.892 201.003C517.892 200.931 517.907 200.86 517.934 200.794C517.962 200.728 518.003 200.668 518.054 200.618C518.105 200.566 518.166 200.526 518.233 200.498C518.3 200.47 518.372 200.455 518.445 200.455C518.517 200.455 518.589 200.47 518.656 200.498C518.723 200.526 518.784 200.566 518.835 200.618C520.95 202.353 522.437 204.733 523.07 207.394C523.085 207.465 523.085 207.538 523.071 207.609C523.058 207.68 523.03 207.747 522.99 207.807C522.95 207.868 522.899 207.919 522.839 207.96C522.779 208 522.712 208.029 522.641 208.043L522.487 208.01ZM416.029 206.085C415.967 206.096 415.904 206.096 415.842 206.085C413.334 205.194 410.881 204.27 408.527 203.346C408.393 203.29 408.286 203.184 408.229 203.051C408.172 202.917 408.168 202.767 408.219 202.631C408.246 202.564 408.286 202.503 408.336 202.451C408.386 202.399 408.446 202.357 408.513 202.329C408.579 202.3 408.651 202.285 408.723 202.284C408.795 202.283 408.867 202.296 408.934 202.323C411.266 203.247 413.719 204.16 416.205 205.051C416.342 205.099 416.454 205.198 416.518 205.328C416.582 205.457 416.592 205.607 416.546 205.744C416.502 205.84 416.43 205.922 416.34 205.978C416.251 206.035 416.146 206.064 416.04 206.063L416.029 206.085ZM401.553 200.332C401.481 200.348 401.406 200.348 401.333 200.332C398.913 199.232 396.537 198.132 394.282 196.977C394.212 196.948 394.149 196.905 394.097 196.85C394.044 196.796 394.004 196.731 393.978 196.66C393.951 196.589 393.94 196.513 393.944 196.438C393.949 196.362 393.969 196.289 394.003 196.221C394.037 196.154 394.085 196.094 394.143 196.046C394.201 195.997 394.269 195.962 394.341 195.941C394.414 195.92 394.49 195.914 394.565 195.924C394.64 195.934 394.712 195.959 394.777 195.998C396.977 197.098 399.375 198.198 401.784 199.298C401.93 199.329 402.058 199.416 402.139 199.541C402.221 199.666 402.249 199.818 402.219 199.964C402.188 200.109 402.101 200.237 401.976 200.319C401.851 200.4 401.699 200.429 401.553 200.398V200.332ZM461.525 199.375C461.408 199.375 461.293 199.34 461.195 199.276C461.078 199.188 461.001 199.058 460.981 198.914C460.96 198.769 460.998 198.623 461.085 198.506C462.523 196.532 464.291 194.82 466.31 193.446L466.882 193.083C466.944 193.045 467.012 193.019 467.083 193.007C467.155 192.995 467.228 192.997 467.298 193.014C467.369 193.03 467.435 193.06 467.494 193.102C467.553 193.144 467.603 193.198 467.641 193.259C467.679 193.32 467.705 193.389 467.717 193.46C467.729 193.531 467.727 193.604 467.71 193.675C467.694 193.745 467.664 193.812 467.622 193.871C467.58 193.93 467.527 193.98 467.465 194.018L466.926 194.359C465.011 195.662 463.333 197.285 461.965 199.155C461.912 199.217 461.847 199.267 461.773 199.301C461.698 199.336 461.618 199.353 461.536 199.353L461.525 199.375ZM511.982 197.175C511.89 197.174 511.8 197.152 511.718 197.109C510.794 196.614 509.892 196.152 509.034 195.723C507.637 195.041 506.196 194.403 504.744 193.831C504.672 193.809 504.605 193.772 504.547 193.723C504.49 193.674 504.443 193.614 504.41 193.546C504.377 193.478 504.358 193.403 504.355 193.328C504.351 193.252 504.364 193.177 504.391 193.106C504.419 193.036 504.46 192.972 504.513 192.918C504.567 192.864 504.63 192.822 504.701 192.794C504.771 192.766 504.846 192.753 504.922 192.755C504.998 192.758 505.072 192.776 505.14 192.808C506.625 193.38 508.099 194.04 509.54 194.744C510.398 195.173 511.322 195.635 512.257 196.141C512.384 196.213 512.477 196.331 512.518 196.471C512.559 196.61 512.545 196.76 512.477 196.889C512.428 196.973 512.357 197.041 512.271 197.088C512.186 197.134 512.09 197.157 511.993 197.153L511.982 197.175ZM387.682 193.27C387.585 193.272 387.489 193.245 387.407 193.193C385.108 191.862 382.875 190.476 380.807 189.057C380.7 188.971 380.63 188.848 380.609 188.713C380.588 188.577 380.618 188.439 380.694 188.325C380.769 188.211 380.885 188.129 381.018 188.095C381.151 188.062 381.291 188.079 381.412 188.144C383.502 189.541 385.713 190.927 388.012 192.247C388.115 192.308 388.196 192.402 388.241 192.513C388.286 192.624 388.294 192.747 388.263 192.863C388.232 192.979 388.163 193.081 388.068 193.155C387.974 193.228 387.857 193.269 387.737 193.27H387.682ZM497.517 191.543H497.385C494.884 190.95 492.344 190.531 489.784 190.289C489.64 190.275 489.507 190.205 489.415 190.094C489.322 189.982 489.277 189.839 489.289 189.695C489.306 189.55 489.378 189.417 489.491 189.325C489.604 189.232 489.749 189.188 489.894 189.2C492.487 189.446 495.06 189.872 497.594 190.476C497.74 190.492 497.874 190.565 497.965 190.68C498.057 190.794 498.1 190.941 498.084 191.087C498.068 191.232 497.994 191.366 497.88 191.458C497.765 191.549 497.619 191.592 497.473 191.576L497.517 191.543ZM474.362 191.191C474.237 191.19 474.117 191.147 474.019 191.069C473.921 190.991 473.853 190.883 473.823 190.762C473.79 190.621 473.814 190.472 473.891 190.348C473.967 190.224 474.089 190.136 474.23 190.102C476.162 189.645 478.126 189.333 480.104 189.167C480.742 189.167 481.391 189.068 482.029 189.035C482.102 189.027 482.176 189.035 482.246 189.057C482.315 189.08 482.38 189.116 482.435 189.165C482.489 189.214 482.533 189.273 482.564 189.34C482.595 189.406 482.611 189.479 482.612 189.552C482.618 189.696 482.567 189.837 482.471 189.944C482.374 190.051 482.239 190.115 482.095 190.124C481.457 190.124 480.83 190.212 480.203 190.267C478.281 190.426 476.372 190.728 474.494 191.169L474.362 191.191ZM374.779 184.591C374.656 184.593 374.536 184.555 374.438 184.481C372.348 182.842 370.346 181.126 368.487 179.399C368.436 179.348 368.395 179.287 368.367 179.22C368.339 179.153 368.324 179.081 368.324 179.009C368.324 178.936 368.339 178.864 368.367 178.797C368.395 178.73 368.436 178.669 368.487 178.618C368.592 178.517 368.732 178.46 368.878 178.46C369.023 178.46 369.163 178.517 369.268 178.618C371.105 180.334 373.085 182.028 375.153 183.645C375.266 183.736 375.339 183.868 375.356 184.012C375.372 184.156 375.331 184.301 375.241 184.415C375.182 184.472 375.111 184.515 375.033 184.54C374.954 184.565 374.871 184.571 374.79 184.558L374.779 184.591ZM363.427 173.976C363.348 173.975 363.271 173.958 363.199 173.926C363.127 173.894 363.062 173.847 363.009 173.789C361.281 171.824 359.668 169.76 358.18 167.607C358.098 167.487 358.065 167.339 358.09 167.195C358.115 167.052 358.194 166.923 358.312 166.837C358.435 166.758 358.582 166.73 358.725 166.756C358.869 166.783 358.996 166.863 359.082 166.98C360.567 169.09 362.176 171.11 363.9 173.03C364.001 173.133 364.057 173.271 364.057 173.415C364.057 173.559 364.001 173.697 363.9 173.8C363.839 173.857 363.766 173.9 363.686 173.925C363.606 173.95 363.521 173.956 363.438 173.943L363.427 173.976ZM354.627 161.183C354.526 161.182 354.426 161.153 354.341 161.099C354.255 161.044 354.187 160.967 354.143 160.875C352.937 158.55 351.897 156.142 351.03 153.67C350.984 153.531 350.994 153.38 351.058 153.249C351.121 153.117 351.234 153.016 351.371 152.966C351.508 152.92 351.658 152.931 351.788 152.994C351.917 153.058 352.017 153.171 352.064 153.307C352.915 155.734 353.937 158.098 355.122 160.38C355.187 160.51 355.199 160.66 355.153 160.798C355.108 160.937 355.01 161.051 354.88 161.117C354.8 161.149 354.713 161.161 354.627 161.15V161.183ZM349.6 146.487C349.47 146.488 349.343 146.442 349.244 146.357C349.145 146.272 349.08 146.154 349.061 146.025C348.951 145.442 348.863 144.859 348.775 144.265C348.506 142.326 348.37 140.371 348.368 138.413V138.182C348.368 138.036 348.426 137.896 348.529 137.793C348.632 137.69 348.772 137.632 348.918 137.632C349.064 137.632 349.204 137.69 349.307 137.793C349.41 137.896 349.468 138.036 349.468 138.182V138.402C349.467 140.308 349.599 142.212 349.864 144.1C349.952 144.683 350.04 145.255 350.139 145.827C350.165 145.97 350.133 146.117 350.051 146.237C349.968 146.356 349.842 146.438 349.699 146.465L349.6 146.487ZM349.655 130.999H349.556C349.413 130.972 349.287 130.89 349.205 130.771C349.122 130.651 349.09 130.504 349.116 130.361C349.594 127.777 350.29 125.238 351.195 122.771C351.249 122.635 351.354 122.525 351.487 122.463C351.62 122.402 351.771 122.394 351.91 122.441C352.045 122.493 352.154 122.596 352.214 122.728C352.274 122.859 352.279 123.009 352.229 123.145C351.34 125.554 350.659 128.034 350.194 130.559C350.17 130.694 350.095 130.815 349.984 130.897C349.874 130.979 349.737 131.015 349.6 130.999H349.655ZM355.023 116.468C354.927 116.463 354.833 116.437 354.748 116.391C354.623 116.315 354.531 116.194 354.494 116.052C354.457 115.91 354.477 115.759 354.55 115.632C355.873 113.359 357.401 111.213 359.115 109.219C359.215 109.129 359.344 109.079 359.478 109.077C359.612 109.076 359.742 109.124 359.844 109.212C359.945 109.3 360.011 109.422 360.029 109.555C360.046 109.688 360.015 109.823 359.94 109.934C358.292 111.887 356.82 113.981 355.54 116.193C355.486 116.288 355.405 116.366 355.307 116.415C355.209 116.464 355.099 116.482 354.99 116.468H355.023ZM365.154 104.753C365.041 104.752 364.93 104.717 364.837 104.65C364.745 104.584 364.675 104.491 364.638 104.384C364.601 104.277 364.597 104.16 364.629 104.051C364.66 103.942 364.725 103.845 364.813 103.774C366.892 102.16 369.12 100.749 371.468 99.561C371.599 99.4954 371.751 99.4846 371.891 99.531C372.03 99.5774 372.145 99.6772 372.211 99.8085C372.276 99.9398 372.287 100.092 372.241 100.231C372.194 100.37 372.094 100.485 371.963 100.551C369.68 101.708 367.51 103.078 365.484 104.643C365.38 104.722 365.251 104.762 365.121 104.753H365.154ZM432.716 97.9C430.097 97.8425 427.484 97.611 424.895 97.207C424.749 97.1866 424.618 97.1091 424.529 96.9915C424.44 96.8739 424.402 96.7259 424.422 96.58C424.443 96.4341 424.52 96.3024 424.638 96.2137C424.755 96.125 424.903 96.0866 425.049 96.107C427.598 96.5077 430.17 96.7356 432.749 96.789C432.895 96.789 433.035 96.847 433.138 96.9501C433.241 97.0532 433.299 97.1931 433.299 97.339C433.299 97.4849 433.241 97.6248 433.138 97.7279C433.035 97.8311 432.895 97.889 432.749 97.889L432.716 97.9ZM378.882 97.614C378.81 97.6256 378.736 97.6228 378.665 97.6058C378.594 97.5889 378.527 97.558 378.467 97.5151C378.408 97.4722 378.358 97.4181 378.32 97.3558C378.281 97.2935 378.256 97.2242 378.244 97.152C378.233 97.0798 378.235 97.006 378.252 96.9348C378.269 96.8637 378.3 96.7966 378.343 96.7373C378.386 96.6781 378.44 96.6279 378.502 96.5896C378.565 96.5512 378.634 96.5256 378.706 96.514C381.195 95.706 383.73 95.0449 386.296 94.534C386.368 94.5197 386.441 94.5197 386.513 94.5342C386.584 94.5486 386.652 94.5771 386.713 94.6181C386.773 94.659 386.825 94.7116 386.865 94.7727C386.905 94.8338 386.932 94.9022 386.945 94.974C386.961 95.0442 386.963 95.117 386.949 95.1878C386.936 95.2586 386.909 95.3259 386.868 95.3857C386.828 95.4454 386.776 95.4963 386.716 95.5353C386.655 95.5742 386.587 95.6003 386.516 95.612C383.991 96.1172 381.497 96.7672 379.047 97.559L378.882 97.614ZM417.294 95.887H417.195C414.83 95.447 412.157 94.952 409.495 94.578C409.353 94.5562 409.225 94.4795 409.138 94.3643C409.052 94.2492 409.014 94.1047 409.033 93.962C409.041 93.8899 409.064 93.8203 409.099 93.7571C409.135 93.6939 409.183 93.6386 409.241 93.5945C409.298 93.5503 409.364 93.5182 409.434 93.5001C409.504 93.482 409.577 93.4782 409.649 93.489C412.289 93.863 414.973 94.369 417.349 94.809C417.492 94.8358 417.618 94.9178 417.701 95.0373C417.783 95.1569 417.815 95.3041 417.789 95.447C417.77 95.5694 417.712 95.6822 417.622 95.7678C417.533 95.8533 417.417 95.9069 417.294 95.92V95.887ZM394.106 94.468C393.96 94.4768 393.817 94.4272 393.708 94.3303C393.598 94.2333 393.532 94.0969 393.523 93.951C393.514 93.8051 393.564 93.6618 393.661 93.5524C393.758 93.4431 393.894 93.3768 394.04 93.368C395.437 93.214 396.933 93.071 398.44 92.95C399.408 92.873 400.431 92.829 401.476 92.829H401.839C401.911 92.8304 401.983 92.8461 402.049 92.8751C402.115 92.904 402.175 92.9458 402.225 92.9978C402.275 93.0499 402.314 93.1114 402.341 93.1787C402.367 93.246 402.38 93.3178 402.378 93.39C402.37 93.5322 402.309 93.6662 402.207 93.7659C402.106 93.8656 401.97 93.9238 401.828 93.929H401.476C400.464 93.929 399.474 93.929 398.517 94.039C396.999 94.16 395.525 94.303 394.117 94.468H394.106Z" fill="#47B785"/>
<path d="M391.202 287.21C389.893 287.155 388.595 287.056 387.341 286.935C387.269 286.93 387.199 286.91 387.135 286.877C387.071 286.844 387.014 286.798 386.968 286.743C386.922 286.687 386.887 286.623 386.867 286.554C386.846 286.485 386.839 286.413 386.846 286.341C386.85 286.269 386.869 286.198 386.902 286.133C386.934 286.068 386.98 286.011 387.035 285.964C387.091 285.918 387.156 285.883 387.226 285.863C387.295 285.843 387.368 285.837 387.44 285.846C388.683 285.967 389.959 286.055 391.257 286.11C391.403 286.11 391.543 286.168 391.646 286.271C391.749 286.374 391.807 286.514 391.807 286.66C391.807 286.806 391.749 286.946 391.646 287.049C391.543 287.152 391.403 287.21 391.257 287.21H391.202Z" fill="#47B785"/>
<g opacity="0.6">
<path opacity="0.6" d="M440.438 97.163C440.315 97.1611 440.196 97.1177 440.1 97.0399C440.004 96.9621 439.937 96.8544 439.91 96.734C439.892 96.6639 439.889 96.5909 439.9 96.5194C439.911 96.4478 439.936 96.3792 439.974 96.3176C440.012 96.256 440.062 96.2027 440.121 96.1609C440.18 96.119 440.247 96.0895 440.317 96.074C441.538 95.7953 442.736 95.4276 443.903 94.974C443.971 94.9473 444.042 94.9341 444.115 94.9351C444.187 94.9361 444.258 94.9513 444.325 94.9799C444.391 95.0085 444.451 95.0499 444.502 95.1018C444.552 95.1536 444.592 95.2148 444.618 95.282C444.645 95.3492 444.658 95.421 444.657 95.4932C444.656 95.5655 444.641 95.6369 444.612 95.7033C444.584 95.7697 444.542 95.8298 444.491 95.8802C444.439 95.9306 444.378 95.9703 444.31 95.997C443.095 96.483 441.845 96.8765 440.57 97.174L440.438 97.163Z" fill="white"/>
<path opacity="0.6" d="M399.1 287.188C398.959 287.185 398.824 287.13 398.722 287.032C398.62 286.934 398.558 286.801 398.55 286.66C398.547 286.588 398.559 286.516 398.583 286.448C398.608 286.38 398.647 286.318 398.696 286.265C398.745 286.211 398.804 286.168 398.869 286.138C398.935 286.108 399.006 286.091 399.078 286.088C401.619 285.956 404.215 285.725 406.778 285.384C406.922 285.368 407.066 285.409 407.181 285.497C407.296 285.585 407.372 285.714 407.394 285.857C407.405 285.929 407.401 286.002 407.383 286.072C407.365 286.142 407.333 286.208 407.289 286.266C407.245 286.323 407.189 286.371 407.126 286.407C407.063 286.442 406.993 286.465 406.921 286.473C404.325 286.825 401.696 287.056 399.122 287.177L399.1 287.188ZM414.5 285.153C414.354 285.169 414.208 285.126 414.094 285.035C413.979 284.943 413.906 284.809 413.89 284.664C413.874 284.518 413.916 284.371 414.008 284.257C414.1 284.142 414.233 284.069 414.379 284.053C416.964 283.492 419.483 282.832 421.859 282.084C421.93 282.055 422.005 282.041 422.082 282.042C422.158 282.044 422.233 282.061 422.302 282.094C422.371 282.126 422.433 282.172 422.483 282.229C422.533 282.287 422.571 282.354 422.594 282.427C422.617 282.499 422.625 282.576 422.616 282.652C422.608 282.728 422.584 282.801 422.546 282.867C422.508 282.933 422.457 282.99 422.395 283.035C422.334 283.081 422.264 283.112 422.189 283.129C419.78 283.888 417.239 284.559 414.61 285.131L414.5 285.153ZM429.295 280.401C429.191 280.402 429.088 280.372 429 280.315C428.912 280.258 428.843 280.177 428.8 280.082C428.769 280.016 428.75 279.945 428.747 279.872C428.743 279.8 428.754 279.727 428.778 279.658C428.803 279.59 428.841 279.527 428.89 279.473C428.939 279.419 428.998 279.376 429.064 279.345C430.929 278.512 432.727 277.537 434.443 276.43L435.752 275.55C435.873 275.47 436.021 275.442 436.163 275.471C436.306 275.5 436.431 275.583 436.511 275.704C436.553 275.763 436.582 275.83 436.597 275.9C436.612 275.97 436.613 276.043 436.6 276.114C436.587 276.184 436.559 276.252 436.519 276.312C436.48 276.372 436.428 276.423 436.368 276.463L435.048 277.343C433.294 278.483 431.456 279.487 429.548 280.346C429.479 280.378 429.404 280.397 429.328 280.401H429.295ZM442.242 271.832C442.163 271.831 442.086 271.814 442.014 271.782C441.942 271.75 441.877 271.703 441.824 271.645C441.73 271.533 441.683 271.389 441.693 271.243C441.703 271.097 441.77 270.961 441.879 270.864C443.828 269.183 445.634 267.343 447.28 265.364C447.376 265.253 447.511 265.184 447.657 265.172C447.803 265.16 447.948 265.205 448.061 265.298C448.117 265.344 448.163 265.4 448.197 265.464C448.23 265.527 448.251 265.597 448.257 265.669C448.263 265.741 448.255 265.813 448.232 265.882C448.21 265.95 448.174 266.014 448.127 266.068C446.446 268.078 444.607 269.951 442.627 271.667C442.534 271.764 442.409 271.823 442.275 271.832H442.242ZM452.021 259.842C451.932 259.843 451.845 259.82 451.768 259.776C451.639 259.71 451.54 259.596 451.495 259.457C451.45 259.319 451.461 259.169 451.526 259.039C451.885 258.35 452.215 257.646 452.516 256.927C453.196 255.285 453.747 253.594 454.166 251.867C454.183 251.795 454.215 251.727 454.259 251.667C454.302 251.606 454.357 251.556 454.421 251.517C454.484 251.478 454.554 251.452 454.628 251.44C454.701 251.429 454.776 251.432 454.848 251.449C454.92 251.466 454.989 251.498 455.049 251.541C455.109 251.585 455.16 251.64 455.198 251.703C455.237 251.767 455.263 251.837 455.275 251.91C455.286 251.984 455.283 252.059 455.266 252.131C454.837 253.915 454.267 255.662 453.561 257.356C453.253 258.093 452.912 258.819 452.538 259.556C452.492 259.644 452.422 259.717 452.336 259.767C452.251 259.818 452.153 259.843 452.054 259.842H452.021ZM455.838 244.86C455.765 244.856 455.693 244.837 455.627 244.805C455.561 244.772 455.503 244.727 455.454 244.672C455.406 244.617 455.37 244.552 455.347 244.482C455.324 244.413 455.315 244.339 455.321 244.266C455.42 242.77 455.475 241.186 455.475 239.437C455.475 238.469 455.475 237.512 455.475 236.544C455.472 236.471 455.484 236.398 455.51 236.329C455.535 236.261 455.574 236.198 455.624 236.145C455.675 236.091 455.735 236.049 455.802 236.019C455.869 235.989 455.941 235.973 456.014 235.972C456.087 235.969 456.159 235.981 456.227 236.007C456.295 236.032 456.357 236.072 456.41 236.122C456.462 236.172 456.504 236.233 456.532 236.3C456.561 236.366 456.575 236.438 456.575 236.511C456.575 237.49 456.575 238.458 456.575 239.437C456.575 241.219 456.52 242.825 456.421 244.343C456.413 244.483 456.351 244.615 456.249 244.711C456.147 244.807 456.011 244.86 455.871 244.86H455.838ZM455.629 229.295C455.489 229.295 455.354 229.242 455.251 229.146C455.149 229.05 455.088 228.918 455.079 228.778C454.98 226.578 454.881 224.136 454.881 221.738V220.957C454.876 220.884 454.887 220.811 454.913 220.742C454.939 220.674 454.979 220.612 455.032 220.561C455.084 220.509 455.147 220.47 455.216 220.445C455.285 220.421 455.358 220.411 455.431 220.418C455.577 220.418 455.717 220.476 455.82 220.579C455.923 220.682 455.981 220.822 455.981 220.968V221.738C455.981 224.114 456.08 226.501 456.179 228.723C456.182 228.795 456.171 228.867 456.146 228.935C456.121 229.003 456.083 229.065 456.034 229.118C455.985 229.172 455.926 229.215 455.86 229.245C455.794 229.275 455.723 229.292 455.651 229.295H455.629ZM502.654 222.519C501.653 222.519 500.674 222.519 499.739 222.453C499.667 222.45 499.596 222.433 499.53 222.403C499.465 222.373 499.406 222.33 499.357 222.276C499.308 222.223 499.269 222.161 499.244 222.093C499.22 222.025 499.208 221.953 499.211 221.881C499.214 221.809 499.231 221.738 499.261 221.672C499.292 221.606 499.335 221.547 499.388 221.498C499.441 221.449 499.503 221.411 499.571 221.386C499.639 221.361 499.711 221.35 499.783 221.353C500.707 221.353 501.675 221.419 502.654 221.419C504.267 221.427 505.879 221.346 507.483 221.177C507.629 221.161 507.775 221.204 507.89 221.295C508.004 221.387 508.078 221.521 508.094 221.667C508.11 221.812 508.067 221.959 507.975 222.073C507.884 222.188 507.75 222.261 507.604 222.277C505.971 222.445 504.329 222.526 502.687 222.519H502.654ZM491.995 221.958C489.421 221.76 486.803 221.529 484.229 221.265C484.157 221.258 484.087 221.237 484.022 221.203C483.958 221.169 483.902 221.122 483.855 221.066C483.809 221.009 483.775 220.945 483.754 220.875C483.733 220.805 483.727 220.732 483.734 220.66C483.741 220.588 483.762 220.517 483.796 220.453C483.831 220.389 483.877 220.332 483.933 220.286C483.99 220.24 484.054 220.206 484.124 220.185C484.194 220.164 484.267 220.157 484.339 220.165C486.902 220.429 489.509 220.671 492.039 220.869C492.185 220.869 492.325 220.927 492.428 221.03C492.531 221.133 492.589 221.273 492.589 221.419C492.589 221.565 492.531 221.705 492.428 221.808C492.325 221.911 492.185 221.969 492.039 221.969L491.995 221.958ZM515.095 220.385C514.99 220.384 514.886 220.353 514.797 220.297C514.708 220.241 514.636 220.161 514.589 220.066C514.53 219.933 514.525 219.782 514.577 219.646C514.628 219.51 514.732 219.4 514.864 219.34C517.171 218.363 519.124 216.705 520.463 214.588C520.497 214.52 520.545 214.46 520.604 214.411C520.662 214.363 520.73 214.327 520.804 214.306C520.877 214.285 520.954 214.279 521.029 214.289C521.104 214.3 521.177 214.326 521.242 214.365C521.307 214.405 521.363 214.458 521.406 214.52C521.45 214.583 521.48 214.654 521.494 214.728C521.509 214.803 521.508 214.88 521.492 214.954C521.475 215.029 521.443 215.099 521.398 215.16C519.95 217.466 517.831 219.274 515.326 220.341C515.253 220.372 515.174 220.387 515.095 220.385ZM476.54 220.385H476.474C473.911 220.055 471.304 219.681 468.774 219.285C468.703 219.274 468.634 219.25 468.572 219.212C468.51 219.175 468.456 219.126 468.413 219.067C468.37 219.009 468.339 218.943 468.322 218.873C468.305 218.802 468.301 218.73 468.312 218.658C468.337 218.515 468.415 218.387 468.532 218.3C468.649 218.214 468.795 218.177 468.939 218.196C471.491 218.592 474.076 218.966 476.639 219.296C476.785 219.305 476.921 219.371 477.018 219.48C477.115 219.59 477.165 219.733 477.156 219.879C477.147 220.025 477.081 220.161 476.972 220.258C476.862 220.355 476.719 220.405 476.573 220.396L476.54 220.385ZM461.14 217.998H461.041C458.5 217.536 455.926 217.03 453.396 216.502C453.25 216.473 453.122 216.387 453.039 216.263C452.957 216.139 452.927 215.988 452.956 215.842C452.985 215.696 453.071 215.568 453.195 215.485C453.319 215.403 453.47 215.373 453.616 215.402C456.146 215.93 458.709 216.436 461.239 216.898C461.311 216.91 461.379 216.936 461.441 216.975C461.502 217.013 461.556 217.064 461.598 217.123C461.64 217.182 461.669 217.249 461.685 217.32C461.701 217.391 461.703 217.464 461.69 217.536C461.663 217.659 461.595 217.77 461.497 217.85C461.399 217.93 461.277 217.974 461.151 217.976L461.14 217.998ZM445.905 214.808H445.773C443.265 214.214 440.713 213.576 438.216 212.916C438.144 212.898 438.076 212.866 438.016 212.822C437.956 212.777 437.906 212.722 437.868 212.658C437.829 212.594 437.804 212.523 437.793 212.449C437.782 212.376 437.786 212.301 437.804 212.229C437.822 212.156 437.854 212.088 437.898 212.029C437.942 211.969 437.998 211.918 438.062 211.88C438.126 211.842 438.197 211.816 438.27 211.805C438.344 211.794 438.419 211.798 438.491 211.816C440.988 212.476 443.518 213.114 446.026 213.697C446.169 213.734 446.292 213.824 446.37 213.949C446.448 214.074 446.474 214.224 446.444 214.368C446.415 214.486 446.347 214.592 446.252 214.667C446.156 214.743 446.038 214.785 445.916 214.786L445.905 214.808ZM456.003 213.774H455.915C455.772 213.75 455.644 213.671 455.558 213.554C455.471 213.437 455.434 213.291 455.453 213.147C455.839 210.532 456.491 207.962 457.4 205.48C457.45 205.343 457.552 205.231 457.684 205.169C457.816 205.107 457.967 205.1 458.104 205.15C458.241 205.2 458.353 205.302 458.415 205.434C458.477 205.566 458.484 205.717 458.434 205.854C457.558 208.262 456.931 210.754 456.564 213.29C456.543 213.42 456.476 213.538 456.375 213.623C456.274 213.708 456.146 213.754 456.014 213.752L456.003 213.774ZM430.846 210.837C430.795 210.847 430.743 210.847 430.692 210.837C428.217 210.122 425.698 209.352 423.234 208.56C423.165 208.539 423.1 208.504 423.045 208.457C422.989 208.411 422.943 208.353 422.911 208.288C422.878 208.224 422.858 208.153 422.853 208.081C422.848 208.008 422.858 207.936 422.882 207.867C422.927 207.729 423.026 207.614 423.156 207.548C423.286 207.482 423.437 207.47 423.575 207.515C426.028 208.296 428.525 209.066 431 209.781C431.14 209.822 431.258 209.917 431.328 210.045C431.399 210.172 431.415 210.323 431.374 210.463C431.335 210.568 431.265 210.659 431.172 210.722C431.079 210.785 430.969 210.817 430.857 210.815L430.846 210.837ZM522.487 208.01C522.359 208.007 522.236 207.961 522.138 207.879C522.04 207.797 521.973 207.684 521.948 207.559C521.354 205.134 519.987 202.968 518.054 201.388C518.003 201.338 517.962 201.278 517.934 201.212C517.907 201.146 517.892 201.075 517.892 201.003C517.892 200.931 517.907 200.86 517.934 200.794C517.962 200.728 518.003 200.668 518.054 200.618C518.105 200.566 518.166 200.526 518.233 200.498C518.3 200.47 518.372 200.455 518.445 200.455C518.517 200.455 518.589 200.47 518.656 200.498C518.723 200.526 518.784 200.566 518.835 200.618C520.95 202.353 522.437 204.733 523.07 207.394C523.085 207.465 523.085 207.538 523.071 207.609C523.058 207.68 523.03 207.747 522.99 207.807C522.95 207.868 522.899 207.919 522.839 207.96C522.779 208 522.712 208.029 522.641 208.043L522.487 208.01ZM416.029 206.085C415.967 206.096 415.904 206.096 415.842 206.085C413.334 205.194 410.881 204.27 408.527 203.346C408.393 203.29 408.286 203.184 408.229 203.051C408.172 202.917 408.168 202.767 408.219 202.631C408.246 202.564 408.286 202.503 408.336 202.451C408.386 202.399 408.446 202.357 408.513 202.329C408.579 202.3 408.651 202.285 408.723 202.284C408.795 202.283 408.867 202.296 408.934 202.323C411.266 203.247 413.719 204.16 416.205 205.051C416.342 205.099 416.454 205.198 416.518 205.328C416.582 205.457 416.592 205.607 416.546 205.744C416.502 205.84 416.43 205.922 416.34 205.978C416.251 206.035 416.146 206.064 416.04 206.063L416.029 206.085ZM401.553 200.332C401.481 200.348 401.406 200.348 401.333 200.332C398.913 199.232 396.537 198.132 394.282 196.977C394.212 196.948 394.149 196.905 394.097 196.85C394.044 196.796 394.004 196.731 393.978 196.66C393.951 196.589 393.94 196.513 393.944 196.438C393.949 196.362 393.969 196.289 394.003 196.221C394.037 196.154 394.085 196.094 394.143 196.046C394.201 195.997 394.269 195.962 394.341 195.941C394.414 195.92 394.49 195.914 394.565 195.924C394.64 195.934 394.712 195.959 394.777 195.998C396.977 197.098 399.375 198.198 401.784 199.298C401.93 199.329 402.058 199.416 402.139 199.541C402.221 199.666 402.249 199.818 402.219 199.964C402.188 200.109 402.101 200.237 401.976 200.319C401.851 200.4 401.699 200.429 401.553 200.398V200.332ZM461.525 199.375C461.408 199.375 461.293 199.34 461.195 199.276C461.078 199.188 461.001 199.058 460.981 198.914C460.96 198.769 460.998 198.623 461.085 198.506C462.523 196.532 464.291 194.82 466.31 193.446L466.882 193.083C466.944 193.045 467.012 193.019 467.083 193.007C467.155 192.995 467.228 192.997 467.298 193.014C467.369 193.03 467.435 193.06 467.494 193.102C467.553 193.144 467.603 193.198 467.641 193.259C467.679 193.32 467.705 193.389 467.717 193.46C467.729 193.531 467.727 193.604 467.71 193.675C467.694 193.745 467.664 193.812 467.622 193.871C467.58 193.93 467.527 193.98 467.465 194.018L466.926 194.359C465.011 195.662 463.333 197.285 461.965 199.155C461.912 199.217 461.847 199.267 461.773 199.301C461.698 199.336 461.618 199.353 461.536 199.353L461.525 199.375ZM511.982 197.175C511.89 197.174 511.8 197.152 511.718 197.109C510.794 196.614 509.892 196.152 509.034 195.723C507.637 195.041 506.196 194.403 504.744 193.831C504.672 193.809 504.605 193.772 504.547 193.723C504.49 193.674 504.443 193.614 504.41 193.546C504.377 193.478 504.358 193.403 504.355 193.328C504.351 193.252 504.364 193.177 504.391 193.106C504.419 193.036 504.46 192.972 504.513 192.918C504.567 192.864 504.63 192.822 504.701 192.794C504.771 192.766 504.846 192.753 504.922 192.755C504.998 192.758 505.072 192.776 505.14 192.808C506.625 193.38 508.099 194.04 509.54 194.744C510.398 195.173 511.322 195.635 512.257 196.141C512.384 196.213 512.477 196.331 512.518 196.471C512.559 196.61 512.545 196.76 512.477 196.889C512.428 196.973 512.357 197.041 512.271 197.088C512.186 197.134 512.09 197.157 511.993 197.153L511.982 197.175ZM387.682 193.27C387.585 193.272 387.489 193.245 387.407 193.193C385.108 191.862 382.875 190.476 380.807 189.057C380.7 188.971 380.63 188.848 380.609 188.713C380.588 188.577 380.618 188.439 380.694 188.325C380.769 188.211 380.885 188.129 381.018 188.095C381.151 188.062 381.291 188.079 381.412 188.144C383.502 189.541 385.713 190.927 388.012 192.247C388.115 192.308 388.196 192.402 388.241 192.513C388.286 192.624 388.294 192.747 388.263 192.863C388.232 192.979 388.163 193.081 388.068 193.155C387.974 193.228 387.857 193.269 387.737 193.27H387.682ZM497.517 191.543H497.385C494.884 190.95 492.344 190.531 489.784 190.289C489.64 190.275 489.507 190.205 489.415 190.094C489.322 189.982 489.277 189.839 489.289 189.695C489.306 189.55 489.378 189.417 489.491 189.325C489.604 189.232 489.749 189.188 489.894 189.2C492.487 189.446 495.06 189.872 497.594 190.476C497.74 190.492 497.874 190.565 497.965 190.68C498.057 190.794 498.1 190.941 498.084 191.087C498.068 191.232 497.994 191.366 497.88 191.458C497.765 191.549 497.619 191.592 497.473 191.576L497.517 191.543ZM474.362 191.191C474.237 191.19 474.117 191.147 474.019 191.069C473.921 190.991 473.853 190.883 473.823 190.762C473.79 190.621 473.814 190.472 473.891 190.348C473.967 190.224 474.089 190.136 474.23 190.102C476.162 189.645 478.126 189.333 480.104 189.167C480.742 189.167 481.391 189.068 482.029 189.035C482.102 189.027 482.176 189.035 482.246 189.057C482.315 189.08 482.38 189.116 482.435 189.165C482.489 189.214 482.533 189.273 482.564 189.34C482.595 189.406 482.611 189.479 482.612 189.552C482.618 189.696 482.567 189.837 482.471 189.944C482.374 190.051 482.239 190.115 482.095 190.124C481.457 190.124 480.83 190.212 480.203 190.267C478.281 190.426 476.372 190.728 474.494 191.169L474.362 191.191ZM374.779 184.591C374.656 184.593 374.536 184.555 374.438 184.481C372.348 182.842 370.346 181.126 368.487 179.399C368.436 179.348 368.395 179.287 368.367 179.22C368.339 179.153 368.324 179.081 368.324 179.009C368.324 178.936 368.339 178.864 368.367 178.797C368.395 178.73 368.436 178.669 368.487 178.618C368.592 178.517 368.732 178.46 368.878 178.46C369.023 178.46 369.163 178.517 369.268 178.618C371.105 180.334 373.085 182.028 375.153 183.645C375.266 183.736 375.339 183.868 375.356 184.012C375.372 184.156 375.331 184.301 375.241 184.415C375.182 184.472 375.111 184.515 375.033 184.54C374.954 184.565 374.871 184.571 374.79 184.558L374.779 184.591ZM363.427 173.976C363.348 173.975 363.271 173.958 363.199 173.926C363.127 173.894 363.062 173.847 363.009 173.789C361.281 171.824 359.668 169.76 358.18 167.607C358.098 167.487 358.065 167.339 358.09 167.195C358.115 167.052 358.194 166.923 358.312 166.837C358.435 166.758 358.582 166.73 358.725 166.756C358.869 166.783 358.996 166.863 359.082 166.98C360.567 169.09 362.176 171.11 363.9 173.03C364.001 173.133 364.057 173.271 364.057 173.415C364.057 173.559 364.001 173.697 363.9 173.8C363.839 173.857 363.766 173.9 363.686 173.925C363.606 173.95 363.521 173.956 363.438 173.943L363.427 173.976ZM354.627 161.183C354.526 161.182 354.426 161.153 354.341 161.099C354.255 161.044 354.187 160.967 354.143 160.875C352.937 158.55 351.897 156.142 351.03 153.67C350.984 153.531 350.994 153.38 351.058 153.249C351.121 153.117 351.234 153.016 351.371 152.966C351.508 152.92 351.658 152.931 351.788 152.994C351.917 153.058 352.017 153.171 352.064 153.307C352.915 155.734 353.937 158.098 355.122 160.38C355.187 160.51 355.199 160.66 355.153 160.798C355.108 160.937 355.01 161.051 354.88 161.117C354.8 161.149 354.713 161.161 354.627 161.15V161.183ZM349.6 146.487C349.47 146.488 349.343 146.442 349.244 146.357C349.145 146.272 349.08 146.154 349.061 146.025C348.951 145.442 348.863 144.859 348.775 144.265C348.506 142.326 348.37 140.371 348.368 138.413V138.182C348.368 138.036 348.426 137.896 348.529 137.793C348.632 137.69 348.772 137.632 348.918 137.632C349.064 137.632 349.204 137.69 349.307 137.793C349.41 137.896 349.468 138.036 349.468 138.182V138.402C349.467 140.308 349.599 142.212 349.864 144.1C349.952 144.683 350.04 145.255 350.139 145.827C350.165 145.97 350.133 146.117 350.051 146.237C349.968 146.356 349.842 146.438 349.699 146.465L349.6 146.487ZM349.655 130.999H349.556C349.413 130.972 349.287 130.89 349.205 130.771C349.122 130.651 349.09 130.504 349.116 130.361C349.594 127.777 350.29 125.238 351.195 122.771C351.249 122.635 351.354 122.525 351.487 122.463C351.62 122.402 351.771 122.394 351.91 122.441C352.045 122.493 352.154 122.596 352.214 122.728C352.274 122.859 352.279 123.009 352.229 123.145C351.34 125.554 350.659 128.034 350.194 130.559C350.17 130.694 350.095 130.815 349.984 130.897C349.874 130.979 349.737 131.015 349.6 130.999H349.655ZM355.023 116.468C354.927 116.463 354.833 116.437 354.748 116.391C354.623 116.315 354.531 116.194 354.494 116.052C354.457 115.91 354.477 115.759 354.55 115.632C355.873 113.359 357.401 111.213 359.115 109.219C359.215 109.129 359.344 109.079 359.478 109.077C359.612 109.076 359.742 109.124 359.844 109.212C359.945 109.3 360.011 109.422 360.029 109.555C360.046 109.688 360.015 109.823 359.94 109.934C358.292 111.887 356.82 113.981 355.54 116.193C355.486 116.288 355.405 116.366 355.307 116.415C355.209 116.464 355.099 116.482 354.99 116.468H355.023ZM365.154 104.753C365.041 104.752 364.93 104.717 364.837 104.65C364.745 104.584 364.675 104.491 364.638 104.384C364.601 104.277 364.597 104.16 364.629 104.051C364.66 103.942 364.725 103.845 364.813 103.774C366.892 102.16 369.12 100.749 371.468 99.561C371.599 99.4954 371.751 99.4846 371.891 99.531C372.03 99.5774 372.145 99.6772 372.211 99.8085C372.276 99.9398 372.287 100.092 372.241 100.231C372.194 100.37 372.094 100.485 371.963 100.551C369.68 101.708 367.51 103.078 365.484 104.643C365.38 104.722 365.251 104.762 365.121 104.753H365.154ZM432.716 97.9C430.097 97.8425 427.484 97.611 424.895 97.207C424.749 97.1866 424.618 97.1091 424.529 96.9915C424.44 96.8739 424.402 96.7259 424.422 96.58C424.443 96.4341 424.52 96.3024 424.638 96.2137C424.755 96.125 424.903 96.0866 425.049 96.107C427.598 96.5077 430.17 96.7356 432.749 96.789C432.895 96.789 433.035 96.847 433.138 96.9501C433.241 97.0532 433.299 97.1931 433.299 97.339C433.299 97.4849 433.241 97.6248 433.138 97.7279C433.035 97.8311 432.895 97.889 432.749 97.889L432.716 97.9ZM378.882 97.614C378.81 97.6256 378.736 97.6228 378.665 97.6058C378.594 97.5889 378.527 97.558 378.467 97.5151C378.408 97.4722 378.358 97.4181 378.32 97.3558C378.281 97.2935 378.256 97.2242 378.244 97.152C378.233 97.0798 378.235 97.006 378.252 96.9348C378.269 96.8637 378.3 96.7966 378.343 96.7373C378.386 96.6781 378.44 96.6279 378.502 96.5896C378.565 96.5512 378.634 96.5256 378.706 96.514C381.195 95.706 383.73 95.0449 386.296 94.534C386.368 94.5197 386.441 94.5197 386.513 94.5342C386.584 94.5486 386.652 94.5771 386.713 94.6181C386.773 94.659 386.825 94.7116 386.865 94.7727C386.905 94.8338 386.932 94.9022 386.945 94.974C386.961 95.0442 386.963 95.117 386.949 95.1878C386.936 95.2586 386.909 95.3259 386.868 95.3857C386.828 95.4454 386.776 95.4963 386.716 95.5353C386.655 95.5742 386.587 95.6003 386.516 95.612C383.991 96.1172 381.497 96.7672 379.047 97.559L378.882 97.614ZM417.294 95.887H417.195C414.83 95.447 412.157 94.952 409.495 94.578C409.353 94.5562 409.225 94.4795 409.138 94.3643C409.052 94.2492 409.014 94.1047 409.033 93.962C409.041 93.8899 409.064 93.8203 409.099 93.7571C409.135 93.6939 409.183 93.6386 409.241 93.5945C409.298 93.5503 409.364 93.5182 409.434 93.5001C409.504 93.482 409.577 93.4782 409.649 93.489C412.289 93.863 414.973 94.369 417.349 94.809C417.492 94.8358 417.618 94.9178 417.701 95.0373C417.783 95.1569 417.815 95.3041 417.789 95.447C417.77 95.5694 417.712 95.6822 417.622 95.7678C417.533 95.8533 417.417 95.9069 417.294 95.92V95.887ZM394.106 94.468C393.96 94.4768 393.817 94.4272 393.708 94.3303C393.598 94.2333 393.532 94.0969 393.523 93.951C393.514 93.8051 393.564 93.6618 393.661 93.5524C393.758 93.4431 393.894 93.3768 394.04 93.368C395.437 93.214 396.933 93.071 398.44 92.95C399.408 92.873 400.431 92.829 401.476 92.829H401.839C401.911 92.8304 401.983 92.8461 402.049 92.8751C402.115 92.904 402.175 92.9458 402.225 92.9978C402.275 93.0499 402.314 93.1114 402.341 93.1787C402.367 93.246 402.38 93.3178 402.378 93.39C402.37 93.5322 402.309 93.6662 402.207 93.7659C402.106 93.8656 401.97 93.9238 401.828 93.929H401.476C400.464 93.929 399.474 93.929 398.517 94.039C396.999 94.16 395.525 94.303 394.117 94.468H394.106Z" fill="white"/>
<path opacity="0.6" d="M391.202 287.21C389.893 287.155 388.595 287.056 387.341 286.935C387.269 286.93 387.199 286.91 387.135 286.877C387.071 286.844 387.014 286.798 386.968 286.743C386.922 286.687 386.887 286.623 386.867 286.554C386.846 286.485 386.839 286.413 386.846 286.341C386.85 286.269 386.869 286.198 386.902 286.133C386.934 286.068 386.98 286.011 387.035 285.964C387.091 285.918 387.156 285.883 387.226 285.863C387.295 285.843 387.368 285.837 387.44 285.846C388.683 285.967 389.959 286.055 391.257 286.11C391.403 286.11 391.543 286.168 391.646 286.271C391.749 286.374 391.807 286.514 391.807 286.66C391.807 286.806 391.749 286.946 391.646 287.049C391.543 287.152 391.403 287.21 391.257 287.21H391.202Z" fill="white"/>
</g>
<path d="M493.527 56.354L454.686 54.76C452.731 54.6798 451.081 56.1993 451.001 58.1538L450.28 75.739C450.199 77.6936 451.719 79.3431 453.673 79.4233L492.515 81.0172C494.469 81.0975 496.119 79.578 496.199 77.6235L496.921 60.0383C497.001 58.0837 495.481 56.4342 493.527 56.354Z" fill="#47B785"/>
<path opacity="0.8" d="M493.527 56.354L454.686 54.76C452.731 54.6798 451.081 56.1993 451.001 58.1538L450.28 75.739C450.199 77.6936 451.719 79.3431 453.673 79.4233L492.515 81.0172C494.469 81.0975 496.119 79.578 496.199 77.6235L496.921 60.0383C497.001 58.0837 495.481 56.4342 493.527 56.354Z" fill="white"/>
<path opacity="0.4" d="M473.427 72.6C473.313 72.5995 473.202 72.565 473.108 72.501L453 58.663C452.94 58.6222 452.888 58.5697 452.848 58.5088C452.808 58.4478 452.781 58.3795 452.768 58.3079C452.754 58.2363 452.755 58.1627 452.771 58.0915C452.786 58.0202 452.815 57.9528 452.857 57.893C452.941 57.7765 453.067 57.6967 453.208 57.6701C453.349 57.6435 453.495 57.6721 453.616 57.75L473.416 71.412L494.316 59.422C494.443 59.3507 494.593 59.3327 494.733 59.3719C494.873 59.4111 494.992 59.5043 495.064 59.631C495.136 59.7566 495.156 59.9056 495.119 60.0457C495.082 60.1858 494.991 60.3055 494.866 60.379L473.724 72.479C473.64 72.5498 473.536 72.5922 473.427 72.6Z" fill="#47B785"/>
<path opacity="0.4" d="M493.843 77.979C493.733 77.9798 493.625 77.9451 493.535 77.88L482.029 69.883C481.969 69.8422 481.917 69.7897 481.877 69.7288C481.838 69.6678 481.81 69.5995 481.797 69.5279C481.784 69.4563 481.785 69.3827 481.8 69.3115C481.815 69.2402 481.845 69.1728 481.886 69.113C481.972 68.9952 482.101 68.9156 482.245 68.8909C482.388 68.8663 482.536 68.8986 482.656 68.981L494.162 77C494.222 77.0407 494.272 77.0927 494.311 77.1531C494.349 77.2135 494.376 77.2811 494.388 77.3517C494.4 77.4224 494.398 77.4949 494.382 77.5648C494.366 77.6347 494.336 77.7008 494.294 77.759C494.242 77.8288 494.174 77.8852 494.095 77.9234C494.017 77.9617 493.931 77.9807 493.843 77.979Z" fill="#47B785"/>
<path opacity="0.4" d="M452.637 76.285C452.512 76.2909 452.389 76.2542 452.288 76.181C452.187 76.1078 452.114 76.0025 452.081 75.8822C452.048 75.762 452.056 75.634 452.105 75.5193C452.154 75.4046 452.241 75.31 452.351 75.251L464.451 68.233C464.575 68.1769 464.715 68.1689 464.845 68.2104C464.975 68.2519 465.085 68.34 465.153 68.4577C465.221 68.5755 465.244 68.7144 465.216 68.8476C465.188 68.9808 465.111 69.0989 465.001 69.179L452.901 76.208C452.822 76.257 452.73 76.2836 452.637 76.285Z" fill="#47B785"/>
<path d="M532.442 65.78L455.035 83.435L445.113 89.562L532.442 65.78Z" fill="#47B785"/>
<path opacity="0.2" d="M455.035 83.435L445.113 89.562L532.442 65.78" fill="black"/>
<path d="M532.442 65.78L455.035 83.435L462.317 88.792L532.442 65.78Z" fill="#47B785"/>
<path d="M532.442 65.78L466.079 79.354L462.317 88.792L532.442 65.78Z" fill="#47B785"/>
<path opacity="0.2" d="M532.442 65.78L466.079 79.354L462.317 88.792L532.442 65.78Z" fill="black"/>
<path d="M532.442 65.78L466.079 79.354L486.979 86.933L532.442 65.78Z" fill="#47B785"/>
</svg>
