<svg width="20" height="20" viewBox="0 0 20 20" fill="none" xmlns="http://www.w3.org/2000/svg">
<path d="M10 15V9.99999M11.875 15V14.0625C11.875 12.9297 13.1071 11.8582 13.9063 11.0937C15.0328 10.0168 15.625 8.56991 15.625 6.87499C15.625 3.74999 13.1356 1.24999 10 1.24999C9.26076 1.24793 8.52838 1.39202 7.84499 1.67397C7.1616 1.95592 6.54069 2.37018 6.01795 2.89292C5.49521 3.41566 5.08095 4.03657 4.799 4.71996C4.51705 5.40335 4.37296 6.13573 4.37502 6.87499C4.37502 8.50937 4.9926 10.0543 6.09377 11.0937C6.88869 11.8441 8.12502 12.918 8.12502 14.0625V15H11.875ZM8.75002 18.75H11.25H8.75002ZM8.12502 16.875H11.875H8.12502Z" stroke="black" stroke-linecap="round" stroke-linejoin="round"/>
<path d="M11.4844 9.375C11.4844 9.375 10.6441 10 10 10C9.35586 10 8.51562 9.375 8.51562 9.375" stroke="black" stroke-linecap="round" stroke-linejoin="round"/>
</svg>
