<svg width="30" height="30" viewBox="0 0 30 30" fill="none" xmlns="http://www.w3.org/2000/svg">
<path d="M26.7598 14.1955L25.2317 13.9494C25.133 13.9328 25.0422 13.885 24.9727 13.8131C24.9031 13.7412 24.8583 13.649 24.845 13.5498C24.8157 13.3623 24.7864 13.1742 24.7453 12.9926C24.7255 12.895 24.7369 12.7938 24.778 12.7031C24.819 12.6124 24.8875 12.537 24.9739 12.4875L26.3268 11.7363C26.4292 11.684 26.509 11.596 26.551 11.4889C26.5931 11.3819 26.5946 11.2632 26.5553 11.1551L26.3209 10.5105C26.2817 10.4022 26.2037 10.3122 26.1019 10.2581C26.0002 10.2039 25.8819 10.1895 25.7702 10.2176L24.2532 10.5105C24.1545 10.5296 24.0524 10.5165 23.9618 10.4732C23.8711 10.4298 23.7969 10.3585 23.7498 10.2697C23.6619 10.1057 23.5682 9.9414 23.4686 9.77695C23.416 9.69143 23.3917 9.59154 23.399 9.49142C23.4064 9.3913 23.4451 9.29603 23.5096 9.21913L24.5227 8.05077C24.6013 7.96717 24.6465 7.85766 24.6497 7.74298C24.6529 7.6283 24.614 7.51641 24.5403 7.42851L24.1014 6.90116C24.0283 6.81248 23.9247 6.75426 23.8109 6.7379C23.6971 6.72153 23.5813 6.7482 23.4862 6.81269L22.1567 7.61132C22.0712 7.66197 21.9719 7.68415 21.873 7.67467C21.7741 7.66519 21.6808 7.62454 21.6065 7.55859C21.4659 7.43495 21.3194 7.31191 21.1729 7.19413C21.095 7.13223 21.0388 7.04713 21.0124 6.95117C20.9861 6.8552 20.991 6.75335 21.0264 6.66034L21.5772 5.21015C21.6241 5.10494 21.6305 4.98615 21.5954 4.87646C21.5603 4.76676 21.486 4.67384 21.3868 4.61542L20.7891 4.26913C20.6894 4.21249 20.5723 4.19439 20.4601 4.21826C20.3479 4.24212 20.2484 4.30629 20.1803 4.39862L19.2053 5.61972C19.1508 5.69657 19.0721 5.75282 18.9817 5.7794C18.8913 5.80598 18.7947 5.80133 18.7073 5.7662C18.7073 5.7662 18.3791 5.63144 18.133 5.54882C18.0387 5.51736 17.9567 5.45669 17.8991 5.37558C17.8415 5.29447 17.8112 5.19713 17.8125 5.09765L17.836 3.54784C17.8429 3.43257 17.8074 3.31876 17.7361 3.22787C17.6649 3.13699 17.5628 3.07531 17.4493 3.05448L16.7702 2.9373C16.6565 2.91761 16.5395 2.94016 16.4413 3.0007C16.3431 3.06124 16.2704 3.1556 16.2369 3.26601L15.733 4.73378C15.7007 4.82839 15.639 4.91018 15.5569 4.96721C15.4747 5.02424 15.3765 5.05352 15.2766 5.05077H14.7024C14.6026 5.05288 14.5047 5.02335 14.4227 4.96641C14.3407 4.90946 14.2788 4.82804 14.2459 4.73378L13.742 3.26601C13.7086 3.1556 13.6359 3.06124 13.5377 3.0007C13.4395 2.94016 13.3225 2.91761 13.2088 2.9373L12.5297 3.05448C12.4161 3.07531 12.3141 3.13699 12.2429 3.22787C12.1716 3.31876 12.1361 3.43257 12.143 3.54784L12.1664 5.09765C12.1679 5.19738 12.1374 5.29496 12.0796 5.3762C12.0217 5.45745 11.9395 5.51812 11.8448 5.54941C11.71 5.60214 11.417 5.71405 11.2764 5.76679C11.1123 5.82538 10.919 5.77851 10.7608 5.59628L9.79339 4.40448C9.725 4.31254 9.6253 4.24883 9.51312 4.22541C9.40095 4.20198 9.28408 4.22045 9.18461 4.27734L8.58695 4.62362C8.48744 4.68093 8.41263 4.77302 8.37694 4.88216C8.34124 4.99131 8.34717 5.1098 8.39359 5.21484L8.94437 6.66503C8.97922 6.7581 8.98383 6.8598 8.95753 6.95564C8.93123 7.05148 8.87536 7.13658 8.79789 7.19882C8.6514 7.31601 8.50492 7.43964 8.36429 7.56327C8.29001 7.62923 8.19668 7.66988 8.09779 7.67936C7.99891 7.68884 7.89956 7.66665 7.8141 7.61601L6.50394 6.80507C6.40828 6.74213 6.29289 6.71637 6.17955 6.73267C6.06621 6.74897 5.96275 6.8062 5.88871 6.89355L5.44984 7.42089C5.37611 7.50879 5.33718 7.62068 5.34042 7.73536C5.34366 7.85004 5.38884 7.95956 5.46742 8.04316L6.4805 9.21152C6.54638 9.28774 6.58594 9.38316 6.59332 9.48363C6.60071 9.58411 6.57553 9.68429 6.52152 9.76933C6.42191 9.92558 6.32816 10.0898 6.24027 10.2621C6.19248 10.3502 6.11807 10.4209 6.02768 10.4642C5.93728 10.5074 5.83552 10.521 5.73695 10.5029L4.21996 10.21C4.1082 10.1827 3.99031 10.1975 3.88875 10.2515C3.78719 10.3055 3.70904 10.395 3.66918 10.5029L3.4348 11.1475C3.39547 11.2555 3.39699 11.3743 3.43908 11.4813C3.48116 11.5884 3.56091 11.6763 3.66332 11.7287L5.01449 12.4805C5.10173 12.529 5.17104 12.6043 5.21219 12.6952C5.25334 12.7862 5.26414 12.888 5.243 12.9855C5.20785 13.173 5.17269 13.3553 5.14339 13.5428C5.12933 13.6417 5.08435 13.7336 5.01489 13.8053C4.94543 13.8771 4.85505 13.9251 4.75668 13.9424L3.22855 14.1885C3.11483 14.2025 3.01004 14.2572 2.93356 14.3425C2.85707 14.4278 2.81408 14.538 2.81253 14.6525V15.3393C2.81111 15.4547 2.85308 15.5664 2.93012 15.6523C3.00717 15.7383 3.11367 15.7922 3.22855 15.8033L4.75668 16.0494C4.85535 16.066 4.94611 16.1138 5.01569 16.1857C5.08528 16.2576 5.13002 16.3499 5.14339 16.449C5.17269 16.6365 5.20199 16.8246 5.243 17.0062C5.26283 17.1038 5.25142 17.2051 5.2104 17.2957C5.16938 17.3864 5.10083 17.4618 5.01449 17.5113L3.66156 18.2637C3.55915 18.316 3.4794 18.404 3.43732 18.5111C3.39523 18.6181 3.39371 18.7368 3.43304 18.8449L3.66742 19.4894C3.70663 19.5978 3.78467 19.6878 3.88643 19.7419C3.98818 19.7961 4.10641 19.8105 4.2182 19.7824L5.73519 19.4894C5.83382 19.4704 5.93597 19.4835 6.02658 19.5268C6.1172 19.5702 6.1915 19.6415 6.23851 19.7303C6.3264 19.8943 6.42015 20.0586 6.51976 20.223C6.57235 20.3086 6.59669 20.4084 6.58933 20.5086C6.58197 20.6087 6.54328 20.704 6.47875 20.7809L5.46566 21.9504C5.38709 22.034 5.3419 22.1435 5.33866 22.2582C5.33542 22.3729 5.37435 22.4847 5.44808 22.5726L5.88695 23.1C5.96008 23.1887 6.06367 23.2469 6.17745 23.2633C6.29123 23.2796 6.40702 23.253 6.50218 23.1885L7.83168 22.3898C7.91714 22.3392 8.01648 22.317 8.11537 22.3265C8.21426 22.336 8.30758 22.3766 8.38187 22.4426C8.5225 22.5662 8.66898 22.6893 8.81546 22.807C8.89338 22.8689 8.94957 22.954 8.97591 23.05C9.00224 23.146 8.99735 23.2478 8.96195 23.3408L8.41117 24.791C8.36505 24.8964 8.35926 25.015 8.39492 25.1243C8.43057 25.2337 8.50517 25.3261 8.60453 25.384L9.20218 25.7303C9.30193 25.7869 9.41898 25.805 9.53117 25.7811C9.64337 25.7573 9.74292 25.6931 9.81097 25.6008L10.7948 24.3914C10.9178 24.2391 11.117 24.1746 11.2752 24.2391C11.4744 24.3211 11.6092 24.368 11.8553 24.4506C11.95 24.4819 12.0323 24.5425 12.0901 24.6238C12.148 24.705 12.1784 24.8026 12.177 24.9023L12.1536 26.4521C12.1466 26.5674 12.1822 26.6812 12.2534 26.7721C12.3246 26.863 12.4267 26.9247 12.5403 26.9455L13.2194 27.0627C13.333 27.0824 13.45 27.0598 13.5482 26.9993C13.6464 26.9387 13.7191 26.8444 13.7526 26.734L14.2565 25.2691C14.2888 25.1745 14.3505 25.0927 14.4327 25.0357C14.5148 24.9787 14.613 24.9494 14.7129 24.9521H15.2871C15.3869 24.95 15.4849 24.9796 15.5668 25.0365C15.6488 25.0935 15.7107 25.1749 15.7436 25.2691L16.2475 26.734C16.281 26.8444 16.3537 26.9387 16.4519 26.9993C16.5501 27.0598 16.667 27.0824 16.7807 27.0627L17.4598 26.9455C17.5734 26.9247 17.6754 26.863 17.7467 26.7721C17.8179 26.6812 17.8534 26.5674 17.8465 26.4521L17.8231 24.9023C17.8217 24.8026 17.8521 24.705 17.9099 24.6238C17.9678 24.5425 18.0501 24.4819 18.1448 24.4506C18.3909 24.368 18.5549 24.3035 18.7073 24.2449C18.8596 24.1863 19.0471 24.1863 19.1936 24.368L20.1897 25.5949C20.2581 25.6876 20.3582 25.7518 20.4709 25.7753C20.5836 25.7989 20.701 25.7801 20.8008 25.7227L21.3985 25.3764C21.4985 25.3191 21.5737 25.2267 21.6094 25.1171C21.6452 25.0076 21.6389 24.8886 21.5918 24.7834L21.0411 23.3332C21.0062 23.24 21.0017 23.1383 21.028 23.0423C21.0542 22.9464 21.1101 22.8612 21.1875 22.7988C21.334 22.6816 21.4805 22.5586 21.6211 22.435C21.6954 22.369 21.7887 22.3283 21.8876 22.3189C21.9865 22.3094 22.0859 22.3316 22.1713 22.3822L23.4961 23.1832C23.5918 23.2461 23.7072 23.2719 23.8205 23.2556C23.9339 23.2393 24.0373 23.1821 24.1114 23.0947L24.5502 22.5674C24.624 22.4795 24.6629 22.3676 24.6597 22.2529C24.6564 22.1382 24.6112 22.0287 24.5327 21.9451L23.5196 20.7768C23.4537 20.7005 23.4141 20.6051 23.4067 20.5046C23.3994 20.4042 23.4245 20.304 23.4786 20.2189C23.5782 20.0607 23.6719 19.8965 23.7598 19.7262C23.8076 19.6381 23.882 19.5674 23.9724 19.5241C24.0628 19.4809 24.1646 19.4673 24.2631 19.4853L25.7801 19.7783C25.8919 19.8056 26.0098 19.7908 26.1113 19.7368C26.2129 19.6827 26.291 19.5933 26.3309 19.4853L26.5653 18.8408C26.6046 18.7327 26.6031 18.614 26.561 18.5069C26.5189 18.3999 26.4392 18.3119 26.3368 18.2596L24.9838 17.5084C24.8966 17.4599 24.8273 17.3846 24.7861 17.2936C24.745 17.2027 24.7342 17.1009 24.7553 17.0033C24.7905 16.8158 24.8256 16.6336 24.8549 16.4461C24.869 16.3472 24.914 16.2553 24.9834 16.1835C25.0529 16.1117 25.1433 16.0638 25.2416 16.0465L26.7698 15.8004C26.8835 15.7864 26.9883 15.7316 27.0648 15.6463C27.1412 15.561 27.1842 15.4509 27.1858 15.3363V14.6484C27.1794 14.5349 27.1332 14.4272 27.0553 14.3444C26.9774 14.2615 26.8727 14.2088 26.7598 14.1955ZM15 6.56249C16.8715 6.56169 18.69 7.1839 20.1687 8.33098C21.6475 9.47806 22.7023 11.0847 23.1668 12.8976C23.2014 13.0359 23.204 13.1802 23.1744 13.3196C23.1448 13.459 23.0838 13.5898 22.9961 13.7021C22.9084 13.8144 22.7962 13.9053 22.6681 13.9677C22.54 14.0301 22.3994 14.0626 22.2569 14.0625H16.0905C15.9248 14.0625 15.7622 14.0187 15.619 13.9354C15.4759 13.8521 15.3573 13.7324 15.2754 13.5885L12.2227 8.21484C12.1516 8.08991 12.1102 7.95031 12.1017 7.80682C12.0931 7.66334 12.1177 7.51982 12.1735 7.38735C12.2293 7.25488 12.3148 7.13701 12.4234 7.04285C12.532 6.94869 12.6608 6.88077 12.7998 6.84433C13.518 6.65591 14.2576 6.56117 15 6.56249ZM6.56253 15C6.56148 13.8702 6.78732 12.7518 7.22667 11.7109C7.66601 10.6701 8.3099 9.72811 9.12015 8.94081C9.22246 8.83952 9.34673 8.76316 9.48332 8.71764C9.6199 8.67212 9.76513 8.65868 9.90775 8.67834C10.0504 8.698 10.1866 8.75025 10.3057 8.83102C10.4249 8.9118 10.5239 9.01894 10.595 9.14413L13.6559 14.5312C13.7368 14.6729 13.7793 14.8331 13.7793 14.9962C13.7793 15.1593 13.7368 15.3195 13.6559 15.4611L10.5698 20.8342C10.4981 20.959 10.3987 21.0657 10.2792 21.1459C10.1597 21.2261 10.0233 21.2777 9.88066 21.2968C9.73799 21.3158 9.59286 21.3017 9.45651 21.2557C9.32015 21.2096 9.19624 21.1327 9.09437 21.031C8.29202 20.245 7.65475 19.3066 7.21998 18.271C6.78521 17.2353 6.56169 16.1232 6.56253 15ZM15 23.4375C14.2446 23.4394 13.4923 23.3419 12.7623 23.1475C12.6233 23.1105 12.4947 23.0421 12.3864 22.9475C12.2781 22.8528 12.193 22.7346 12.1377 22.6018C12.0824 22.469 12.0584 22.3253 12.0675 22.1817C12.0767 22.0382 12.1188 21.8987 12.1905 21.774L15.2713 16.4098C15.3537 16.267 15.4723 16.1486 15.6151 16.0663C15.7579 15.984 15.9198 15.9408 16.0846 15.941H22.2598C22.4023 15.941 22.5428 15.9735 22.6709 16.036C22.7989 16.0985 22.911 16.1893 22.9986 16.3016C23.0863 16.4139 23.1472 16.5447 23.1768 16.684C23.2063 16.8234 23.2037 16.9676 23.1692 17.1059C22.7037 18.9184 21.6482 20.5245 20.1691 21.6709C18.69 22.8173 16.8714 23.4388 15 23.4375Z" fill="#B9BCCD"/>
</svg>
