<svg width="20" height="20" viewBox="0 0 20 20" fill="none" xmlns="http://www.w3.org/2000/svg">
<path d="M16.8748 17.5C16.7927 17.5001 16.7114 17.484 16.6356 17.4526C16.5598 17.4211 16.4909 17.375 16.433 17.3168L2.68301 3.5668C2.57074 3.44864 2.50908 3.2913 2.51117 3.12832C2.51326 2.96534 2.57892 2.80963 2.69418 2.69438C2.80943 2.57913 2.96514 2.51346 3.12812 2.51137C3.29109 2.50929 3.44844 2.57095 3.5666 2.68321L17.3166 16.4332C17.4039 16.5206 17.4634 16.632 17.4875 16.7532C17.5116 16.8744 17.4992 17 17.452 17.1141C17.4047 17.2283 17.3246 17.3259 17.2219 17.3946C17.1192 17.4633 16.9984 17.5 16.8748 17.5ZM9.98652 15C8.36582 15 6.80293 14.5203 5.34121 13.5742C4.01035 12.7149 2.8123 11.484 1.87636 10.0195V10.0164C2.65527 8.9004 3.5084 7.95665 4.4248 7.19571C4.43309 7.18878 4.43985 7.1802 4.44466 7.17053C4.44947 7.16085 4.45222 7.15028 4.45273 7.13949C4.45324 7.1287 4.45151 7.11791 4.44765 7.10782C4.44378 7.09773 4.43787 7.08855 4.43027 7.08087L3.65215 6.30391C3.63832 6.28997 3.61975 6.28175 3.60013 6.28088C3.58052 6.28001 3.56129 6.28656 3.54629 6.29923C2.57285 7.11954 1.66933 8.12579 0.847849 9.30391C0.706515 9.50677 0.628677 9.74706 0.624226 9.99425C0.619774 10.2414 0.688911 10.4844 0.822849 10.6922C1.85449 12.3066 3.18222 13.6664 4.66191 14.6238C6.32793 15.7031 8.1209 16.25 9.98652 16.25C10.9935 16.2469 11.9934 16.0809 12.9475 15.7586C12.96 15.7543 12.9713 15.7469 12.9803 15.7371C12.9892 15.7272 12.9954 15.7153 12.9985 15.7023C13.0015 15.6894 13.0011 15.6759 12.9975 15.6631C12.9938 15.6503 12.9869 15.6387 12.9775 15.6293L12.1346 14.7863C12.1152 14.7674 12.0912 14.7538 12.0649 14.747C12.0387 14.7402 12.0111 14.7402 11.985 14.7473C11.3321 14.9154 10.6607 15.0003 9.98652 15ZM19.1732 9.32032C18.1396 7.72188 16.7986 6.36407 15.2955 5.39337C13.6326 4.31837 11.7967 3.75001 9.98652 3.75001C8.99018 3.75178 8.00124 3.9212 7.06113 4.25118C7.0486 4.25554 7.0374 4.26301 7.02856 4.2729C7.01972 4.28279 7.01354 4.29477 7.01061 4.3077C7.00768 4.32063 7.00809 4.3341 7.01181 4.34683C7.01552 4.35957 7.02241 4.37114 7.03183 4.38048L7.87363 5.22227C7.89323 5.24154 7.91756 5.25529 7.94417 5.26215C7.97078 5.26901 7.99873 5.26873 8.02519 5.26134C8.66463 5.08836 9.3241 5.00049 9.98652 5.00001C11.576 5.00001 13.1342 5.48555 14.6174 6.44532C15.9732 7.32032 17.1854 8.55001 18.1236 10C18.1243 10.0009 18.1247 10.002 18.1247 10.0031C18.1247 10.0043 18.1243 10.0054 18.1236 10.0063C17.4425 11.0785 16.5974 12.0372 15.6189 12.8473C15.6106 12.8542 15.6037 12.8628 15.5988 12.8724C15.594 12.8821 15.5912 12.8928 15.5906 12.9036C15.5901 12.9144 15.5918 12.9253 15.5956 12.9354C15.5995 12.9456 15.6054 12.9548 15.6131 12.9625L16.3904 13.7395C16.4042 13.7533 16.4226 13.7616 16.4422 13.7625C16.4617 13.7635 16.4809 13.757 16.4959 13.7445C17.5404 12.8651 18.4446 11.8313 19.1771 10.6789C19.3066 10.4758 19.3751 10.2399 19.3744 9.99904C19.3737 9.75821 19.3039 9.52264 19.1732 9.32032Z" fill="black"/>
<path d="M9.99981 6.25C9.71892 6.24985 9.43891 6.2813 9.16505 6.34375C9.15122 6.34662 9.13842 6.35319 9.12803 6.36276C9.11763 6.37233 9.11002 6.38453 9.10602 6.39808C9.10201 6.41163 9.10175 6.42601 9.10527 6.43969C9.10878 6.45337 9.11594 6.46585 9.12599 6.47578L13.524 10.8727C13.534 10.8827 13.5464 10.8899 13.5601 10.8934C13.5738 10.8969 13.5882 10.8966 13.6017 10.8926C13.6153 10.8886 13.6275 10.881 13.6371 10.8706C13.6466 10.8602 13.6532 10.8474 13.6561 10.8336C13.7813 10.2844 13.7812 9.71403 13.6557 9.16488C13.5303 8.61573 13.2827 8.1019 12.9315 7.66154C12.5802 7.22118 12.1342 6.86562 11.6267 6.62125C11.1192 6.37688 10.5631 6.24999 9.99981 6.25ZM6.47559 9.12734C6.46566 9.1173 6.45319 9.11014 6.4395 9.10662C6.42582 9.10311 6.41144 9.10337 6.39789 9.10738C6.38435 9.11138 6.37214 9.11899 6.36257 9.12938C6.35301 9.13978 6.34644 9.15257 6.34356 9.16641C6.2019 9.78529 6.21969 10.43 6.39526 11.0401C6.57083 11.6503 6.89844 12.2058 7.34737 12.6548C7.79631 13.1037 8.35188 13.4313 8.96201 13.6069C9.57214 13.7825 10.2169 13.8003 10.8358 13.6586C10.8496 13.6557 10.8624 13.6492 10.8728 13.6396C10.8832 13.63 10.8908 13.6178 10.8948 13.6043C10.8988 13.5907 10.8991 13.5763 10.8955 13.5627C10.892 13.549 10.8849 13.5365 10.8748 13.5266L6.47559 9.12734Z" fill="black"/>
</svg>
