<svg width="30" height="30" viewBox="0 0 30 30" fill="none" xmlns="http://www.w3.org/2000/svg">
<path d="M22.5 4.6875H7.5C5.97656 4.6875 4.98047 5.50781 4.6875 7.03125L2.8125 15.9375V22.5C2.81466 23.2453 3.11168 23.9594 3.63865 24.4863C4.16563 25.0133 4.87974 25.3103 5.625 25.3125H24.375C25.1203 25.3103 25.8344 25.0133 26.3613 24.4863C26.8883 23.9594 27.1853 23.2453 27.1875 22.5V15.9375L25.3125 7.03125C25.0195 5.44922 23.9648 4.6875 22.5 4.6875Z" stroke="#000" stroke-width="2" stroke-linejoin="round"/>
<path d="M7.5 12.1875H22.5M2.8125 15.9375H11.25H2.8125ZM18.75 15.9375H27.1875H18.75ZM11.25 15.9375C11.25 16.9321 11.6451 17.8859 12.3483 18.5891C13.0516 19.2924 14.0054 19.6875 15 19.6875C15.9946 19.6875 16.9484 19.2924 17.6516 18.5891C18.3549 17.8859 18.75 16.9321 18.75 15.9375H11.25ZM8.4375 8.4375H21.5625H8.4375Z" stroke="#000" stroke-width="2" stroke-linecap="round" stroke-linejoin="round"/>
</svg>
